G04 #@! TF.GenerationSoftware,KiCad,Pcbnew,(5.1.4)-1*
G04 #@! TF.CreationDate,2022-10-15T13:04:34-05:00*
G04 #@! TF.ProjectId,ai03-guide,61693033-2d67-4756-9964-652e6b696361,rev?*
G04 #@! TF.SameCoordinates,Original*
G04 #@! TF.FileFunction,Copper,L2,Bot*
G04 #@! TF.FilePolarity,Positive*
%FSLAX46Y46*%
G04 Gerber Fmt 4.6, Leading zero omitted, Abs format (unit mm)*
G04 Created by KiCad (PCBNEW (5.1.4)-1) date 2022-10-15 13:04:34*
%MOMM*%
%LPD*%
G04 APERTURE LIST*
%ADD10R,1.400000X1.200000*%
%ADD11O,1.700000X2.700000*%
%ADD12R,0.500000X2.250000*%
%ADD13R,0.550000X1.500000*%
%ADD14R,1.500000X0.550000*%
%ADD15R,1.800000X1.100000*%
%ADD16C,0.100000*%
%ADD17C,0.975000*%
%ADD18C,2.250000*%
%ADD19C,2.250000*%
%ADD20C,1.250000*%
%ADD21R,0.900000X1.200000*%
%ADD22C,0.800000*%
%ADD23C,0.381000*%
%ADD24C,0.250000*%
%ADD25C,0.200000*%
%ADD26C,0.254000*%
G04 APERTURE END LIST*
D10*
X87807500Y-119897000D03*
X90007500Y-119897000D03*
X90007500Y-118197000D03*
X87807500Y-118197000D03*
D11*
X104860000Y-87250000D03*
X112160000Y-87250000D03*
X112160000Y-91750000D03*
X104860000Y-91750000D03*
D12*
X106910000Y-91750000D03*
X107710000Y-91750000D03*
X108510000Y-91750000D03*
X109310000Y-91750000D03*
X110110000Y-91750000D03*
D13*
X92113750Y-100901000D03*
X91313750Y-100901000D03*
X90513750Y-100901000D03*
X89713750Y-100901000D03*
X88913750Y-100901000D03*
X88113750Y-100901000D03*
X87313750Y-100901000D03*
X86513750Y-100901000D03*
X85713750Y-100901000D03*
X84913750Y-100901000D03*
X84113750Y-100901000D03*
D14*
X82413750Y-102601000D03*
X82413750Y-103401000D03*
X82413750Y-104201000D03*
X82413750Y-105001000D03*
X82413750Y-105801000D03*
X82413750Y-106601000D03*
X82413750Y-107401000D03*
X82413750Y-108201000D03*
X82413750Y-109001000D03*
X82413750Y-109801000D03*
X82413750Y-110601000D03*
D13*
X84113750Y-112301000D03*
X84913750Y-112301000D03*
X85713750Y-112301000D03*
X86513750Y-112301000D03*
X87313750Y-112301000D03*
X88113750Y-112301000D03*
X88913750Y-112301000D03*
X89713750Y-112301000D03*
X90513750Y-112301000D03*
X91313750Y-112301000D03*
X92113750Y-112301000D03*
D14*
X93813750Y-110601000D03*
X93813750Y-109801000D03*
X93813750Y-109001000D03*
X93813750Y-108201000D03*
X93813750Y-107401000D03*
X93813750Y-106601000D03*
X93813750Y-105801000D03*
X93813750Y-105001000D03*
X93813750Y-104201000D03*
X93813750Y-103401000D03*
X93813750Y-102601000D03*
D15*
X106620000Y-116370000D03*
X112820000Y-120070000D03*
X106620000Y-120070000D03*
X112820000Y-116370000D03*
D16*
G36*
X111860142Y-99371174D02*
G01*
X111883803Y-99374684D01*
X111907007Y-99380496D01*
X111929529Y-99388554D01*
X111951153Y-99398782D01*
X111971670Y-99411079D01*
X111990883Y-99425329D01*
X112008607Y-99441393D01*
X112024671Y-99459117D01*
X112038921Y-99478330D01*
X112051218Y-99498847D01*
X112061446Y-99520471D01*
X112069504Y-99542993D01*
X112075316Y-99566197D01*
X112078826Y-99589858D01*
X112080000Y-99613750D01*
X112080000Y-100101250D01*
X112078826Y-100125142D01*
X112075316Y-100148803D01*
X112069504Y-100172007D01*
X112061446Y-100194529D01*
X112051218Y-100216153D01*
X112038921Y-100236670D01*
X112024671Y-100255883D01*
X112008607Y-100273607D01*
X111990883Y-100289671D01*
X111971670Y-100303921D01*
X111951153Y-100316218D01*
X111929529Y-100326446D01*
X111907007Y-100334504D01*
X111883803Y-100340316D01*
X111860142Y-100343826D01*
X111836250Y-100345000D01*
X110923750Y-100345000D01*
X110899858Y-100343826D01*
X110876197Y-100340316D01*
X110852993Y-100334504D01*
X110830471Y-100326446D01*
X110808847Y-100316218D01*
X110788330Y-100303921D01*
X110769117Y-100289671D01*
X110751393Y-100273607D01*
X110735329Y-100255883D01*
X110721079Y-100236670D01*
X110708782Y-100216153D01*
X110698554Y-100194529D01*
X110690496Y-100172007D01*
X110684684Y-100148803D01*
X110681174Y-100125142D01*
X110680000Y-100101250D01*
X110680000Y-99613750D01*
X110681174Y-99589858D01*
X110684684Y-99566197D01*
X110690496Y-99542993D01*
X110698554Y-99520471D01*
X110708782Y-99498847D01*
X110721079Y-99478330D01*
X110735329Y-99459117D01*
X110751393Y-99441393D01*
X110769117Y-99425329D01*
X110788330Y-99411079D01*
X110808847Y-99398782D01*
X110830471Y-99388554D01*
X110852993Y-99380496D01*
X110876197Y-99374684D01*
X110899858Y-99371174D01*
X110923750Y-99370000D01*
X111836250Y-99370000D01*
X111860142Y-99371174D01*
X111860142Y-99371174D01*
G37*
D17*
X111380000Y-99857500D03*
D16*
G36*
X111860142Y-97496174D02*
G01*
X111883803Y-97499684D01*
X111907007Y-97505496D01*
X111929529Y-97513554D01*
X111951153Y-97523782D01*
X111971670Y-97536079D01*
X111990883Y-97550329D01*
X112008607Y-97566393D01*
X112024671Y-97584117D01*
X112038921Y-97603330D01*
X112051218Y-97623847D01*
X112061446Y-97645471D01*
X112069504Y-97667993D01*
X112075316Y-97691197D01*
X112078826Y-97714858D01*
X112080000Y-97738750D01*
X112080000Y-98226250D01*
X112078826Y-98250142D01*
X112075316Y-98273803D01*
X112069504Y-98297007D01*
X112061446Y-98319529D01*
X112051218Y-98341153D01*
X112038921Y-98361670D01*
X112024671Y-98380883D01*
X112008607Y-98398607D01*
X111990883Y-98414671D01*
X111971670Y-98428921D01*
X111951153Y-98441218D01*
X111929529Y-98451446D01*
X111907007Y-98459504D01*
X111883803Y-98465316D01*
X111860142Y-98468826D01*
X111836250Y-98470000D01*
X110923750Y-98470000D01*
X110899858Y-98468826D01*
X110876197Y-98465316D01*
X110852993Y-98459504D01*
X110830471Y-98451446D01*
X110808847Y-98441218D01*
X110788330Y-98428921D01*
X110769117Y-98414671D01*
X110751393Y-98398607D01*
X110735329Y-98380883D01*
X110721079Y-98361670D01*
X110708782Y-98341153D01*
X110698554Y-98319529D01*
X110690496Y-98297007D01*
X110684684Y-98273803D01*
X110681174Y-98250142D01*
X110680000Y-98226250D01*
X110680000Y-97738750D01*
X110681174Y-97714858D01*
X110684684Y-97691197D01*
X110690496Y-97667993D01*
X110698554Y-97645471D01*
X110708782Y-97623847D01*
X110721079Y-97603330D01*
X110735329Y-97584117D01*
X110751393Y-97566393D01*
X110769117Y-97550329D01*
X110788330Y-97536079D01*
X110808847Y-97523782D01*
X110830471Y-97513554D01*
X110852993Y-97505496D01*
X110876197Y-97499684D01*
X110899858Y-97496174D01*
X110923750Y-97495000D01*
X111836250Y-97495000D01*
X111860142Y-97496174D01*
X111860142Y-97496174D01*
G37*
D17*
X111380000Y-97982500D03*
D16*
G36*
X106750142Y-97403674D02*
G01*
X106773803Y-97407184D01*
X106797007Y-97412996D01*
X106819529Y-97421054D01*
X106841153Y-97431282D01*
X106861670Y-97443579D01*
X106880883Y-97457829D01*
X106898607Y-97473893D01*
X106914671Y-97491617D01*
X106928921Y-97510830D01*
X106941218Y-97531347D01*
X106951446Y-97552971D01*
X106959504Y-97575493D01*
X106965316Y-97598697D01*
X106968826Y-97622358D01*
X106970000Y-97646250D01*
X106970000Y-98133750D01*
X106968826Y-98157642D01*
X106965316Y-98181303D01*
X106959504Y-98204507D01*
X106951446Y-98227029D01*
X106941218Y-98248653D01*
X106928921Y-98269170D01*
X106914671Y-98288383D01*
X106898607Y-98306107D01*
X106880883Y-98322171D01*
X106861670Y-98336421D01*
X106841153Y-98348718D01*
X106819529Y-98358946D01*
X106797007Y-98367004D01*
X106773803Y-98372816D01*
X106750142Y-98376326D01*
X106726250Y-98377500D01*
X105813750Y-98377500D01*
X105789858Y-98376326D01*
X105766197Y-98372816D01*
X105742993Y-98367004D01*
X105720471Y-98358946D01*
X105698847Y-98348718D01*
X105678330Y-98336421D01*
X105659117Y-98322171D01*
X105641393Y-98306107D01*
X105625329Y-98288383D01*
X105611079Y-98269170D01*
X105598782Y-98248653D01*
X105588554Y-98227029D01*
X105580496Y-98204507D01*
X105574684Y-98181303D01*
X105571174Y-98157642D01*
X105570000Y-98133750D01*
X105570000Y-97646250D01*
X105571174Y-97622358D01*
X105574684Y-97598697D01*
X105580496Y-97575493D01*
X105588554Y-97552971D01*
X105598782Y-97531347D01*
X105611079Y-97510830D01*
X105625329Y-97491617D01*
X105641393Y-97473893D01*
X105659117Y-97457829D01*
X105678330Y-97443579D01*
X105698847Y-97431282D01*
X105720471Y-97421054D01*
X105742993Y-97412996D01*
X105766197Y-97407184D01*
X105789858Y-97403674D01*
X105813750Y-97402500D01*
X106726250Y-97402500D01*
X106750142Y-97403674D01*
X106750142Y-97403674D01*
G37*
D17*
X106270000Y-97890000D03*
D16*
G36*
X106750142Y-99278674D02*
G01*
X106773803Y-99282184D01*
X106797007Y-99287996D01*
X106819529Y-99296054D01*
X106841153Y-99306282D01*
X106861670Y-99318579D01*
X106880883Y-99332829D01*
X106898607Y-99348893D01*
X106914671Y-99366617D01*
X106928921Y-99385830D01*
X106941218Y-99406347D01*
X106951446Y-99427971D01*
X106959504Y-99450493D01*
X106965316Y-99473697D01*
X106968826Y-99497358D01*
X106970000Y-99521250D01*
X106970000Y-100008750D01*
X106968826Y-100032642D01*
X106965316Y-100056303D01*
X106959504Y-100079507D01*
X106951446Y-100102029D01*
X106941218Y-100123653D01*
X106928921Y-100144170D01*
X106914671Y-100163383D01*
X106898607Y-100181107D01*
X106880883Y-100197171D01*
X106861670Y-100211421D01*
X106841153Y-100223718D01*
X106819529Y-100233946D01*
X106797007Y-100242004D01*
X106773803Y-100247816D01*
X106750142Y-100251326D01*
X106726250Y-100252500D01*
X105813750Y-100252500D01*
X105789858Y-100251326D01*
X105766197Y-100247816D01*
X105742993Y-100242004D01*
X105720471Y-100233946D01*
X105698847Y-100223718D01*
X105678330Y-100211421D01*
X105659117Y-100197171D01*
X105641393Y-100181107D01*
X105625329Y-100163383D01*
X105611079Y-100144170D01*
X105598782Y-100123653D01*
X105588554Y-100102029D01*
X105580496Y-100079507D01*
X105574684Y-100056303D01*
X105571174Y-100032642D01*
X105570000Y-100008750D01*
X105570000Y-99521250D01*
X105571174Y-99497358D01*
X105574684Y-99473697D01*
X105580496Y-99450493D01*
X105588554Y-99427971D01*
X105598782Y-99406347D01*
X105611079Y-99385830D01*
X105625329Y-99366617D01*
X105641393Y-99348893D01*
X105659117Y-99332829D01*
X105678330Y-99318579D01*
X105698847Y-99306282D01*
X105720471Y-99296054D01*
X105742993Y-99287996D01*
X105766197Y-99282184D01*
X105789858Y-99278674D01*
X105813750Y-99277500D01*
X106726250Y-99277500D01*
X106750142Y-99278674D01*
X106750142Y-99278674D01*
G37*
D17*
X106270000Y-99765000D03*
D16*
G36*
X109190142Y-97423674D02*
G01*
X109213803Y-97427184D01*
X109237007Y-97432996D01*
X109259529Y-97441054D01*
X109281153Y-97451282D01*
X109301670Y-97463579D01*
X109320883Y-97477829D01*
X109338607Y-97493893D01*
X109354671Y-97511617D01*
X109368921Y-97530830D01*
X109381218Y-97551347D01*
X109391446Y-97572971D01*
X109399504Y-97595493D01*
X109405316Y-97618697D01*
X109408826Y-97642358D01*
X109410000Y-97666250D01*
X109410000Y-98153750D01*
X109408826Y-98177642D01*
X109405316Y-98201303D01*
X109399504Y-98224507D01*
X109391446Y-98247029D01*
X109381218Y-98268653D01*
X109368921Y-98289170D01*
X109354671Y-98308383D01*
X109338607Y-98326107D01*
X109320883Y-98342171D01*
X109301670Y-98356421D01*
X109281153Y-98368718D01*
X109259529Y-98378946D01*
X109237007Y-98387004D01*
X109213803Y-98392816D01*
X109190142Y-98396326D01*
X109166250Y-98397500D01*
X108253750Y-98397500D01*
X108229858Y-98396326D01*
X108206197Y-98392816D01*
X108182993Y-98387004D01*
X108160471Y-98378946D01*
X108138847Y-98368718D01*
X108118330Y-98356421D01*
X108099117Y-98342171D01*
X108081393Y-98326107D01*
X108065329Y-98308383D01*
X108051079Y-98289170D01*
X108038782Y-98268653D01*
X108028554Y-98247029D01*
X108020496Y-98224507D01*
X108014684Y-98201303D01*
X108011174Y-98177642D01*
X108010000Y-98153750D01*
X108010000Y-97666250D01*
X108011174Y-97642358D01*
X108014684Y-97618697D01*
X108020496Y-97595493D01*
X108028554Y-97572971D01*
X108038782Y-97551347D01*
X108051079Y-97530830D01*
X108065329Y-97511617D01*
X108081393Y-97493893D01*
X108099117Y-97477829D01*
X108118330Y-97463579D01*
X108138847Y-97451282D01*
X108160471Y-97441054D01*
X108182993Y-97432996D01*
X108206197Y-97427184D01*
X108229858Y-97423674D01*
X108253750Y-97422500D01*
X109166250Y-97422500D01*
X109190142Y-97423674D01*
X109190142Y-97423674D01*
G37*
D17*
X108710000Y-97910000D03*
D16*
G36*
X109190142Y-99298674D02*
G01*
X109213803Y-99302184D01*
X109237007Y-99307996D01*
X109259529Y-99316054D01*
X109281153Y-99326282D01*
X109301670Y-99338579D01*
X109320883Y-99352829D01*
X109338607Y-99368893D01*
X109354671Y-99386617D01*
X109368921Y-99405830D01*
X109381218Y-99426347D01*
X109391446Y-99447971D01*
X109399504Y-99470493D01*
X109405316Y-99493697D01*
X109408826Y-99517358D01*
X109410000Y-99541250D01*
X109410000Y-100028750D01*
X109408826Y-100052642D01*
X109405316Y-100076303D01*
X109399504Y-100099507D01*
X109391446Y-100122029D01*
X109381218Y-100143653D01*
X109368921Y-100164170D01*
X109354671Y-100183383D01*
X109338607Y-100201107D01*
X109320883Y-100217171D01*
X109301670Y-100231421D01*
X109281153Y-100243718D01*
X109259529Y-100253946D01*
X109237007Y-100262004D01*
X109213803Y-100267816D01*
X109190142Y-100271326D01*
X109166250Y-100272500D01*
X108253750Y-100272500D01*
X108229858Y-100271326D01*
X108206197Y-100267816D01*
X108182993Y-100262004D01*
X108160471Y-100253946D01*
X108138847Y-100243718D01*
X108118330Y-100231421D01*
X108099117Y-100217171D01*
X108081393Y-100201107D01*
X108065329Y-100183383D01*
X108051079Y-100164170D01*
X108038782Y-100143653D01*
X108028554Y-100122029D01*
X108020496Y-100099507D01*
X108014684Y-100076303D01*
X108011174Y-100052642D01*
X108010000Y-100028750D01*
X108010000Y-99541250D01*
X108011174Y-99517358D01*
X108014684Y-99493697D01*
X108020496Y-99470493D01*
X108028554Y-99447971D01*
X108038782Y-99426347D01*
X108051079Y-99405830D01*
X108065329Y-99386617D01*
X108081393Y-99368893D01*
X108099117Y-99352829D01*
X108118330Y-99338579D01*
X108138847Y-99326282D01*
X108160471Y-99316054D01*
X108182993Y-99307996D01*
X108206197Y-99302184D01*
X108229858Y-99298674D01*
X108253750Y-99297500D01*
X109166250Y-99297500D01*
X109190142Y-99298674D01*
X109190142Y-99298674D01*
G37*
D17*
X108710000Y-99785000D03*
D16*
G36*
X110962642Y-105716174D02*
G01*
X110986303Y-105719684D01*
X111009507Y-105725496D01*
X111032029Y-105733554D01*
X111053653Y-105743782D01*
X111074170Y-105756079D01*
X111093383Y-105770329D01*
X111111107Y-105786393D01*
X111127171Y-105804117D01*
X111141421Y-105823330D01*
X111153718Y-105843847D01*
X111163946Y-105865471D01*
X111172004Y-105887993D01*
X111177816Y-105911197D01*
X111181326Y-105934858D01*
X111182500Y-105958750D01*
X111182500Y-106446250D01*
X111181326Y-106470142D01*
X111177816Y-106493803D01*
X111172004Y-106517007D01*
X111163946Y-106539529D01*
X111153718Y-106561153D01*
X111141421Y-106581670D01*
X111127171Y-106600883D01*
X111111107Y-106618607D01*
X111093383Y-106634671D01*
X111074170Y-106648921D01*
X111053653Y-106661218D01*
X111032029Y-106671446D01*
X111009507Y-106679504D01*
X110986303Y-106685316D01*
X110962642Y-106688826D01*
X110938750Y-106690000D01*
X110026250Y-106690000D01*
X110002358Y-106688826D01*
X109978697Y-106685316D01*
X109955493Y-106679504D01*
X109932971Y-106671446D01*
X109911347Y-106661218D01*
X109890830Y-106648921D01*
X109871617Y-106634671D01*
X109853893Y-106618607D01*
X109837829Y-106600883D01*
X109823579Y-106581670D01*
X109811282Y-106561153D01*
X109801054Y-106539529D01*
X109792996Y-106517007D01*
X109787184Y-106493803D01*
X109783674Y-106470142D01*
X109782500Y-106446250D01*
X109782500Y-105958750D01*
X109783674Y-105934858D01*
X109787184Y-105911197D01*
X109792996Y-105887993D01*
X109801054Y-105865471D01*
X109811282Y-105843847D01*
X109823579Y-105823330D01*
X109837829Y-105804117D01*
X109853893Y-105786393D01*
X109871617Y-105770329D01*
X109890830Y-105756079D01*
X109911347Y-105743782D01*
X109932971Y-105733554D01*
X109955493Y-105725496D01*
X109978697Y-105719684D01*
X110002358Y-105716174D01*
X110026250Y-105715000D01*
X110938750Y-105715000D01*
X110962642Y-105716174D01*
X110962642Y-105716174D01*
G37*
D17*
X110482500Y-106202500D03*
D16*
G36*
X110962642Y-107591174D02*
G01*
X110986303Y-107594684D01*
X111009507Y-107600496D01*
X111032029Y-107608554D01*
X111053653Y-107618782D01*
X111074170Y-107631079D01*
X111093383Y-107645329D01*
X111111107Y-107661393D01*
X111127171Y-107679117D01*
X111141421Y-107698330D01*
X111153718Y-107718847D01*
X111163946Y-107740471D01*
X111172004Y-107762993D01*
X111177816Y-107786197D01*
X111181326Y-107809858D01*
X111182500Y-107833750D01*
X111182500Y-108321250D01*
X111181326Y-108345142D01*
X111177816Y-108368803D01*
X111172004Y-108392007D01*
X111163946Y-108414529D01*
X111153718Y-108436153D01*
X111141421Y-108456670D01*
X111127171Y-108475883D01*
X111111107Y-108493607D01*
X111093383Y-108509671D01*
X111074170Y-108523921D01*
X111053653Y-108536218D01*
X111032029Y-108546446D01*
X111009507Y-108554504D01*
X110986303Y-108560316D01*
X110962642Y-108563826D01*
X110938750Y-108565000D01*
X110026250Y-108565000D01*
X110002358Y-108563826D01*
X109978697Y-108560316D01*
X109955493Y-108554504D01*
X109932971Y-108546446D01*
X109911347Y-108536218D01*
X109890830Y-108523921D01*
X109871617Y-108509671D01*
X109853893Y-108493607D01*
X109837829Y-108475883D01*
X109823579Y-108456670D01*
X109811282Y-108436153D01*
X109801054Y-108414529D01*
X109792996Y-108392007D01*
X109787184Y-108368803D01*
X109783674Y-108345142D01*
X109782500Y-108321250D01*
X109782500Y-107833750D01*
X109783674Y-107809858D01*
X109787184Y-107786197D01*
X109792996Y-107762993D01*
X109801054Y-107740471D01*
X109811282Y-107718847D01*
X109823579Y-107698330D01*
X109837829Y-107679117D01*
X109853893Y-107661393D01*
X109871617Y-107645329D01*
X109890830Y-107631079D01*
X109911347Y-107618782D01*
X109932971Y-107608554D01*
X109955493Y-107600496D01*
X109978697Y-107594684D01*
X110002358Y-107591174D01*
X110026250Y-107590000D01*
X110938750Y-107590000D01*
X110962642Y-107591174D01*
X110962642Y-107591174D01*
G37*
D17*
X110482500Y-108077500D03*
D18*
X61000000Y-110046000D03*
X60345001Y-110776000D03*
D19*
X59690000Y-111506000D02*
X61000002Y-110046000D01*
D18*
X66040000Y-108966000D03*
X66020000Y-109256000D03*
D19*
X66000000Y-109546000D02*
X66040000Y-108966000D01*
D18*
X41950000Y-110046000D03*
X41295001Y-110776000D03*
D19*
X40640000Y-111506000D02*
X41950002Y-110046000D01*
D18*
X46990000Y-108966000D03*
X46970000Y-109256000D03*
D19*
X46950000Y-109546000D02*
X46990000Y-108966000D01*
D18*
X61000000Y-90996000D03*
X60345001Y-91726000D03*
D19*
X59690000Y-92456000D02*
X61000002Y-90996000D01*
D18*
X66040000Y-89916000D03*
X66020000Y-90206000D03*
D19*
X66000000Y-90496000D02*
X66040000Y-89916000D01*
D18*
X41950000Y-90985000D03*
X41295001Y-91715000D03*
D19*
X40640000Y-92445000D02*
X41950002Y-90985000D01*
D18*
X46990000Y-89905000D03*
X46970000Y-90195000D03*
D19*
X46950000Y-90485000D02*
X46990000Y-89905000D01*
D16*
G36*
X103929504Y-97096204D02*
G01*
X103953773Y-97099804D01*
X103977571Y-97105765D01*
X104000671Y-97114030D01*
X104022849Y-97124520D01*
X104043893Y-97137133D01*
X104063598Y-97151747D01*
X104081777Y-97168223D01*
X104098253Y-97186402D01*
X104112867Y-97206107D01*
X104125480Y-97227151D01*
X104135970Y-97249329D01*
X104144235Y-97272429D01*
X104150196Y-97296227D01*
X104153796Y-97320496D01*
X104155000Y-97345000D01*
X104155000Y-98095000D01*
X104153796Y-98119504D01*
X104150196Y-98143773D01*
X104144235Y-98167571D01*
X104135970Y-98190671D01*
X104125480Y-98212849D01*
X104112867Y-98233893D01*
X104098253Y-98253598D01*
X104081777Y-98271777D01*
X104063598Y-98288253D01*
X104043893Y-98302867D01*
X104022849Y-98315480D01*
X104000671Y-98325970D01*
X103977571Y-98334235D01*
X103953773Y-98340196D01*
X103929504Y-98343796D01*
X103905000Y-98345000D01*
X102655000Y-98345000D01*
X102630496Y-98343796D01*
X102606227Y-98340196D01*
X102582429Y-98334235D01*
X102559329Y-98325970D01*
X102537151Y-98315480D01*
X102516107Y-98302867D01*
X102496402Y-98288253D01*
X102478223Y-98271777D01*
X102461747Y-98253598D01*
X102447133Y-98233893D01*
X102434520Y-98212849D01*
X102424030Y-98190671D01*
X102415765Y-98167571D01*
X102409804Y-98143773D01*
X102406204Y-98119504D01*
X102405000Y-98095000D01*
X102405000Y-97345000D01*
X102406204Y-97320496D01*
X102409804Y-97296227D01*
X102415765Y-97272429D01*
X102424030Y-97249329D01*
X102434520Y-97227151D01*
X102447133Y-97206107D01*
X102461747Y-97186402D01*
X102478223Y-97168223D01*
X102496402Y-97151747D01*
X102516107Y-97137133D01*
X102537151Y-97124520D01*
X102559329Y-97114030D01*
X102582429Y-97105765D01*
X102606227Y-97099804D01*
X102630496Y-97096204D01*
X102655000Y-97095000D01*
X103905000Y-97095000D01*
X103929504Y-97096204D01*
X103929504Y-97096204D01*
G37*
D20*
X103280000Y-97720000D03*
D16*
G36*
X103929504Y-99896204D02*
G01*
X103953773Y-99899804D01*
X103977571Y-99905765D01*
X104000671Y-99914030D01*
X104022849Y-99924520D01*
X104043893Y-99937133D01*
X104063598Y-99951747D01*
X104081777Y-99968223D01*
X104098253Y-99986402D01*
X104112867Y-100006107D01*
X104125480Y-100027151D01*
X104135970Y-100049329D01*
X104144235Y-100072429D01*
X104150196Y-100096227D01*
X104153796Y-100120496D01*
X104155000Y-100145000D01*
X104155000Y-100895000D01*
X104153796Y-100919504D01*
X104150196Y-100943773D01*
X104144235Y-100967571D01*
X104135970Y-100990671D01*
X104125480Y-101012849D01*
X104112867Y-101033893D01*
X104098253Y-101053598D01*
X104081777Y-101071777D01*
X104063598Y-101088253D01*
X104043893Y-101102867D01*
X104022849Y-101115480D01*
X104000671Y-101125970D01*
X103977571Y-101134235D01*
X103953773Y-101140196D01*
X103929504Y-101143796D01*
X103905000Y-101145000D01*
X102655000Y-101145000D01*
X102630496Y-101143796D01*
X102606227Y-101140196D01*
X102582429Y-101134235D01*
X102559329Y-101125970D01*
X102537151Y-101115480D01*
X102516107Y-101102867D01*
X102496402Y-101088253D01*
X102478223Y-101071777D01*
X102461747Y-101053598D01*
X102447133Y-101033893D01*
X102434520Y-101012849D01*
X102424030Y-100990671D01*
X102415765Y-100967571D01*
X102409804Y-100943773D01*
X102406204Y-100919504D01*
X102405000Y-100895000D01*
X102405000Y-100145000D01*
X102406204Y-100120496D01*
X102409804Y-100096227D01*
X102415765Y-100072429D01*
X102424030Y-100049329D01*
X102434520Y-100027151D01*
X102447133Y-100006107D01*
X102461747Y-99986402D01*
X102478223Y-99968223D01*
X102496402Y-99951747D01*
X102516107Y-99937133D01*
X102537151Y-99924520D01*
X102559329Y-99914030D01*
X102582429Y-99905765D01*
X102606227Y-99899804D01*
X102630496Y-99896204D01*
X102655000Y-99895000D01*
X103905000Y-99895000D01*
X103929504Y-99896204D01*
X103929504Y-99896204D01*
G37*
D20*
X103280000Y-100520000D03*
D21*
X66040000Y-122428000D03*
X62740000Y-122428000D03*
X47245000Y-122555000D03*
X50545000Y-122555000D03*
X66588640Y-103266240D03*
X63288640Y-103266240D03*
X46884320Y-103164640D03*
X50184320Y-103164640D03*
D16*
G36*
X91253892Y-96329174D02*
G01*
X91277553Y-96332684D01*
X91300757Y-96338496D01*
X91323279Y-96346554D01*
X91344903Y-96356782D01*
X91365420Y-96369079D01*
X91384633Y-96383329D01*
X91402357Y-96399393D01*
X91418421Y-96417117D01*
X91432671Y-96436330D01*
X91444968Y-96456847D01*
X91455196Y-96478471D01*
X91463254Y-96500993D01*
X91469066Y-96524197D01*
X91472576Y-96547858D01*
X91473750Y-96571750D01*
X91473750Y-97484250D01*
X91472576Y-97508142D01*
X91469066Y-97531803D01*
X91463254Y-97555007D01*
X91455196Y-97577529D01*
X91444968Y-97599153D01*
X91432671Y-97619670D01*
X91418421Y-97638883D01*
X91402357Y-97656607D01*
X91384633Y-97672671D01*
X91365420Y-97686921D01*
X91344903Y-97699218D01*
X91323279Y-97709446D01*
X91300757Y-97717504D01*
X91277553Y-97723316D01*
X91253892Y-97726826D01*
X91230000Y-97728000D01*
X90742500Y-97728000D01*
X90718608Y-97726826D01*
X90694947Y-97723316D01*
X90671743Y-97717504D01*
X90649221Y-97709446D01*
X90627597Y-97699218D01*
X90607080Y-97686921D01*
X90587867Y-97672671D01*
X90570143Y-97656607D01*
X90554079Y-97638883D01*
X90539829Y-97619670D01*
X90527532Y-97599153D01*
X90517304Y-97577529D01*
X90509246Y-97555007D01*
X90503434Y-97531803D01*
X90499924Y-97508142D01*
X90498750Y-97484250D01*
X90498750Y-96571750D01*
X90499924Y-96547858D01*
X90503434Y-96524197D01*
X90509246Y-96500993D01*
X90517304Y-96478471D01*
X90527532Y-96456847D01*
X90539829Y-96436330D01*
X90554079Y-96417117D01*
X90570143Y-96399393D01*
X90587867Y-96383329D01*
X90607080Y-96369079D01*
X90627597Y-96356782D01*
X90649221Y-96346554D01*
X90671743Y-96338496D01*
X90694947Y-96332684D01*
X90718608Y-96329174D01*
X90742500Y-96328000D01*
X91230000Y-96328000D01*
X91253892Y-96329174D01*
X91253892Y-96329174D01*
G37*
D17*
X90986250Y-97028000D03*
D16*
G36*
X93128892Y-96329174D02*
G01*
X93152553Y-96332684D01*
X93175757Y-96338496D01*
X93198279Y-96346554D01*
X93219903Y-96356782D01*
X93240420Y-96369079D01*
X93259633Y-96383329D01*
X93277357Y-96399393D01*
X93293421Y-96417117D01*
X93307671Y-96436330D01*
X93319968Y-96456847D01*
X93330196Y-96478471D01*
X93338254Y-96500993D01*
X93344066Y-96524197D01*
X93347576Y-96547858D01*
X93348750Y-96571750D01*
X93348750Y-97484250D01*
X93347576Y-97508142D01*
X93344066Y-97531803D01*
X93338254Y-97555007D01*
X93330196Y-97577529D01*
X93319968Y-97599153D01*
X93307671Y-97619670D01*
X93293421Y-97638883D01*
X93277357Y-97656607D01*
X93259633Y-97672671D01*
X93240420Y-97686921D01*
X93219903Y-97699218D01*
X93198279Y-97709446D01*
X93175757Y-97717504D01*
X93152553Y-97723316D01*
X93128892Y-97726826D01*
X93105000Y-97728000D01*
X92617500Y-97728000D01*
X92593608Y-97726826D01*
X92569947Y-97723316D01*
X92546743Y-97717504D01*
X92524221Y-97709446D01*
X92502597Y-97699218D01*
X92482080Y-97686921D01*
X92462867Y-97672671D01*
X92445143Y-97656607D01*
X92429079Y-97638883D01*
X92414829Y-97619670D01*
X92402532Y-97599153D01*
X92392304Y-97577529D01*
X92384246Y-97555007D01*
X92378434Y-97531803D01*
X92374924Y-97508142D01*
X92373750Y-97484250D01*
X92373750Y-96571750D01*
X92374924Y-96547858D01*
X92378434Y-96524197D01*
X92384246Y-96500993D01*
X92392304Y-96478471D01*
X92402532Y-96456847D01*
X92414829Y-96436330D01*
X92429079Y-96417117D01*
X92445143Y-96399393D01*
X92462867Y-96383329D01*
X92482080Y-96369079D01*
X92502597Y-96356782D01*
X92524221Y-96346554D01*
X92546743Y-96338496D01*
X92569947Y-96332684D01*
X92593608Y-96329174D01*
X92617500Y-96328000D01*
X93105000Y-96328000D01*
X93128892Y-96329174D01*
X93128892Y-96329174D01*
G37*
D17*
X92861250Y-97028000D03*
D16*
G36*
X85191392Y-96329174D02*
G01*
X85215053Y-96332684D01*
X85238257Y-96338496D01*
X85260779Y-96346554D01*
X85282403Y-96356782D01*
X85302920Y-96369079D01*
X85322133Y-96383329D01*
X85339857Y-96399393D01*
X85355921Y-96417117D01*
X85370171Y-96436330D01*
X85382468Y-96456847D01*
X85392696Y-96478471D01*
X85400754Y-96500993D01*
X85406566Y-96524197D01*
X85410076Y-96547858D01*
X85411250Y-96571750D01*
X85411250Y-97484250D01*
X85410076Y-97508142D01*
X85406566Y-97531803D01*
X85400754Y-97555007D01*
X85392696Y-97577529D01*
X85382468Y-97599153D01*
X85370171Y-97619670D01*
X85355921Y-97638883D01*
X85339857Y-97656607D01*
X85322133Y-97672671D01*
X85302920Y-97686921D01*
X85282403Y-97699218D01*
X85260779Y-97709446D01*
X85238257Y-97717504D01*
X85215053Y-97723316D01*
X85191392Y-97726826D01*
X85167500Y-97728000D01*
X84680000Y-97728000D01*
X84656108Y-97726826D01*
X84632447Y-97723316D01*
X84609243Y-97717504D01*
X84586721Y-97709446D01*
X84565097Y-97699218D01*
X84544580Y-97686921D01*
X84525367Y-97672671D01*
X84507643Y-97656607D01*
X84491579Y-97638883D01*
X84477329Y-97619670D01*
X84465032Y-97599153D01*
X84454804Y-97577529D01*
X84446746Y-97555007D01*
X84440934Y-97531803D01*
X84437424Y-97508142D01*
X84436250Y-97484250D01*
X84436250Y-96571750D01*
X84437424Y-96547858D01*
X84440934Y-96524197D01*
X84446746Y-96500993D01*
X84454804Y-96478471D01*
X84465032Y-96456847D01*
X84477329Y-96436330D01*
X84491579Y-96417117D01*
X84507643Y-96399393D01*
X84525367Y-96383329D01*
X84544580Y-96369079D01*
X84565097Y-96356782D01*
X84586721Y-96346554D01*
X84609243Y-96338496D01*
X84632447Y-96332684D01*
X84656108Y-96329174D01*
X84680000Y-96328000D01*
X85167500Y-96328000D01*
X85191392Y-96329174D01*
X85191392Y-96329174D01*
G37*
D17*
X84923750Y-97028000D03*
D16*
G36*
X83316392Y-96329174D02*
G01*
X83340053Y-96332684D01*
X83363257Y-96338496D01*
X83385779Y-96346554D01*
X83407403Y-96356782D01*
X83427920Y-96369079D01*
X83447133Y-96383329D01*
X83464857Y-96399393D01*
X83480921Y-96417117D01*
X83495171Y-96436330D01*
X83507468Y-96456847D01*
X83517696Y-96478471D01*
X83525754Y-96500993D01*
X83531566Y-96524197D01*
X83535076Y-96547858D01*
X83536250Y-96571750D01*
X83536250Y-97484250D01*
X83535076Y-97508142D01*
X83531566Y-97531803D01*
X83525754Y-97555007D01*
X83517696Y-97577529D01*
X83507468Y-97599153D01*
X83495171Y-97619670D01*
X83480921Y-97638883D01*
X83464857Y-97656607D01*
X83447133Y-97672671D01*
X83427920Y-97686921D01*
X83407403Y-97699218D01*
X83385779Y-97709446D01*
X83363257Y-97717504D01*
X83340053Y-97723316D01*
X83316392Y-97726826D01*
X83292500Y-97728000D01*
X82805000Y-97728000D01*
X82781108Y-97726826D01*
X82757447Y-97723316D01*
X82734243Y-97717504D01*
X82711721Y-97709446D01*
X82690097Y-97699218D01*
X82669580Y-97686921D01*
X82650367Y-97672671D01*
X82632643Y-97656607D01*
X82616579Y-97638883D01*
X82602329Y-97619670D01*
X82590032Y-97599153D01*
X82579804Y-97577529D01*
X82571746Y-97555007D01*
X82565934Y-97531803D01*
X82562424Y-97508142D01*
X82561250Y-97484250D01*
X82561250Y-96571750D01*
X82562424Y-96547858D01*
X82565934Y-96524197D01*
X82571746Y-96500993D01*
X82579804Y-96478471D01*
X82590032Y-96456847D01*
X82602329Y-96436330D01*
X82616579Y-96417117D01*
X82632643Y-96399393D01*
X82650367Y-96383329D01*
X82669580Y-96369079D01*
X82690097Y-96356782D01*
X82711721Y-96346554D01*
X82734243Y-96338496D01*
X82757447Y-96332684D01*
X82781108Y-96329174D01*
X82805000Y-96328000D01*
X83292500Y-96328000D01*
X83316392Y-96329174D01*
X83316392Y-96329174D01*
G37*
D17*
X83048750Y-97028000D03*
D16*
G36*
X79220142Y-110608674D02*
G01*
X79243803Y-110612184D01*
X79267007Y-110617996D01*
X79289529Y-110626054D01*
X79311153Y-110636282D01*
X79331670Y-110648579D01*
X79350883Y-110662829D01*
X79368607Y-110678893D01*
X79384671Y-110696617D01*
X79398921Y-110715830D01*
X79411218Y-110736347D01*
X79421446Y-110757971D01*
X79429504Y-110780493D01*
X79435316Y-110803697D01*
X79438826Y-110827358D01*
X79440000Y-110851250D01*
X79440000Y-111338750D01*
X79438826Y-111362642D01*
X79435316Y-111386303D01*
X79429504Y-111409507D01*
X79421446Y-111432029D01*
X79411218Y-111453653D01*
X79398921Y-111474170D01*
X79384671Y-111493383D01*
X79368607Y-111511107D01*
X79350883Y-111527171D01*
X79331670Y-111541421D01*
X79311153Y-111553718D01*
X79289529Y-111563946D01*
X79267007Y-111572004D01*
X79243803Y-111577816D01*
X79220142Y-111581326D01*
X79196250Y-111582500D01*
X78283750Y-111582500D01*
X78259858Y-111581326D01*
X78236197Y-111577816D01*
X78212993Y-111572004D01*
X78190471Y-111563946D01*
X78168847Y-111553718D01*
X78148330Y-111541421D01*
X78129117Y-111527171D01*
X78111393Y-111511107D01*
X78095329Y-111493383D01*
X78081079Y-111474170D01*
X78068782Y-111453653D01*
X78058554Y-111432029D01*
X78050496Y-111409507D01*
X78044684Y-111386303D01*
X78041174Y-111362642D01*
X78040000Y-111338750D01*
X78040000Y-110851250D01*
X78041174Y-110827358D01*
X78044684Y-110803697D01*
X78050496Y-110780493D01*
X78058554Y-110757971D01*
X78068782Y-110736347D01*
X78081079Y-110715830D01*
X78095329Y-110696617D01*
X78111393Y-110678893D01*
X78129117Y-110662829D01*
X78148330Y-110648579D01*
X78168847Y-110636282D01*
X78190471Y-110626054D01*
X78212993Y-110617996D01*
X78236197Y-110612184D01*
X78259858Y-110608674D01*
X78283750Y-110607500D01*
X79196250Y-110607500D01*
X79220142Y-110608674D01*
X79220142Y-110608674D01*
G37*
D17*
X78740000Y-111095000D03*
D16*
G36*
X79220142Y-108733674D02*
G01*
X79243803Y-108737184D01*
X79267007Y-108742996D01*
X79289529Y-108751054D01*
X79311153Y-108761282D01*
X79331670Y-108773579D01*
X79350883Y-108787829D01*
X79368607Y-108803893D01*
X79384671Y-108821617D01*
X79398921Y-108840830D01*
X79411218Y-108861347D01*
X79421446Y-108882971D01*
X79429504Y-108905493D01*
X79435316Y-108928697D01*
X79438826Y-108952358D01*
X79440000Y-108976250D01*
X79440000Y-109463750D01*
X79438826Y-109487642D01*
X79435316Y-109511303D01*
X79429504Y-109534507D01*
X79421446Y-109557029D01*
X79411218Y-109578653D01*
X79398921Y-109599170D01*
X79384671Y-109618383D01*
X79368607Y-109636107D01*
X79350883Y-109652171D01*
X79331670Y-109666421D01*
X79311153Y-109678718D01*
X79289529Y-109688946D01*
X79267007Y-109697004D01*
X79243803Y-109702816D01*
X79220142Y-109706326D01*
X79196250Y-109707500D01*
X78283750Y-109707500D01*
X78259858Y-109706326D01*
X78236197Y-109702816D01*
X78212993Y-109697004D01*
X78190471Y-109688946D01*
X78168847Y-109678718D01*
X78148330Y-109666421D01*
X78129117Y-109652171D01*
X78111393Y-109636107D01*
X78095329Y-109618383D01*
X78081079Y-109599170D01*
X78068782Y-109578653D01*
X78058554Y-109557029D01*
X78050496Y-109534507D01*
X78044684Y-109511303D01*
X78041174Y-109487642D01*
X78040000Y-109463750D01*
X78040000Y-108976250D01*
X78041174Y-108952358D01*
X78044684Y-108928697D01*
X78050496Y-108905493D01*
X78058554Y-108882971D01*
X78068782Y-108861347D01*
X78081079Y-108840830D01*
X78095329Y-108821617D01*
X78111393Y-108803893D01*
X78129117Y-108787829D01*
X78148330Y-108773579D01*
X78168847Y-108761282D01*
X78190471Y-108751054D01*
X78212993Y-108742996D01*
X78236197Y-108737184D01*
X78259858Y-108733674D01*
X78283750Y-108732500D01*
X79196250Y-108732500D01*
X79220142Y-108733674D01*
X79220142Y-108733674D01*
G37*
D17*
X78740000Y-109220000D03*
D16*
G36*
X96866142Y-106313674D02*
G01*
X96889803Y-106317184D01*
X96913007Y-106322996D01*
X96935529Y-106331054D01*
X96957153Y-106341282D01*
X96977670Y-106353579D01*
X96996883Y-106367829D01*
X97014607Y-106383893D01*
X97030671Y-106401617D01*
X97044921Y-106420830D01*
X97057218Y-106441347D01*
X97067446Y-106462971D01*
X97075504Y-106485493D01*
X97081316Y-106508697D01*
X97084826Y-106532358D01*
X97086000Y-106556250D01*
X97086000Y-107468750D01*
X97084826Y-107492642D01*
X97081316Y-107516303D01*
X97075504Y-107539507D01*
X97067446Y-107562029D01*
X97057218Y-107583653D01*
X97044921Y-107604170D01*
X97030671Y-107623383D01*
X97014607Y-107641107D01*
X96996883Y-107657171D01*
X96977670Y-107671421D01*
X96957153Y-107683718D01*
X96935529Y-107693946D01*
X96913007Y-107702004D01*
X96889803Y-107707816D01*
X96866142Y-107711326D01*
X96842250Y-107712500D01*
X96354750Y-107712500D01*
X96330858Y-107711326D01*
X96307197Y-107707816D01*
X96283993Y-107702004D01*
X96261471Y-107693946D01*
X96239847Y-107683718D01*
X96219330Y-107671421D01*
X96200117Y-107657171D01*
X96182393Y-107641107D01*
X96166329Y-107623383D01*
X96152079Y-107604170D01*
X96139782Y-107583653D01*
X96129554Y-107562029D01*
X96121496Y-107539507D01*
X96115684Y-107516303D01*
X96112174Y-107492642D01*
X96111000Y-107468750D01*
X96111000Y-106556250D01*
X96112174Y-106532358D01*
X96115684Y-106508697D01*
X96121496Y-106485493D01*
X96129554Y-106462971D01*
X96139782Y-106441347D01*
X96152079Y-106420830D01*
X96166329Y-106401617D01*
X96182393Y-106383893D01*
X96200117Y-106367829D01*
X96219330Y-106353579D01*
X96239847Y-106341282D01*
X96261471Y-106331054D01*
X96283993Y-106322996D01*
X96307197Y-106317184D01*
X96330858Y-106313674D01*
X96354750Y-106312500D01*
X96842250Y-106312500D01*
X96866142Y-106313674D01*
X96866142Y-106313674D01*
G37*
D17*
X96598500Y-107012500D03*
D16*
G36*
X98741142Y-106313674D02*
G01*
X98764803Y-106317184D01*
X98788007Y-106322996D01*
X98810529Y-106331054D01*
X98832153Y-106341282D01*
X98852670Y-106353579D01*
X98871883Y-106367829D01*
X98889607Y-106383893D01*
X98905671Y-106401617D01*
X98919921Y-106420830D01*
X98932218Y-106441347D01*
X98942446Y-106462971D01*
X98950504Y-106485493D01*
X98956316Y-106508697D01*
X98959826Y-106532358D01*
X98961000Y-106556250D01*
X98961000Y-107468750D01*
X98959826Y-107492642D01*
X98956316Y-107516303D01*
X98950504Y-107539507D01*
X98942446Y-107562029D01*
X98932218Y-107583653D01*
X98919921Y-107604170D01*
X98905671Y-107623383D01*
X98889607Y-107641107D01*
X98871883Y-107657171D01*
X98852670Y-107671421D01*
X98832153Y-107683718D01*
X98810529Y-107693946D01*
X98788007Y-107702004D01*
X98764803Y-107707816D01*
X98741142Y-107711326D01*
X98717250Y-107712500D01*
X98229750Y-107712500D01*
X98205858Y-107711326D01*
X98182197Y-107707816D01*
X98158993Y-107702004D01*
X98136471Y-107693946D01*
X98114847Y-107683718D01*
X98094330Y-107671421D01*
X98075117Y-107657171D01*
X98057393Y-107641107D01*
X98041329Y-107623383D01*
X98027079Y-107604170D01*
X98014782Y-107583653D01*
X98004554Y-107562029D01*
X97996496Y-107539507D01*
X97990684Y-107516303D01*
X97987174Y-107492642D01*
X97986000Y-107468750D01*
X97986000Y-106556250D01*
X97987174Y-106532358D01*
X97990684Y-106508697D01*
X97996496Y-106485493D01*
X98004554Y-106462971D01*
X98014782Y-106441347D01*
X98027079Y-106420830D01*
X98041329Y-106401617D01*
X98057393Y-106383893D01*
X98075117Y-106367829D01*
X98094330Y-106353579D01*
X98114847Y-106341282D01*
X98136471Y-106331054D01*
X98158993Y-106322996D01*
X98182197Y-106317184D01*
X98205858Y-106313674D01*
X98229750Y-106312500D01*
X98717250Y-106312500D01*
X98741142Y-106313674D01*
X98741142Y-106313674D01*
G37*
D17*
X98473500Y-107012500D03*
D16*
G36*
X113297642Y-102933174D02*
G01*
X113321303Y-102936684D01*
X113344507Y-102942496D01*
X113367029Y-102950554D01*
X113388653Y-102960782D01*
X113409170Y-102973079D01*
X113428383Y-102987329D01*
X113446107Y-103003393D01*
X113462171Y-103021117D01*
X113476421Y-103040330D01*
X113488718Y-103060847D01*
X113498946Y-103082471D01*
X113507004Y-103104993D01*
X113512816Y-103128197D01*
X113516326Y-103151858D01*
X113517500Y-103175750D01*
X113517500Y-104088250D01*
X113516326Y-104112142D01*
X113512816Y-104135803D01*
X113507004Y-104159007D01*
X113498946Y-104181529D01*
X113488718Y-104203153D01*
X113476421Y-104223670D01*
X113462171Y-104242883D01*
X113446107Y-104260607D01*
X113428383Y-104276671D01*
X113409170Y-104290921D01*
X113388653Y-104303218D01*
X113367029Y-104313446D01*
X113344507Y-104321504D01*
X113321303Y-104327316D01*
X113297642Y-104330826D01*
X113273750Y-104332000D01*
X112786250Y-104332000D01*
X112762358Y-104330826D01*
X112738697Y-104327316D01*
X112715493Y-104321504D01*
X112692971Y-104313446D01*
X112671347Y-104303218D01*
X112650830Y-104290921D01*
X112631617Y-104276671D01*
X112613893Y-104260607D01*
X112597829Y-104242883D01*
X112583579Y-104223670D01*
X112571282Y-104203153D01*
X112561054Y-104181529D01*
X112552996Y-104159007D01*
X112547184Y-104135803D01*
X112543674Y-104112142D01*
X112542500Y-104088250D01*
X112542500Y-103175750D01*
X112543674Y-103151858D01*
X112547184Y-103128197D01*
X112552996Y-103104993D01*
X112561054Y-103082471D01*
X112571282Y-103060847D01*
X112583579Y-103040330D01*
X112597829Y-103021117D01*
X112613893Y-103003393D01*
X112631617Y-102987329D01*
X112650830Y-102973079D01*
X112671347Y-102960782D01*
X112692971Y-102950554D01*
X112715493Y-102942496D01*
X112738697Y-102936684D01*
X112762358Y-102933174D01*
X112786250Y-102932000D01*
X113273750Y-102932000D01*
X113297642Y-102933174D01*
X113297642Y-102933174D01*
G37*
D17*
X113030000Y-103632000D03*
D16*
G36*
X111422642Y-102933174D02*
G01*
X111446303Y-102936684D01*
X111469507Y-102942496D01*
X111492029Y-102950554D01*
X111513653Y-102960782D01*
X111534170Y-102973079D01*
X111553383Y-102987329D01*
X111571107Y-103003393D01*
X111587171Y-103021117D01*
X111601421Y-103040330D01*
X111613718Y-103060847D01*
X111623946Y-103082471D01*
X111632004Y-103104993D01*
X111637816Y-103128197D01*
X111641326Y-103151858D01*
X111642500Y-103175750D01*
X111642500Y-104088250D01*
X111641326Y-104112142D01*
X111637816Y-104135803D01*
X111632004Y-104159007D01*
X111623946Y-104181529D01*
X111613718Y-104203153D01*
X111601421Y-104223670D01*
X111587171Y-104242883D01*
X111571107Y-104260607D01*
X111553383Y-104276671D01*
X111534170Y-104290921D01*
X111513653Y-104303218D01*
X111492029Y-104313446D01*
X111469507Y-104321504D01*
X111446303Y-104327316D01*
X111422642Y-104330826D01*
X111398750Y-104332000D01*
X110911250Y-104332000D01*
X110887358Y-104330826D01*
X110863697Y-104327316D01*
X110840493Y-104321504D01*
X110817971Y-104313446D01*
X110796347Y-104303218D01*
X110775830Y-104290921D01*
X110756617Y-104276671D01*
X110738893Y-104260607D01*
X110722829Y-104242883D01*
X110708579Y-104223670D01*
X110696282Y-104203153D01*
X110686054Y-104181529D01*
X110677996Y-104159007D01*
X110672184Y-104135803D01*
X110668674Y-104112142D01*
X110667500Y-104088250D01*
X110667500Y-103175750D01*
X110668674Y-103151858D01*
X110672184Y-103128197D01*
X110677996Y-103104993D01*
X110686054Y-103082471D01*
X110696282Y-103060847D01*
X110708579Y-103040330D01*
X110722829Y-103021117D01*
X110738893Y-103003393D01*
X110756617Y-102987329D01*
X110775830Y-102973079D01*
X110796347Y-102960782D01*
X110817971Y-102950554D01*
X110840493Y-102942496D01*
X110863697Y-102936684D01*
X110887358Y-102933174D01*
X110911250Y-102932000D01*
X111398750Y-102932000D01*
X111422642Y-102933174D01*
X111422642Y-102933174D01*
G37*
D17*
X111155000Y-103632000D03*
D16*
G36*
X95476142Y-117526674D02*
G01*
X95499803Y-117530184D01*
X95523007Y-117535996D01*
X95545529Y-117544054D01*
X95567153Y-117554282D01*
X95587670Y-117566579D01*
X95606883Y-117580829D01*
X95624607Y-117596893D01*
X95640671Y-117614617D01*
X95654921Y-117633830D01*
X95667218Y-117654347D01*
X95677446Y-117675971D01*
X95685504Y-117698493D01*
X95691316Y-117721697D01*
X95694826Y-117745358D01*
X95696000Y-117769250D01*
X95696000Y-118256750D01*
X95694826Y-118280642D01*
X95691316Y-118304303D01*
X95685504Y-118327507D01*
X95677446Y-118350029D01*
X95667218Y-118371653D01*
X95654921Y-118392170D01*
X95640671Y-118411383D01*
X95624607Y-118429107D01*
X95606883Y-118445171D01*
X95587670Y-118459421D01*
X95567153Y-118471718D01*
X95545529Y-118481946D01*
X95523007Y-118490004D01*
X95499803Y-118495816D01*
X95476142Y-118499326D01*
X95452250Y-118500500D01*
X94539750Y-118500500D01*
X94515858Y-118499326D01*
X94492197Y-118495816D01*
X94468993Y-118490004D01*
X94446471Y-118481946D01*
X94424847Y-118471718D01*
X94404330Y-118459421D01*
X94385117Y-118445171D01*
X94367393Y-118429107D01*
X94351329Y-118411383D01*
X94337079Y-118392170D01*
X94324782Y-118371653D01*
X94314554Y-118350029D01*
X94306496Y-118327507D01*
X94300684Y-118304303D01*
X94297174Y-118280642D01*
X94296000Y-118256750D01*
X94296000Y-117769250D01*
X94297174Y-117745358D01*
X94300684Y-117721697D01*
X94306496Y-117698493D01*
X94314554Y-117675971D01*
X94324782Y-117654347D01*
X94337079Y-117633830D01*
X94351329Y-117614617D01*
X94367393Y-117596893D01*
X94385117Y-117580829D01*
X94404330Y-117566579D01*
X94424847Y-117554282D01*
X94446471Y-117544054D01*
X94468993Y-117535996D01*
X94492197Y-117530184D01*
X94515858Y-117526674D01*
X94539750Y-117525500D01*
X95452250Y-117525500D01*
X95476142Y-117526674D01*
X95476142Y-117526674D01*
G37*
D17*
X94996000Y-118013000D03*
D16*
G36*
X95476142Y-119401674D02*
G01*
X95499803Y-119405184D01*
X95523007Y-119410996D01*
X95545529Y-119419054D01*
X95567153Y-119429282D01*
X95587670Y-119441579D01*
X95606883Y-119455829D01*
X95624607Y-119471893D01*
X95640671Y-119489617D01*
X95654921Y-119508830D01*
X95667218Y-119529347D01*
X95677446Y-119550971D01*
X95685504Y-119573493D01*
X95691316Y-119596697D01*
X95694826Y-119620358D01*
X95696000Y-119644250D01*
X95696000Y-120131750D01*
X95694826Y-120155642D01*
X95691316Y-120179303D01*
X95685504Y-120202507D01*
X95677446Y-120225029D01*
X95667218Y-120246653D01*
X95654921Y-120267170D01*
X95640671Y-120286383D01*
X95624607Y-120304107D01*
X95606883Y-120320171D01*
X95587670Y-120334421D01*
X95567153Y-120346718D01*
X95545529Y-120356946D01*
X95523007Y-120365004D01*
X95499803Y-120370816D01*
X95476142Y-120374326D01*
X95452250Y-120375500D01*
X94539750Y-120375500D01*
X94515858Y-120374326D01*
X94492197Y-120370816D01*
X94468993Y-120365004D01*
X94446471Y-120356946D01*
X94424847Y-120346718D01*
X94404330Y-120334421D01*
X94385117Y-120320171D01*
X94367393Y-120304107D01*
X94351329Y-120286383D01*
X94337079Y-120267170D01*
X94324782Y-120246653D01*
X94314554Y-120225029D01*
X94306496Y-120202507D01*
X94300684Y-120179303D01*
X94297174Y-120155642D01*
X94296000Y-120131750D01*
X94296000Y-119644250D01*
X94297174Y-119620358D01*
X94300684Y-119596697D01*
X94306496Y-119573493D01*
X94314554Y-119550971D01*
X94324782Y-119529347D01*
X94337079Y-119508830D01*
X94351329Y-119489617D01*
X94367393Y-119471893D01*
X94385117Y-119455829D01*
X94404330Y-119441579D01*
X94424847Y-119429282D01*
X94446471Y-119419054D01*
X94468993Y-119410996D01*
X94492197Y-119405184D01*
X94515858Y-119401674D01*
X94539750Y-119400500D01*
X95452250Y-119400500D01*
X95476142Y-119401674D01*
X95476142Y-119401674D01*
G37*
D17*
X94996000Y-119888000D03*
D16*
G36*
X84046142Y-119401674D02*
G01*
X84069803Y-119405184D01*
X84093007Y-119410996D01*
X84115529Y-119419054D01*
X84137153Y-119429282D01*
X84157670Y-119441579D01*
X84176883Y-119455829D01*
X84194607Y-119471893D01*
X84210671Y-119489617D01*
X84224921Y-119508830D01*
X84237218Y-119529347D01*
X84247446Y-119550971D01*
X84255504Y-119573493D01*
X84261316Y-119596697D01*
X84264826Y-119620358D01*
X84266000Y-119644250D01*
X84266000Y-120131750D01*
X84264826Y-120155642D01*
X84261316Y-120179303D01*
X84255504Y-120202507D01*
X84247446Y-120225029D01*
X84237218Y-120246653D01*
X84224921Y-120267170D01*
X84210671Y-120286383D01*
X84194607Y-120304107D01*
X84176883Y-120320171D01*
X84157670Y-120334421D01*
X84137153Y-120346718D01*
X84115529Y-120356946D01*
X84093007Y-120365004D01*
X84069803Y-120370816D01*
X84046142Y-120374326D01*
X84022250Y-120375500D01*
X83109750Y-120375500D01*
X83085858Y-120374326D01*
X83062197Y-120370816D01*
X83038993Y-120365004D01*
X83016471Y-120356946D01*
X82994847Y-120346718D01*
X82974330Y-120334421D01*
X82955117Y-120320171D01*
X82937393Y-120304107D01*
X82921329Y-120286383D01*
X82907079Y-120267170D01*
X82894782Y-120246653D01*
X82884554Y-120225029D01*
X82876496Y-120202507D01*
X82870684Y-120179303D01*
X82867174Y-120155642D01*
X82866000Y-120131750D01*
X82866000Y-119644250D01*
X82867174Y-119620358D01*
X82870684Y-119596697D01*
X82876496Y-119573493D01*
X82884554Y-119550971D01*
X82894782Y-119529347D01*
X82907079Y-119508830D01*
X82921329Y-119489617D01*
X82937393Y-119471893D01*
X82955117Y-119455829D01*
X82974330Y-119441579D01*
X82994847Y-119429282D01*
X83016471Y-119419054D01*
X83038993Y-119410996D01*
X83062197Y-119405184D01*
X83085858Y-119401674D01*
X83109750Y-119400500D01*
X84022250Y-119400500D01*
X84046142Y-119401674D01*
X84046142Y-119401674D01*
G37*
D17*
X83566000Y-119888000D03*
D16*
G36*
X84046142Y-117526674D02*
G01*
X84069803Y-117530184D01*
X84093007Y-117535996D01*
X84115529Y-117544054D01*
X84137153Y-117554282D01*
X84157670Y-117566579D01*
X84176883Y-117580829D01*
X84194607Y-117596893D01*
X84210671Y-117614617D01*
X84224921Y-117633830D01*
X84237218Y-117654347D01*
X84247446Y-117675971D01*
X84255504Y-117698493D01*
X84261316Y-117721697D01*
X84264826Y-117745358D01*
X84266000Y-117769250D01*
X84266000Y-118256750D01*
X84264826Y-118280642D01*
X84261316Y-118304303D01*
X84255504Y-118327507D01*
X84247446Y-118350029D01*
X84237218Y-118371653D01*
X84224921Y-118392170D01*
X84210671Y-118411383D01*
X84194607Y-118429107D01*
X84176883Y-118445171D01*
X84157670Y-118459421D01*
X84137153Y-118471718D01*
X84115529Y-118481946D01*
X84093007Y-118490004D01*
X84069803Y-118495816D01*
X84046142Y-118499326D01*
X84022250Y-118500500D01*
X83109750Y-118500500D01*
X83085858Y-118499326D01*
X83062197Y-118495816D01*
X83038993Y-118490004D01*
X83016471Y-118481946D01*
X82994847Y-118471718D01*
X82974330Y-118459421D01*
X82955117Y-118445171D01*
X82937393Y-118429107D01*
X82921329Y-118411383D01*
X82907079Y-118392170D01*
X82894782Y-118371653D01*
X82884554Y-118350029D01*
X82876496Y-118327507D01*
X82870684Y-118304303D01*
X82867174Y-118280642D01*
X82866000Y-118256750D01*
X82866000Y-117769250D01*
X82867174Y-117745358D01*
X82870684Y-117721697D01*
X82876496Y-117698493D01*
X82884554Y-117675971D01*
X82894782Y-117654347D01*
X82907079Y-117633830D01*
X82921329Y-117614617D01*
X82937393Y-117596893D01*
X82955117Y-117580829D01*
X82974330Y-117566579D01*
X82994847Y-117554282D01*
X83016471Y-117544054D01*
X83038993Y-117535996D01*
X83062197Y-117530184D01*
X83085858Y-117526674D01*
X83109750Y-117525500D01*
X84022250Y-117525500D01*
X84046142Y-117526674D01*
X84046142Y-117526674D01*
G37*
D17*
X83566000Y-118013000D03*
D22*
X76962000Y-109220000D03*
X82804000Y-95504000D03*
X92964000Y-95504000D03*
X102616000Y-103378000D03*
X99822000Y-107188000D03*
X108966000Y-109220000D03*
X94996000Y-113792000D03*
X99822000Y-108966000D03*
X80518000Y-102616000D03*
X111506000Y-101346000D03*
D23*
X88110402Y-119897000D02*
X87807500Y-119897000D01*
X89810402Y-118197000D02*
X88110402Y-119897000D01*
X90007500Y-118197000D02*
X89810402Y-118197000D01*
X87798500Y-119888000D02*
X87807500Y-119897000D01*
X83566000Y-119888000D02*
X87798500Y-119888000D01*
X96086510Y-119103510D02*
X95552237Y-118569237D01*
X96086510Y-120394470D02*
X96086510Y-119103510D01*
X95552237Y-118569237D02*
X94996000Y-118013000D01*
X95593479Y-120887501D02*
X96086510Y-120394470D01*
X87817001Y-120887501D02*
X95593479Y-120887501D01*
X87807500Y-120878000D02*
X87817001Y-120887501D01*
X87807500Y-119897000D02*
X87807500Y-120878000D01*
X89713750Y-113228902D02*
X89713750Y-112301000D01*
X93941611Y-117456763D02*
X89713750Y-113228902D01*
X94439763Y-117456763D02*
X93941611Y-117456763D01*
X94996000Y-118013000D02*
X94439763Y-117456763D01*
X110110000Y-96712500D02*
X111380000Y-97982500D01*
X110110000Y-91750000D02*
X110110000Y-96712500D01*
X81919750Y-111095000D02*
X82413750Y-110601000D01*
X78740000Y-111095000D02*
X81919750Y-111095000D01*
X84923750Y-100891000D02*
X84913750Y-100901000D01*
X84923750Y-97028000D02*
X84923750Y-100891000D01*
X91313750Y-99770000D02*
X91313750Y-100901000D01*
X91313750Y-98155500D02*
X91313750Y-99770000D01*
X90986250Y-97828000D02*
X91313750Y-98155500D01*
X90986250Y-97028000D02*
X90986250Y-97828000D01*
X112820000Y-103842000D02*
X113030000Y-103632000D01*
X112820000Y-116370000D02*
X112820000Y-103842000D01*
X111936237Y-98538737D02*
X111380000Y-97982500D01*
X113586237Y-100188737D02*
X111936237Y-98538737D01*
X113030000Y-103632000D02*
X113586237Y-103075763D01*
X97154737Y-106456263D02*
X96598500Y-107012500D01*
X107268030Y-105921990D02*
X97689010Y-105921990D01*
X111033783Y-102156237D02*
X107268030Y-105921990D01*
X113586237Y-102156237D02*
X111033783Y-102156237D01*
X113586237Y-103075763D02*
X113586237Y-102156237D01*
X97689010Y-105921990D02*
X97154737Y-106456263D01*
X113586237Y-102156237D02*
X113586237Y-100188737D01*
X95387000Y-105801000D02*
X93813750Y-105801000D01*
X96598500Y-107012500D02*
X95387000Y-105801000D01*
X93679251Y-105935499D02*
X93813750Y-105801000D01*
X92751349Y-105935499D02*
X93679251Y-105935499D01*
X91313750Y-100901000D02*
X91313750Y-104497900D01*
X91313750Y-104497900D02*
X92751349Y-105935499D01*
X89848249Y-112166501D02*
X89713750Y-112301000D01*
X89848249Y-111507597D02*
X89848249Y-112166501D01*
X82413750Y-110601000D02*
X88941652Y-110601000D01*
X88941652Y-110601000D02*
X89848249Y-111507597D01*
X92673249Y-106013599D02*
X92751349Y-105935499D01*
X92673249Y-106970751D02*
X92673249Y-106013599D01*
X89043000Y-110601000D02*
X92673249Y-106970751D01*
X88941652Y-110601000D02*
X89043000Y-110601000D01*
X90398750Y-97028000D02*
X84923750Y-97028000D01*
X90986250Y-97028000D02*
X90398750Y-97028000D01*
D24*
X87623500Y-118013000D02*
X87807500Y-118197000D01*
X83566000Y-118013000D02*
X87623500Y-118013000D01*
X88113750Y-113301000D02*
X88113750Y-112301000D01*
X88113750Y-117040750D02*
X88113750Y-113301000D01*
X87807500Y-117347000D02*
X88113750Y-117040750D01*
X87807500Y-118197000D02*
X87807500Y-117347000D01*
X88913750Y-113301000D02*
X88913750Y-112301000D01*
X91032501Y-115419751D02*
X88913750Y-113301000D01*
X91032501Y-118971999D02*
X91032501Y-115419751D01*
X90107500Y-119897000D02*
X91032501Y-118971999D01*
X90007500Y-119897000D02*
X90107500Y-119897000D01*
X90016500Y-119888000D02*
X90007500Y-119897000D01*
X94996000Y-119888000D02*
X90016500Y-119888000D01*
X94623752Y-106601000D02*
X93813750Y-106601000D01*
X96060262Y-108037510D02*
X94623752Y-106601000D01*
X106749490Y-108037510D02*
X96060262Y-108037510D01*
X111155000Y-103632000D02*
X106749490Y-108037510D01*
D23*
X94944750Y-103401000D02*
X93813750Y-103401000D01*
X101124000Y-103401000D02*
X94944750Y-103401000D01*
X103280000Y-101245000D02*
X101124000Y-103401000D01*
X103280000Y-100520000D02*
X103280000Y-101245000D01*
X79321000Y-109801000D02*
X82413750Y-109801000D01*
X78740000Y-109220000D02*
X79321000Y-109801000D01*
X83457750Y-100901000D02*
X84113750Y-100901000D01*
X83048750Y-100492000D02*
X83457750Y-100901000D01*
X83048750Y-97028000D02*
X83048750Y-100492000D01*
X92113750Y-97775500D02*
X92113750Y-100901000D01*
X92861250Y-97028000D02*
X92113750Y-97775500D01*
X78740000Y-109220000D02*
X76962000Y-109220000D01*
X82804000Y-96783250D02*
X83048750Y-97028000D01*
X82804000Y-95504000D02*
X82804000Y-96783250D01*
X92964000Y-96925250D02*
X92861250Y-97028000D01*
X92964000Y-95504000D02*
X92964000Y-96925250D01*
X101124000Y-103401000D02*
X102593000Y-103401000D01*
X102593000Y-103401000D02*
X102616000Y-103378000D01*
X98649000Y-107188000D02*
X98473500Y-107012500D01*
X99822000Y-107188000D02*
X98649000Y-107188000D01*
X109340000Y-109220000D02*
X110482500Y-108077500D01*
X108966000Y-109220000D02*
X109340000Y-109220000D01*
X94996000Y-113455348D02*
X94996000Y-113792000D01*
X92701151Y-111160499D02*
X94996000Y-113455348D01*
X90523251Y-111160499D02*
X92701151Y-111160499D01*
X90513750Y-112301000D02*
X90513750Y-111170000D01*
X90513750Y-111170000D02*
X90523251Y-111160499D01*
X96259712Y-108966000D02*
X99822000Y-108966000D01*
X94694712Y-107401000D02*
X96259712Y-108966000D01*
X93813750Y-107401000D02*
X94694712Y-107401000D01*
X99234250Y-103401000D02*
X92861250Y-97028000D01*
X101124000Y-103401000D02*
X99234250Y-103401000D01*
D24*
X46884320Y-90550680D02*
X46884320Y-103164640D01*
X46950000Y-90485000D02*
X46884320Y-90550680D01*
X63187040Y-103164640D02*
X63288640Y-103266240D01*
X50184320Y-103164640D02*
X63187040Y-103164640D01*
X63288640Y-103416240D02*
X63288640Y-103266240D01*
X64873400Y-105001000D02*
X63288640Y-103416240D01*
X82413750Y-105001000D02*
X64873400Y-105001000D01*
X47245000Y-109841000D02*
X46950000Y-109546000D01*
X47245000Y-122555000D02*
X47245000Y-109841000D01*
X62613000Y-122555000D02*
X62740000Y-122428000D01*
X50545000Y-122555000D02*
X62613000Y-122555000D01*
X62740000Y-121578000D02*
X62740000Y-122428000D01*
X61181099Y-120019099D02*
X62740000Y-121578000D01*
X61181099Y-112932927D02*
X61181099Y-120019099D01*
X62386927Y-111727099D02*
X61181099Y-112932927D01*
X62386927Y-110473071D02*
X62386927Y-111727099D01*
X65458998Y-107401000D02*
X62386927Y-110473071D01*
X82413750Y-107401000D02*
X65458998Y-107401000D01*
X66040000Y-109586000D02*
X66000000Y-109546000D01*
X66040000Y-122428000D02*
X66040000Y-109586000D01*
X103280000Y-96995000D02*
X103280000Y-97720000D01*
X103280000Y-96255000D02*
X103280000Y-96995000D01*
X106910000Y-92625000D02*
X103280000Y-96255000D01*
X106910000Y-91750000D02*
X106910000Y-92625000D01*
X46195000Y-105801000D02*
X41950000Y-110046000D01*
X82413750Y-105801000D02*
X46195000Y-105801000D01*
X64445000Y-106601000D02*
X61000000Y-110046000D01*
X82413750Y-106601000D02*
X64445000Y-106601000D01*
X91313750Y-113301000D02*
X91313750Y-112301000D01*
X91388751Y-113376001D02*
X91313750Y-113301000D01*
X91863351Y-113376001D02*
X91388751Y-113376001D01*
X98557350Y-120070000D02*
X91863351Y-113376001D01*
X104466000Y-116488998D02*
X104466000Y-120070000D01*
X111507510Y-109447488D02*
X104466000Y-116488998D01*
X111507510Y-107227510D02*
X111507510Y-109447488D01*
X110482500Y-106202500D02*
X111507510Y-107227510D01*
X106620000Y-120070000D02*
X104466000Y-120070000D01*
X104466000Y-120070000D02*
X98557350Y-120070000D01*
X108510000Y-97710000D02*
X108710000Y-97910000D01*
D25*
X108260001Y-91999999D02*
X108260001Y-93115001D01*
X108510000Y-91750000D02*
X108260001Y-91999999D01*
X108260001Y-93115001D02*
X107705000Y-93670002D01*
X107705000Y-93670002D02*
X107705000Y-96905000D01*
X107705000Y-96905000D02*
X108710000Y-97910000D01*
D24*
X103494000Y-105001000D02*
X93813750Y-105001000D01*
X108710000Y-99785000D02*
X103494000Y-105001000D01*
D25*
X107255000Y-93320002D02*
X107255000Y-96905000D01*
X107460001Y-92163602D02*
X107460001Y-93115001D01*
X107255000Y-96905000D02*
X106270000Y-97890000D01*
X107710000Y-91913603D02*
X107460001Y-92163602D01*
X107460001Y-93115001D02*
X107255000Y-93320002D01*
X107710000Y-91750000D02*
X107710000Y-91913603D01*
D24*
X106270000Y-99765000D02*
X106270000Y-101404990D01*
X103473990Y-104201000D02*
X93813750Y-104201000D01*
X106270000Y-101404990D02*
X103473990Y-104201000D01*
X82413750Y-102601000D02*
X80533000Y-102601000D01*
X80533000Y-102601000D02*
X80518000Y-102616000D01*
X111506000Y-99983500D02*
X111380000Y-99857500D01*
X111506000Y-101346000D02*
X111506000Y-99983500D01*
D26*
G36*
X103481401Y-86178966D02*
G01*
X103396487Y-86458889D01*
X103375000Y-86677050D01*
X103375000Y-87822949D01*
X103396487Y-88041110D01*
X103481401Y-88321033D01*
X103619294Y-88579013D01*
X103804866Y-88805134D01*
X104030986Y-88990706D01*
X104288966Y-89128599D01*
X104568889Y-89213513D01*
X104860000Y-89242185D01*
X105151110Y-89213513D01*
X105431033Y-89128599D01*
X105689013Y-88990706D01*
X105915134Y-88805134D01*
X106100706Y-88579014D01*
X106238599Y-88321034D01*
X106323513Y-88041111D01*
X106345000Y-87822950D01*
X106345000Y-86677050D01*
X106323513Y-86458889D01*
X106238599Y-86178966D01*
X106212961Y-86131000D01*
X110807039Y-86131000D01*
X110781401Y-86178966D01*
X110696487Y-86458889D01*
X110675000Y-86677050D01*
X110675000Y-87822949D01*
X110696487Y-88041110D01*
X110781401Y-88321033D01*
X110919294Y-88579013D01*
X111104866Y-88805134D01*
X111330986Y-88990706D01*
X111588966Y-89128599D01*
X111868889Y-89213513D01*
X112160000Y-89242185D01*
X112451110Y-89213513D01*
X112731033Y-89128599D01*
X112989013Y-88990706D01*
X113215134Y-88805134D01*
X113400706Y-88579014D01*
X113538599Y-88321034D01*
X113623513Y-88041111D01*
X113645000Y-87822950D01*
X113645000Y-86677050D01*
X113623513Y-86458889D01*
X113538599Y-86178966D01*
X113512961Y-86131000D01*
X113987721Y-86131000D01*
X114400178Y-86171442D01*
X114765875Y-86281852D01*
X115103157Y-86461188D01*
X115399191Y-86702627D01*
X115642686Y-86996963D01*
X115824373Y-87332987D01*
X115937335Y-87697908D01*
X115980591Y-88109458D01*
X116211933Y-120027201D01*
X116214912Y-120055355D01*
X116165113Y-120563246D01*
X115998631Y-121114661D01*
X115728217Y-121623234D01*
X115364170Y-122069601D01*
X114920355Y-122436756D01*
X114413682Y-122710714D01*
X113856632Y-122883149D01*
X113408322Y-122940000D01*
X73279000Y-122940000D01*
X73279000Y-120375500D01*
X82227928Y-120375500D01*
X82240188Y-120499982D01*
X82276498Y-120619680D01*
X82335463Y-120729994D01*
X82414815Y-120826685D01*
X82511506Y-120906037D01*
X82621820Y-120965002D01*
X82741518Y-121001312D01*
X82866000Y-121013572D01*
X83280250Y-121010500D01*
X83439000Y-120851750D01*
X83439000Y-120015000D01*
X83693000Y-120015000D01*
X83693000Y-120851750D01*
X83851750Y-121010500D01*
X84266000Y-121013572D01*
X84390482Y-121001312D01*
X84510180Y-120965002D01*
X84620494Y-120906037D01*
X84717185Y-120826685D01*
X84796537Y-120729994D01*
X84855502Y-120619680D01*
X84891812Y-120499982D01*
X84892105Y-120497000D01*
X86469428Y-120497000D01*
X86481688Y-120621482D01*
X86517998Y-120741180D01*
X86576963Y-120851494D01*
X86656315Y-120948185D01*
X86753006Y-121027537D01*
X86863320Y-121086502D01*
X86983018Y-121122812D01*
X87107500Y-121135072D01*
X87521750Y-121132000D01*
X87680500Y-120973250D01*
X87680500Y-120024000D01*
X86631250Y-120024000D01*
X86472500Y-120182750D01*
X86469428Y-120497000D01*
X84892105Y-120497000D01*
X84904072Y-120375500D01*
X84901000Y-120173750D01*
X84742250Y-120015000D01*
X83693000Y-120015000D01*
X83439000Y-120015000D01*
X82389750Y-120015000D01*
X82231000Y-120173750D01*
X82227928Y-120375500D01*
X73279000Y-120375500D01*
X73279000Y-111582500D01*
X77401928Y-111582500D01*
X77414188Y-111706982D01*
X77450498Y-111826680D01*
X77509463Y-111936994D01*
X77588815Y-112033685D01*
X77685506Y-112113037D01*
X77795820Y-112172002D01*
X77915518Y-112208312D01*
X78040000Y-112220572D01*
X78454250Y-112217500D01*
X78613000Y-112058750D01*
X78613000Y-111222000D01*
X78867000Y-111222000D01*
X78867000Y-112058750D01*
X79025750Y-112217500D01*
X79440000Y-112220572D01*
X79564482Y-112208312D01*
X79684180Y-112172002D01*
X79794494Y-112113037D01*
X79891185Y-112033685D01*
X79970537Y-111936994D01*
X80029502Y-111826680D01*
X80065812Y-111706982D01*
X80078072Y-111582500D01*
X80075000Y-111380750D01*
X79916250Y-111222000D01*
X78867000Y-111222000D01*
X78613000Y-111222000D01*
X77563750Y-111222000D01*
X77405000Y-111380750D01*
X77401928Y-111582500D01*
X73279000Y-111582500D01*
X73279000Y-108161000D01*
X77948114Y-108161000D01*
X77946291Y-108161553D01*
X77793836Y-108243042D01*
X77660208Y-108352708D01*
X77625910Y-108394500D01*
X77589503Y-108394500D01*
X77452256Y-108302795D01*
X77263898Y-108224774D01*
X77063939Y-108185000D01*
X76860061Y-108185000D01*
X76660102Y-108224774D01*
X76471744Y-108302795D01*
X76302226Y-108416063D01*
X76158063Y-108560226D01*
X76044795Y-108729744D01*
X75966774Y-108918102D01*
X75927000Y-109118061D01*
X75927000Y-109321939D01*
X75966774Y-109521898D01*
X76044795Y-109710256D01*
X76158063Y-109879774D01*
X76302226Y-110023937D01*
X76471744Y-110137205D01*
X76660102Y-110215226D01*
X76860061Y-110255000D01*
X77063939Y-110255000D01*
X77263898Y-110215226D01*
X77452256Y-110137205D01*
X77589503Y-110045500D01*
X77625910Y-110045500D01*
X77660208Y-110087292D01*
X77666564Y-110092508D01*
X77588815Y-110156315D01*
X77509463Y-110253006D01*
X77450498Y-110363320D01*
X77414188Y-110483018D01*
X77401928Y-110607500D01*
X77405000Y-110809250D01*
X77563750Y-110968000D01*
X78613000Y-110968000D01*
X78613000Y-110948000D01*
X78867000Y-110948000D01*
X78867000Y-110968000D01*
X79916250Y-110968000D01*
X80075000Y-110809250D01*
X80077783Y-110626500D01*
X81028750Y-110626500D01*
X81028750Y-110728002D01*
X81187498Y-110728002D01*
X81028750Y-110886750D01*
X81038573Y-111003631D01*
X81075485Y-111123145D01*
X81135004Y-111233161D01*
X81214842Y-111329451D01*
X81311932Y-111408316D01*
X81422542Y-111466724D01*
X81542421Y-111502430D01*
X81666963Y-111514064D01*
X82128000Y-111511000D01*
X82286750Y-111352250D01*
X82286750Y-110728000D01*
X82266750Y-110728000D01*
X82266750Y-110714072D01*
X83163750Y-110714072D01*
X83288232Y-110701812D01*
X83407930Y-110665502D01*
X83518244Y-110606537D01*
X83614935Y-110527185D01*
X83694287Y-110430494D01*
X83706667Y-110407333D01*
X83798750Y-110315250D01*
X83789204Y-110201663D01*
X83789562Y-110200482D01*
X83801822Y-110076000D01*
X83801822Y-109526000D01*
X83789562Y-109401518D01*
X83789405Y-109401000D01*
X83789562Y-109400482D01*
X83801822Y-109276000D01*
X83801822Y-108726000D01*
X83789562Y-108601518D01*
X83789405Y-108601000D01*
X83789562Y-108600482D01*
X83801822Y-108476000D01*
X83801822Y-107926000D01*
X83789562Y-107801518D01*
X83789405Y-107801000D01*
X83789562Y-107800482D01*
X83801822Y-107676000D01*
X83801822Y-107126000D01*
X83789562Y-107001518D01*
X83789405Y-107001000D01*
X83789562Y-107000482D01*
X83801822Y-106876000D01*
X83801822Y-106326000D01*
X83789562Y-106201518D01*
X83789405Y-106201000D01*
X83789562Y-106200482D01*
X83801822Y-106076000D01*
X83801822Y-105526000D01*
X83789562Y-105401518D01*
X83789405Y-105401000D01*
X83789562Y-105400482D01*
X83801822Y-105276000D01*
X83801822Y-104726000D01*
X83789562Y-104601518D01*
X83789405Y-104601000D01*
X83789562Y-104600482D01*
X83801822Y-104476000D01*
X83801822Y-103926000D01*
X83789562Y-103801518D01*
X83789405Y-103801000D01*
X83789562Y-103800482D01*
X83801822Y-103676000D01*
X83801822Y-103126000D01*
X83789562Y-103001518D01*
X83789405Y-103001000D01*
X83789562Y-103000482D01*
X83801822Y-102876000D01*
X83801822Y-102326000D01*
X83797788Y-102285038D01*
X83838750Y-102289072D01*
X84388750Y-102289072D01*
X84513232Y-102276812D01*
X84514413Y-102276454D01*
X84628000Y-102286000D01*
X84720083Y-102193917D01*
X84743244Y-102181537D01*
X84839935Y-102102185D01*
X84913750Y-102012241D01*
X84987565Y-102102185D01*
X85084256Y-102181537D01*
X85107417Y-102193917D01*
X85199500Y-102286000D01*
X85313087Y-102276454D01*
X85314268Y-102276812D01*
X85438750Y-102289072D01*
X85988750Y-102289072D01*
X86113232Y-102276812D01*
X86113750Y-102276655D01*
X86114268Y-102276812D01*
X86238750Y-102289072D01*
X86788750Y-102289072D01*
X86913232Y-102276812D01*
X86913750Y-102276655D01*
X86914268Y-102276812D01*
X87038750Y-102289072D01*
X87588750Y-102289072D01*
X87713232Y-102276812D01*
X87713750Y-102276655D01*
X87714268Y-102276812D01*
X87838750Y-102289072D01*
X88388750Y-102289072D01*
X88513232Y-102276812D01*
X88513750Y-102276655D01*
X88514268Y-102276812D01*
X88638750Y-102289072D01*
X89188750Y-102289072D01*
X89313232Y-102276812D01*
X89313750Y-102276655D01*
X89314268Y-102276812D01*
X89438750Y-102289072D01*
X89988750Y-102289072D01*
X90113232Y-102276812D01*
X90113750Y-102276655D01*
X90114268Y-102276812D01*
X90238750Y-102289072D01*
X90788750Y-102289072D01*
X90913232Y-102276812D01*
X90914413Y-102276454D01*
X91028000Y-102286000D01*
X91120083Y-102193917D01*
X91143244Y-102181537D01*
X91239935Y-102102185D01*
X91313750Y-102012241D01*
X91387565Y-102102185D01*
X91484256Y-102181537D01*
X91507417Y-102193917D01*
X91599500Y-102286000D01*
X91713087Y-102276454D01*
X91714268Y-102276812D01*
X91838750Y-102289072D01*
X92388750Y-102289072D01*
X92429712Y-102285038D01*
X92425678Y-102326000D01*
X92425678Y-102876000D01*
X92437938Y-103000482D01*
X92438095Y-103001000D01*
X92437938Y-103001518D01*
X92425678Y-103126000D01*
X92425678Y-103676000D01*
X92437938Y-103800482D01*
X92438095Y-103801000D01*
X92437938Y-103801518D01*
X92425678Y-103926000D01*
X92425678Y-104476000D01*
X92437938Y-104600482D01*
X92438095Y-104601000D01*
X92437938Y-104601518D01*
X92425678Y-104726000D01*
X92425678Y-105276000D01*
X92437938Y-105400482D01*
X92438296Y-105401663D01*
X92428750Y-105515250D01*
X92520833Y-105607333D01*
X92533213Y-105630494D01*
X92612565Y-105727185D01*
X92702509Y-105801000D01*
X92612565Y-105874815D01*
X92533213Y-105971506D01*
X92520833Y-105994667D01*
X92428750Y-106086750D01*
X92438296Y-106200337D01*
X92437938Y-106201518D01*
X92425678Y-106326000D01*
X92425678Y-106876000D01*
X92437938Y-107000482D01*
X92438095Y-107001000D01*
X92437938Y-107001518D01*
X92425678Y-107126000D01*
X92425678Y-107676000D01*
X92437938Y-107800482D01*
X92438095Y-107801000D01*
X92437938Y-107801518D01*
X92425678Y-107926000D01*
X92425678Y-108476000D01*
X92437938Y-108600482D01*
X92438095Y-108601000D01*
X92437938Y-108601518D01*
X92425678Y-108726000D01*
X92425678Y-109276000D01*
X92437938Y-109400482D01*
X92438095Y-109401000D01*
X92437938Y-109401518D01*
X92425678Y-109526000D01*
X92425678Y-110076000D01*
X92437938Y-110200482D01*
X92438095Y-110201000D01*
X92437938Y-110201518D01*
X92425678Y-110326000D01*
X92425678Y-110334999D01*
X90563793Y-110334999D01*
X90523250Y-110331006D01*
X90482707Y-110334999D01*
X90482698Y-110334999D01*
X90361425Y-110346943D01*
X90205817Y-110394146D01*
X90062409Y-110470800D01*
X89936710Y-110573958D01*
X89932425Y-110579179D01*
X89927210Y-110583459D01*
X89901359Y-110614959D01*
X89824051Y-110709158D01*
X89747397Y-110852567D01*
X89700195Y-111008174D01*
X89685679Y-111155554D01*
X89639935Y-111099815D01*
X89543244Y-111020463D01*
X89520083Y-111008083D01*
X89428000Y-110916000D01*
X89314413Y-110925546D01*
X89313232Y-110925188D01*
X89188750Y-110912928D01*
X88638750Y-110912928D01*
X88514268Y-110925188D01*
X88513750Y-110925345D01*
X88513232Y-110925188D01*
X88388750Y-110912928D01*
X87838750Y-110912928D01*
X87714268Y-110925188D01*
X87713750Y-110925345D01*
X87713232Y-110925188D01*
X87588750Y-110912928D01*
X87038750Y-110912928D01*
X86914268Y-110925188D01*
X86913750Y-110925345D01*
X86913232Y-110925188D01*
X86788750Y-110912928D01*
X86238750Y-110912928D01*
X86114268Y-110925188D01*
X86113750Y-110925345D01*
X86113232Y-110925188D01*
X85988750Y-110912928D01*
X85438750Y-110912928D01*
X85314268Y-110925188D01*
X85313750Y-110925345D01*
X85313232Y-110925188D01*
X85188750Y-110912928D01*
X84638750Y-110912928D01*
X84514268Y-110925188D01*
X84513750Y-110925345D01*
X84513232Y-110925188D01*
X84388750Y-110912928D01*
X83838750Y-110912928D01*
X83796198Y-110917119D01*
X83798750Y-110886750D01*
X83640000Y-110728000D01*
X82540750Y-110728000D01*
X82540750Y-111352250D01*
X82699500Y-111511000D01*
X83160537Y-111514064D01*
X83204722Y-111509936D01*
X83200678Y-111551000D01*
X83200678Y-113051000D01*
X83212938Y-113175482D01*
X83249248Y-113295180D01*
X83308213Y-113405494D01*
X83387565Y-113502185D01*
X83484256Y-113581537D01*
X83594570Y-113640502D01*
X83714268Y-113676812D01*
X83838750Y-113689072D01*
X84388750Y-113689072D01*
X84513232Y-113676812D01*
X84513750Y-113676655D01*
X84514268Y-113676812D01*
X84638750Y-113689072D01*
X85188750Y-113689072D01*
X85313232Y-113676812D01*
X85313750Y-113676655D01*
X85314268Y-113676812D01*
X85438750Y-113689072D01*
X85988750Y-113689072D01*
X86113232Y-113676812D01*
X86113750Y-113676655D01*
X86114268Y-113676812D01*
X86238750Y-113689072D01*
X86788750Y-113689072D01*
X86913232Y-113676812D01*
X86913750Y-113676655D01*
X86914268Y-113676812D01*
X87038750Y-113689072D01*
X87353751Y-113689072D01*
X87353750Y-116725949D01*
X87296498Y-116783201D01*
X87267500Y-116806999D01*
X87243702Y-116835997D01*
X87243701Y-116835998D01*
X87172526Y-116922724D01*
X87153174Y-116958928D01*
X87107500Y-116958928D01*
X86983018Y-116971188D01*
X86863320Y-117007498D01*
X86753006Y-117066463D01*
X86656315Y-117145815D01*
X86576963Y-117242506D01*
X86571354Y-117253000D01*
X84733845Y-117253000D01*
X84645792Y-117145708D01*
X84512164Y-117036042D01*
X84359709Y-116954553D01*
X84194285Y-116904372D01*
X84022250Y-116887428D01*
X83109750Y-116887428D01*
X82937715Y-116904372D01*
X82772291Y-116954553D01*
X82619836Y-117036042D01*
X82486208Y-117145708D01*
X82376542Y-117279336D01*
X82295053Y-117431791D01*
X82244872Y-117597215D01*
X82227928Y-117769250D01*
X82227928Y-118256750D01*
X82244872Y-118428785D01*
X82295053Y-118594209D01*
X82376542Y-118746664D01*
X82486208Y-118880292D01*
X82492564Y-118885508D01*
X82414815Y-118949315D01*
X82335463Y-119046006D01*
X82276498Y-119156320D01*
X82240188Y-119276018D01*
X82227928Y-119400500D01*
X82231000Y-119602250D01*
X82389750Y-119761000D01*
X83439000Y-119761000D01*
X83439000Y-119741000D01*
X83693000Y-119741000D01*
X83693000Y-119761000D01*
X84742250Y-119761000D01*
X84901000Y-119602250D01*
X84904072Y-119400500D01*
X84891812Y-119276018D01*
X84855502Y-119156320D01*
X84796537Y-119046006D01*
X84717185Y-118949315D01*
X84639436Y-118885508D01*
X84645792Y-118880292D01*
X84733845Y-118773000D01*
X86469428Y-118773000D01*
X86469428Y-118797000D01*
X86481688Y-118921482D01*
X86517998Y-119041180D01*
X86521109Y-119047000D01*
X86517998Y-119052820D01*
X86481688Y-119172518D01*
X86469428Y-119297000D01*
X86472500Y-119611250D01*
X86631250Y-119770000D01*
X87680500Y-119770000D01*
X87680500Y-119750000D01*
X87934500Y-119750000D01*
X87934500Y-119770000D01*
X87954500Y-119770000D01*
X87954500Y-120024000D01*
X87934500Y-120024000D01*
X87934500Y-120973250D01*
X88093250Y-121132000D01*
X88507500Y-121135072D01*
X88631982Y-121122812D01*
X88751680Y-121086502D01*
X88861994Y-121027537D01*
X88907500Y-120990191D01*
X88953006Y-121027537D01*
X89063320Y-121086502D01*
X89183018Y-121122812D01*
X89307500Y-121135072D01*
X90707500Y-121135072D01*
X90831982Y-121122812D01*
X90951680Y-121086502D01*
X91061994Y-121027537D01*
X91158685Y-120948185D01*
X91238037Y-120851494D01*
X91297002Y-120741180D01*
X91325268Y-120648000D01*
X93828155Y-120648000D01*
X93916208Y-120755292D01*
X94049836Y-120864958D01*
X94202291Y-120946447D01*
X94367715Y-120996628D01*
X94539750Y-121013572D01*
X95452250Y-121013572D01*
X95624285Y-120996628D01*
X95789709Y-120946447D01*
X95942164Y-120864958D01*
X96075792Y-120755292D01*
X96185458Y-120621664D01*
X96266947Y-120469209D01*
X96317128Y-120303785D01*
X96334072Y-120131750D01*
X96334072Y-119644250D01*
X96317128Y-119472215D01*
X96266947Y-119306791D01*
X96185458Y-119154336D01*
X96075792Y-119020708D01*
X96069436Y-119015492D01*
X96147185Y-118951685D01*
X96226537Y-118854994D01*
X96240820Y-118828272D01*
X97993551Y-120581003D01*
X98017349Y-120610001D01*
X98133074Y-120704974D01*
X98265103Y-120775546D01*
X98408364Y-120819003D01*
X98520017Y-120830000D01*
X98520026Y-120830000D01*
X98557349Y-120833676D01*
X98594672Y-120830000D01*
X104428667Y-120830000D01*
X104466000Y-120833677D01*
X104503333Y-120830000D01*
X105120130Y-120830000D01*
X105130498Y-120864180D01*
X105189463Y-120974494D01*
X105268815Y-121071185D01*
X105365506Y-121150537D01*
X105475820Y-121209502D01*
X105595518Y-121245812D01*
X105720000Y-121258072D01*
X107520000Y-121258072D01*
X107644482Y-121245812D01*
X107764180Y-121209502D01*
X107874494Y-121150537D01*
X107971185Y-121071185D01*
X108050537Y-120974494D01*
X108109502Y-120864180D01*
X108145812Y-120744482D01*
X108158072Y-120620000D01*
X108158072Y-119520000D01*
X111281928Y-119520000D01*
X111281928Y-120620000D01*
X111294188Y-120744482D01*
X111330498Y-120864180D01*
X111389463Y-120974494D01*
X111468815Y-121071185D01*
X111565506Y-121150537D01*
X111675820Y-121209502D01*
X111795518Y-121245812D01*
X111920000Y-121258072D01*
X113720000Y-121258072D01*
X113844482Y-121245812D01*
X113964180Y-121209502D01*
X114074494Y-121150537D01*
X114171185Y-121071185D01*
X114250537Y-120974494D01*
X114309502Y-120864180D01*
X114345812Y-120744482D01*
X114358072Y-120620000D01*
X114358072Y-119520000D01*
X114345812Y-119395518D01*
X114309502Y-119275820D01*
X114250537Y-119165506D01*
X114171185Y-119068815D01*
X114074494Y-118989463D01*
X113964180Y-118930498D01*
X113844482Y-118894188D01*
X113720000Y-118881928D01*
X111920000Y-118881928D01*
X111795518Y-118894188D01*
X111675820Y-118930498D01*
X111565506Y-118989463D01*
X111468815Y-119068815D01*
X111389463Y-119165506D01*
X111330498Y-119275820D01*
X111294188Y-119395518D01*
X111281928Y-119520000D01*
X108158072Y-119520000D01*
X108145812Y-119395518D01*
X108109502Y-119275820D01*
X108050537Y-119165506D01*
X107971185Y-119068815D01*
X107874494Y-118989463D01*
X107764180Y-118930498D01*
X107644482Y-118894188D01*
X107520000Y-118881928D01*
X105720000Y-118881928D01*
X105595518Y-118894188D01*
X105475820Y-118930498D01*
X105365506Y-118989463D01*
X105268815Y-119068815D01*
X105226000Y-119120985D01*
X105226000Y-117319015D01*
X105268815Y-117371185D01*
X105365506Y-117450537D01*
X105475820Y-117509502D01*
X105595518Y-117545812D01*
X105720000Y-117558072D01*
X107520000Y-117558072D01*
X107644482Y-117545812D01*
X107764180Y-117509502D01*
X107874494Y-117450537D01*
X107971185Y-117371185D01*
X108050537Y-117274494D01*
X108109502Y-117164180D01*
X108145812Y-117044482D01*
X108158072Y-116920000D01*
X111281928Y-116920000D01*
X111294188Y-117044482D01*
X111330498Y-117164180D01*
X111389463Y-117274494D01*
X111468815Y-117371185D01*
X111565506Y-117450537D01*
X111675820Y-117509502D01*
X111795518Y-117545812D01*
X111920000Y-117558072D01*
X112534250Y-117555000D01*
X112693000Y-117396250D01*
X112693000Y-116497000D01*
X112947000Y-116497000D01*
X112947000Y-117396250D01*
X113105750Y-117555000D01*
X113720000Y-117558072D01*
X113844482Y-117545812D01*
X113964180Y-117509502D01*
X114074494Y-117450537D01*
X114171185Y-117371185D01*
X114250537Y-117274494D01*
X114309502Y-117164180D01*
X114345812Y-117044482D01*
X114358072Y-116920000D01*
X114355000Y-116655750D01*
X114196250Y-116497000D01*
X112947000Y-116497000D01*
X112693000Y-116497000D01*
X111443750Y-116497000D01*
X111285000Y-116655750D01*
X111281928Y-116920000D01*
X108158072Y-116920000D01*
X108158072Y-115820000D01*
X111281928Y-115820000D01*
X111285000Y-116084250D01*
X111443750Y-116243000D01*
X112693000Y-116243000D01*
X112693000Y-115343750D01*
X112947000Y-115343750D01*
X112947000Y-116243000D01*
X114196250Y-116243000D01*
X114355000Y-116084250D01*
X114358072Y-115820000D01*
X114345812Y-115695518D01*
X114309502Y-115575820D01*
X114250537Y-115465506D01*
X114171185Y-115368815D01*
X114074494Y-115289463D01*
X113964180Y-115230498D01*
X113844482Y-115194188D01*
X113720000Y-115181928D01*
X113105750Y-115185000D01*
X112947000Y-115343750D01*
X112693000Y-115343750D01*
X112534250Y-115185000D01*
X111920000Y-115181928D01*
X111795518Y-115194188D01*
X111675820Y-115230498D01*
X111565506Y-115289463D01*
X111468815Y-115368815D01*
X111389463Y-115465506D01*
X111330498Y-115575820D01*
X111294188Y-115695518D01*
X111281928Y-115820000D01*
X108158072Y-115820000D01*
X108145812Y-115695518D01*
X108109502Y-115575820D01*
X108050537Y-115465506D01*
X107971185Y-115368815D01*
X107874494Y-115289463D01*
X107764180Y-115230498D01*
X107644482Y-115194188D01*
X107520000Y-115181928D01*
X106847871Y-115181928D01*
X112018513Y-110011287D01*
X112047511Y-109987489D01*
X112111352Y-109909699D01*
X112142484Y-109871765D01*
X112213056Y-109739735D01*
X112225052Y-109700188D01*
X112256513Y-109596474D01*
X112267510Y-109484821D01*
X112267510Y-109484811D01*
X112271186Y-109447488D01*
X112267510Y-109410165D01*
X112267510Y-107264832D01*
X112271186Y-107227509D01*
X112267510Y-107190186D01*
X112267510Y-107190177D01*
X112256513Y-107078524D01*
X112213056Y-106935263D01*
X112178474Y-106870566D01*
X112142484Y-106803233D01*
X112071309Y-106716507D01*
X112047511Y-106687509D01*
X112018514Y-106663712D01*
X111818822Y-106464020D01*
X111820572Y-106446250D01*
X111820572Y-105958750D01*
X111803628Y-105786715D01*
X111753447Y-105621291D01*
X111671958Y-105468836D01*
X111562292Y-105335208D01*
X111428664Y-105225542D01*
X111276209Y-105144053D01*
X111110785Y-105093872D01*
X110938750Y-105076928D01*
X110784874Y-105076928D01*
X110893480Y-104968322D01*
X110911250Y-104970072D01*
X111398750Y-104970072D01*
X111570785Y-104953128D01*
X111736209Y-104902947D01*
X111888664Y-104821458D01*
X112022292Y-104711792D01*
X112027508Y-104705436D01*
X112091315Y-104783185D01*
X112188006Y-104862537D01*
X112298320Y-104921502D01*
X112418018Y-104957812D01*
X112542500Y-104970072D01*
X112744250Y-104967000D01*
X112903000Y-104808250D01*
X112903000Y-103759000D01*
X113157000Y-103759000D01*
X113157000Y-104808250D01*
X113315750Y-104967000D01*
X113517500Y-104970072D01*
X113641982Y-104957812D01*
X113761680Y-104921502D01*
X113871994Y-104862537D01*
X113968685Y-104783185D01*
X114048037Y-104686494D01*
X114107002Y-104576180D01*
X114143312Y-104456482D01*
X114155572Y-104332000D01*
X114152500Y-103917750D01*
X113993750Y-103759000D01*
X113157000Y-103759000D01*
X112903000Y-103759000D01*
X112883000Y-103759000D01*
X112883000Y-103505000D01*
X112903000Y-103505000D01*
X112903000Y-102455750D01*
X113157000Y-102455750D01*
X113157000Y-103505000D01*
X113993750Y-103505000D01*
X114152500Y-103346250D01*
X114155572Y-102932000D01*
X114143312Y-102807518D01*
X114107002Y-102687820D01*
X114048037Y-102577506D01*
X113968685Y-102480815D01*
X113871994Y-102401463D01*
X113761680Y-102342498D01*
X113641982Y-102306188D01*
X113517500Y-102293928D01*
X113315750Y-102297000D01*
X113157000Y-102455750D01*
X112903000Y-102455750D01*
X112744250Y-102297000D01*
X112542500Y-102293928D01*
X112418018Y-102306188D01*
X112298320Y-102342498D01*
X112188006Y-102401463D01*
X112091315Y-102480815D01*
X112027508Y-102558564D01*
X112022292Y-102552208D01*
X111888664Y-102442542D01*
X111736209Y-102361053D01*
X111725124Y-102357691D01*
X111807898Y-102341226D01*
X111996256Y-102263205D01*
X112165774Y-102149937D01*
X112309937Y-102005774D01*
X112423205Y-101836256D01*
X112501226Y-101647898D01*
X112541000Y-101447939D01*
X112541000Y-101244061D01*
X112501226Y-101044102D01*
X112423205Y-100855744D01*
X112379652Y-100790562D01*
X112459792Y-100724792D01*
X112569458Y-100591164D01*
X112650947Y-100438709D01*
X112701128Y-100273285D01*
X112718072Y-100101250D01*
X112718072Y-99613750D01*
X112701128Y-99441715D01*
X112650947Y-99276291D01*
X112569458Y-99123836D01*
X112459792Y-98990208D01*
X112453436Y-98984992D01*
X112531185Y-98921185D01*
X112610537Y-98824494D01*
X112669502Y-98714180D01*
X112705812Y-98594482D01*
X112718072Y-98470000D01*
X112715000Y-98268250D01*
X112556250Y-98109500D01*
X111507000Y-98109500D01*
X111507000Y-98129500D01*
X111253000Y-98129500D01*
X111253000Y-98109500D01*
X111233000Y-98109500D01*
X111233000Y-97855500D01*
X111253000Y-97855500D01*
X111253000Y-97018750D01*
X111507000Y-97018750D01*
X111507000Y-97855500D01*
X112556250Y-97855500D01*
X112715000Y-97696750D01*
X112718072Y-97495000D01*
X112705812Y-97370518D01*
X112669502Y-97250820D01*
X112610537Y-97140506D01*
X112531185Y-97043815D01*
X112434494Y-96964463D01*
X112324180Y-96905498D01*
X112204482Y-96869188D01*
X112080000Y-96856928D01*
X111665750Y-96860000D01*
X111507000Y-97018750D01*
X111253000Y-97018750D01*
X111094250Y-96860000D01*
X110680000Y-96856928D01*
X110555518Y-96869188D01*
X110435820Y-96905498D01*
X110325506Y-96964463D01*
X110228815Y-97043815D01*
X110149463Y-97140506D01*
X110090498Y-97250820D01*
X110054188Y-97370518D01*
X110041928Y-97495000D01*
X110043889Y-97623778D01*
X110031128Y-97494215D01*
X109980947Y-97328791D01*
X109899458Y-97176336D01*
X109789792Y-97042708D01*
X109656164Y-96933042D01*
X109503709Y-96851553D01*
X109338285Y-96801372D01*
X109166250Y-96784428D01*
X108623874Y-96784428D01*
X108440000Y-96600554D01*
X108440000Y-93974448D01*
X108754194Y-93660255D01*
X108782239Y-93637239D01*
X108874088Y-93525321D01*
X108887712Y-93499832D01*
X108910000Y-93493071D01*
X108935518Y-93500812D01*
X109060000Y-93513072D01*
X109560000Y-93513072D01*
X109684482Y-93500812D01*
X109709266Y-93493294D01*
X109728639Y-93499404D01*
X109828250Y-93510000D01*
X109987000Y-93351250D01*
X109987000Y-93346033D01*
X110011185Y-93326185D01*
X110090537Y-93229494D01*
X110149502Y-93119180D01*
X110185812Y-92999482D01*
X110198072Y-92875000D01*
X110198072Y-90625000D01*
X110185812Y-90500518D01*
X110149502Y-90380820D01*
X110090537Y-90270506D01*
X110011185Y-90173815D01*
X109987000Y-90153967D01*
X109987000Y-90148750D01*
X110233000Y-90148750D01*
X110233000Y-91623000D01*
X110257000Y-91623000D01*
X110257000Y-91877000D01*
X110233000Y-91877000D01*
X110233000Y-93351250D01*
X110391750Y-93510000D01*
X110491361Y-93499404D01*
X110610652Y-93461779D01*
X110720311Y-93401604D01*
X110816123Y-93321193D01*
X110894406Y-93223634D01*
X110950123Y-93116578D01*
X111104866Y-93305134D01*
X111330986Y-93490706D01*
X111588966Y-93628599D01*
X111868889Y-93713513D01*
X112160000Y-93742185D01*
X112451110Y-93713513D01*
X112731033Y-93628599D01*
X112989013Y-93490706D01*
X113215134Y-93305134D01*
X113400706Y-93079014D01*
X113538599Y-92821034D01*
X113623513Y-92541111D01*
X113645000Y-92322950D01*
X113645000Y-91177050D01*
X113623513Y-90958889D01*
X113538599Y-90678966D01*
X113400706Y-90420986D01*
X113215134Y-90194866D01*
X112989014Y-90009294D01*
X112731034Y-89871401D01*
X112451111Y-89786487D01*
X112160000Y-89757815D01*
X111868890Y-89786487D01*
X111588967Y-89871401D01*
X111330987Y-90009294D01*
X111104867Y-90194866D01*
X110950123Y-90383421D01*
X110894406Y-90276366D01*
X110816123Y-90178807D01*
X110720311Y-90098396D01*
X110610652Y-90038221D01*
X110491361Y-90000596D01*
X110391750Y-89990000D01*
X110233000Y-90148750D01*
X109987000Y-90148750D01*
X109828250Y-89990000D01*
X109728639Y-90000596D01*
X109709266Y-90006706D01*
X109684482Y-89999188D01*
X109560000Y-89986928D01*
X109060000Y-89986928D01*
X108935518Y-89999188D01*
X108910000Y-90006929D01*
X108884482Y-89999188D01*
X108760000Y-89986928D01*
X108260000Y-89986928D01*
X108135518Y-89999188D01*
X108110000Y-90006929D01*
X108084482Y-89999188D01*
X107960000Y-89986928D01*
X107460000Y-89986928D01*
X107335518Y-89999188D01*
X107310000Y-90006929D01*
X107284482Y-89999188D01*
X107160000Y-89986928D01*
X106660000Y-89986928D01*
X106535518Y-89999188D01*
X106415820Y-90035498D01*
X106305506Y-90094463D01*
X106208815Y-90173815D01*
X106129463Y-90270506D01*
X106070498Y-90380820D01*
X106069754Y-90383271D01*
X105915134Y-90194866D01*
X105689014Y-90009294D01*
X105431034Y-89871401D01*
X105151111Y-89786487D01*
X104860000Y-89757815D01*
X104568890Y-89786487D01*
X104288967Y-89871401D01*
X104030987Y-90009294D01*
X103804867Y-90194866D01*
X103619294Y-90420986D01*
X103481401Y-90678966D01*
X103396487Y-90958889D01*
X103375000Y-91177050D01*
X103375000Y-92322949D01*
X103396487Y-92541110D01*
X103481401Y-92821033D01*
X103619294Y-93079013D01*
X103804866Y-93305134D01*
X104030986Y-93490706D01*
X104288966Y-93628599D01*
X104568889Y-93713513D01*
X104730744Y-93729454D01*
X102769003Y-95691196D01*
X102739999Y-95714999D01*
X102684871Y-95782174D01*
X102645026Y-95830724D01*
X102620390Y-95876815D01*
X102574454Y-95962754D01*
X102530997Y-96106015D01*
X102520000Y-96217668D01*
X102520000Y-96217678D01*
X102516324Y-96255000D01*
X102520000Y-96292322D01*
X102520000Y-96470224D01*
X102481746Y-96473992D01*
X102315150Y-96524528D01*
X102161614Y-96606595D01*
X102027038Y-96717038D01*
X101916595Y-96851614D01*
X101834528Y-97005150D01*
X101783992Y-97171746D01*
X101766928Y-97345000D01*
X101766928Y-98095000D01*
X101783992Y-98268254D01*
X101834528Y-98434850D01*
X101916595Y-98588386D01*
X102027038Y-98722962D01*
X102161614Y-98833405D01*
X102315150Y-98915472D01*
X102481746Y-98966008D01*
X102655000Y-98983072D01*
X103905000Y-98983072D01*
X104078254Y-98966008D01*
X104244850Y-98915472D01*
X104398386Y-98833405D01*
X104532962Y-98722962D01*
X104643405Y-98588386D01*
X104725472Y-98434850D01*
X104776008Y-98268254D01*
X104793072Y-98095000D01*
X104793072Y-97345000D01*
X104776008Y-97171746D01*
X104725472Y-97005150D01*
X104643405Y-96851614D01*
X104532962Y-96717038D01*
X104398386Y-96606595D01*
X104244850Y-96524528D01*
X104122414Y-96487388D01*
X106520000Y-94089802D01*
X106520001Y-96600552D01*
X106356125Y-96764428D01*
X105813750Y-96764428D01*
X105641715Y-96781372D01*
X105476291Y-96831553D01*
X105323836Y-96913042D01*
X105190208Y-97022708D01*
X105080542Y-97156336D01*
X104999053Y-97308791D01*
X104948872Y-97474215D01*
X104931928Y-97646250D01*
X104931928Y-98133750D01*
X104948872Y-98305785D01*
X104999053Y-98471209D01*
X105080542Y-98623664D01*
X105190208Y-98757292D01*
X105275756Y-98827500D01*
X105190208Y-98897708D01*
X105080542Y-99031336D01*
X104999053Y-99183791D01*
X104948872Y-99349215D01*
X104931928Y-99521250D01*
X104931928Y-100008750D01*
X104948872Y-100180785D01*
X104999053Y-100346209D01*
X105080542Y-100498664D01*
X105190208Y-100632292D01*
X105323836Y-100741958D01*
X105476291Y-100823447D01*
X105510001Y-100833673D01*
X105510001Y-101090187D01*
X103585703Y-103014485D01*
X103533205Y-102887744D01*
X103419937Y-102718226D01*
X103275774Y-102574063D01*
X103181417Y-102511016D01*
X103835039Y-101857394D01*
X103866541Y-101831541D01*
X103906434Y-101782931D01*
X104078254Y-101766008D01*
X104244850Y-101715472D01*
X104398386Y-101633405D01*
X104532962Y-101522962D01*
X104643405Y-101388386D01*
X104725472Y-101234850D01*
X104776008Y-101068254D01*
X104793072Y-100895000D01*
X104793072Y-100145000D01*
X104776008Y-99971746D01*
X104725472Y-99805150D01*
X104643405Y-99651614D01*
X104532962Y-99517038D01*
X104398386Y-99406595D01*
X104244850Y-99324528D01*
X104078254Y-99273992D01*
X103905000Y-99256928D01*
X102655000Y-99256928D01*
X102481746Y-99273992D01*
X102315150Y-99324528D01*
X102161614Y-99406595D01*
X102027038Y-99517038D01*
X101916595Y-99651614D01*
X101834528Y-99805150D01*
X101783992Y-99971746D01*
X101766928Y-100145000D01*
X101766928Y-100895000D01*
X101783992Y-101068254D01*
X101834528Y-101234850D01*
X101916595Y-101388386D01*
X101940298Y-101417269D01*
X100782068Y-102575500D01*
X99576183Y-102575500D01*
X93986822Y-96986140D01*
X93986822Y-96571750D01*
X93969878Y-96399715D01*
X93919697Y-96234291D01*
X93838208Y-96081836D01*
X93829652Y-96071411D01*
X93881205Y-95994256D01*
X93959226Y-95805898D01*
X93999000Y-95605939D01*
X93999000Y-95402061D01*
X93959226Y-95202102D01*
X93881205Y-95013744D01*
X93767937Y-94844226D01*
X93623774Y-94700063D01*
X93454256Y-94586795D01*
X93265898Y-94508774D01*
X93065939Y-94469000D01*
X92862061Y-94469000D01*
X92662102Y-94508774D01*
X92473744Y-94586795D01*
X92304226Y-94700063D01*
X92160063Y-94844226D01*
X92046795Y-95013744D01*
X91968774Y-95202102D01*
X91929000Y-95402061D01*
X91929000Y-95605939D01*
X91968774Y-95805898D01*
X92019156Y-95927529D01*
X91993958Y-95948208D01*
X91988742Y-95954564D01*
X91924935Y-95876815D01*
X91828244Y-95797463D01*
X91717930Y-95738498D01*
X91598232Y-95702188D01*
X91473750Y-95689928D01*
X91272000Y-95693000D01*
X91113250Y-95851750D01*
X91113250Y-96901000D01*
X91133250Y-96901000D01*
X91133250Y-97155000D01*
X91113250Y-97155000D01*
X91113250Y-98204250D01*
X91272000Y-98363000D01*
X91288250Y-98363247D01*
X91288251Y-99516000D01*
X91186748Y-99516000D01*
X91186748Y-99656166D01*
X91143244Y-99620463D01*
X91120083Y-99608083D01*
X91028000Y-99516000D01*
X90914413Y-99525546D01*
X90913232Y-99525188D01*
X90788750Y-99512928D01*
X90238750Y-99512928D01*
X90114268Y-99525188D01*
X90113750Y-99525345D01*
X90113232Y-99525188D01*
X89988750Y-99512928D01*
X89438750Y-99512928D01*
X89314268Y-99525188D01*
X89313750Y-99525345D01*
X89313232Y-99525188D01*
X89188750Y-99512928D01*
X88638750Y-99512928D01*
X88514268Y-99525188D01*
X88513750Y-99525345D01*
X88513232Y-99525188D01*
X88388750Y-99512928D01*
X87838750Y-99512928D01*
X87714268Y-99525188D01*
X87713750Y-99525345D01*
X87713232Y-99525188D01*
X87588750Y-99512928D01*
X87038750Y-99512928D01*
X86914268Y-99525188D01*
X86913750Y-99525345D01*
X86913232Y-99525188D01*
X86788750Y-99512928D01*
X86238750Y-99512928D01*
X86114268Y-99525188D01*
X86113750Y-99525345D01*
X86113232Y-99525188D01*
X85988750Y-99512928D01*
X85438750Y-99512928D01*
X85314268Y-99525188D01*
X85313087Y-99525546D01*
X85199500Y-99516000D01*
X85107417Y-99608083D01*
X85084256Y-99620463D01*
X84987565Y-99699815D01*
X84913750Y-99789759D01*
X84839935Y-99699815D01*
X84743244Y-99620463D01*
X84720083Y-99608083D01*
X84628000Y-99516000D01*
X84514413Y-99525546D01*
X84513232Y-99525188D01*
X84388750Y-99512928D01*
X83874250Y-99512928D01*
X83874250Y-98142090D01*
X83916042Y-98107792D01*
X83921258Y-98101436D01*
X83985065Y-98179185D01*
X84081756Y-98258537D01*
X84192070Y-98317502D01*
X84311768Y-98353812D01*
X84436250Y-98366072D01*
X84638000Y-98363000D01*
X84796750Y-98204250D01*
X84796750Y-97155000D01*
X85050750Y-97155000D01*
X85050750Y-98204250D01*
X85209500Y-98363000D01*
X85411250Y-98366072D01*
X85535732Y-98353812D01*
X85655430Y-98317502D01*
X85765744Y-98258537D01*
X85862435Y-98179185D01*
X85941787Y-98082494D01*
X86000752Y-97972180D01*
X86037062Y-97852482D01*
X86049322Y-97728000D01*
X89860678Y-97728000D01*
X89872938Y-97852482D01*
X89909248Y-97972180D01*
X89968213Y-98082494D01*
X90047565Y-98179185D01*
X90144256Y-98258537D01*
X90254570Y-98317502D01*
X90374268Y-98353812D01*
X90498750Y-98366072D01*
X90700500Y-98363000D01*
X90859250Y-98204250D01*
X90859250Y-97155000D01*
X90022500Y-97155000D01*
X89863750Y-97313750D01*
X89860678Y-97728000D01*
X86049322Y-97728000D01*
X86046250Y-97313750D01*
X85887500Y-97155000D01*
X85050750Y-97155000D01*
X84796750Y-97155000D01*
X84776750Y-97155000D01*
X84776750Y-96901000D01*
X84796750Y-96901000D01*
X84796750Y-95851750D01*
X85050750Y-95851750D01*
X85050750Y-96901000D01*
X85887500Y-96901000D01*
X86046250Y-96742250D01*
X86049322Y-96328000D01*
X89860678Y-96328000D01*
X89863750Y-96742250D01*
X90022500Y-96901000D01*
X90859250Y-96901000D01*
X90859250Y-95851750D01*
X90700500Y-95693000D01*
X90498750Y-95689928D01*
X90374268Y-95702188D01*
X90254570Y-95738498D01*
X90144256Y-95797463D01*
X90047565Y-95876815D01*
X89968213Y-95973506D01*
X89909248Y-96083820D01*
X89872938Y-96203518D01*
X89860678Y-96328000D01*
X86049322Y-96328000D01*
X86037062Y-96203518D01*
X86000752Y-96083820D01*
X85941787Y-95973506D01*
X85862435Y-95876815D01*
X85765744Y-95797463D01*
X85655430Y-95738498D01*
X85535732Y-95702188D01*
X85411250Y-95689928D01*
X85209500Y-95693000D01*
X85050750Y-95851750D01*
X84796750Y-95851750D01*
X84638000Y-95693000D01*
X84436250Y-95689928D01*
X84311768Y-95702188D01*
X84192070Y-95738498D01*
X84081756Y-95797463D01*
X83985065Y-95876815D01*
X83921258Y-95954564D01*
X83916042Y-95948208D01*
X83784870Y-95840557D01*
X83799226Y-95805898D01*
X83839000Y-95605939D01*
X83839000Y-95402061D01*
X83799226Y-95202102D01*
X83721205Y-95013744D01*
X83607937Y-94844226D01*
X83463774Y-94700063D01*
X83294256Y-94586795D01*
X83105898Y-94508774D01*
X82905939Y-94469000D01*
X82702061Y-94469000D01*
X82502102Y-94508774D01*
X82313744Y-94586795D01*
X82144226Y-94700063D01*
X82000063Y-94844226D01*
X81886795Y-95013744D01*
X81808774Y-95202102D01*
X81769000Y-95402061D01*
X81769000Y-95605939D01*
X81808774Y-95805898D01*
X81886795Y-95994256D01*
X81978500Y-96131503D01*
X81978501Y-96273198D01*
X81940122Y-96399715D01*
X81923178Y-96571750D01*
X81923178Y-97484250D01*
X81940122Y-97656285D01*
X81990303Y-97821709D01*
X82071792Y-97974164D01*
X82181458Y-98107792D01*
X82223250Y-98142090D01*
X82223251Y-100451440D01*
X82219256Y-100492000D01*
X82235195Y-100653826D01*
X82282397Y-100809433D01*
X82359051Y-100952842D01*
X82420613Y-101027854D01*
X82462210Y-101078541D01*
X82493711Y-101104393D01*
X82845352Y-101456034D01*
X82871209Y-101487541D01*
X82996908Y-101590699D01*
X83140316Y-101667353D01*
X83204197Y-101686731D01*
X83204712Y-101691962D01*
X83163750Y-101687928D01*
X81663750Y-101687928D01*
X81539268Y-101700188D01*
X81419570Y-101736498D01*
X81309256Y-101795463D01*
X81253769Y-101841000D01*
X81206711Y-101841000D01*
X81177774Y-101812063D01*
X81008256Y-101698795D01*
X80819898Y-101620774D01*
X80619939Y-101581000D01*
X80416061Y-101581000D01*
X80216102Y-101620774D01*
X80027744Y-101698795D01*
X79858226Y-101812063D01*
X79714063Y-101956226D01*
X79600795Y-102125744D01*
X79522774Y-102314102D01*
X79483000Y-102514061D01*
X79483000Y-102717939D01*
X79522774Y-102917898D01*
X79600795Y-103106256D01*
X79714063Y-103275774D01*
X79858226Y-103419937D01*
X80027744Y-103533205D01*
X80216102Y-103611226D01*
X80416061Y-103651000D01*
X80619939Y-103651000D01*
X80819898Y-103611226D01*
X81008256Y-103533205D01*
X81025678Y-103521564D01*
X81025678Y-103676000D01*
X81037938Y-103800482D01*
X81038095Y-103801000D01*
X81037938Y-103801518D01*
X81025678Y-103926000D01*
X81025678Y-104241000D01*
X73279000Y-104241000D01*
X73279000Y-86131000D01*
X103507039Y-86131000D01*
X103481401Y-86178966D01*
X103481401Y-86178966D01*
G37*
X103481401Y-86178966D02*
X103396487Y-86458889D01*
X103375000Y-86677050D01*
X103375000Y-87822949D01*
X103396487Y-88041110D01*
X103481401Y-88321033D01*
X103619294Y-88579013D01*
X103804866Y-88805134D01*
X104030986Y-88990706D01*
X104288966Y-89128599D01*
X104568889Y-89213513D01*
X104860000Y-89242185D01*
X105151110Y-89213513D01*
X105431033Y-89128599D01*
X105689013Y-88990706D01*
X105915134Y-88805134D01*
X106100706Y-88579014D01*
X106238599Y-88321034D01*
X106323513Y-88041111D01*
X106345000Y-87822950D01*
X106345000Y-86677050D01*
X106323513Y-86458889D01*
X106238599Y-86178966D01*
X106212961Y-86131000D01*
X110807039Y-86131000D01*
X110781401Y-86178966D01*
X110696487Y-86458889D01*
X110675000Y-86677050D01*
X110675000Y-87822949D01*
X110696487Y-88041110D01*
X110781401Y-88321033D01*
X110919294Y-88579013D01*
X111104866Y-88805134D01*
X111330986Y-88990706D01*
X111588966Y-89128599D01*
X111868889Y-89213513D01*
X112160000Y-89242185D01*
X112451110Y-89213513D01*
X112731033Y-89128599D01*
X112989013Y-88990706D01*
X113215134Y-88805134D01*
X113400706Y-88579014D01*
X113538599Y-88321034D01*
X113623513Y-88041111D01*
X113645000Y-87822950D01*
X113645000Y-86677050D01*
X113623513Y-86458889D01*
X113538599Y-86178966D01*
X113512961Y-86131000D01*
X113987721Y-86131000D01*
X114400178Y-86171442D01*
X114765875Y-86281852D01*
X115103157Y-86461188D01*
X115399191Y-86702627D01*
X115642686Y-86996963D01*
X115824373Y-87332987D01*
X115937335Y-87697908D01*
X115980591Y-88109458D01*
X116211933Y-120027201D01*
X116214912Y-120055355D01*
X116165113Y-120563246D01*
X115998631Y-121114661D01*
X115728217Y-121623234D01*
X115364170Y-122069601D01*
X114920355Y-122436756D01*
X114413682Y-122710714D01*
X113856632Y-122883149D01*
X113408322Y-122940000D01*
X73279000Y-122940000D01*
X73279000Y-120375500D01*
X82227928Y-120375500D01*
X82240188Y-120499982D01*
X82276498Y-120619680D01*
X82335463Y-120729994D01*
X82414815Y-120826685D01*
X82511506Y-120906037D01*
X82621820Y-120965002D01*
X82741518Y-121001312D01*
X82866000Y-121013572D01*
X83280250Y-121010500D01*
X83439000Y-120851750D01*
X83439000Y-120015000D01*
X83693000Y-120015000D01*
X83693000Y-120851750D01*
X83851750Y-121010500D01*
X84266000Y-121013572D01*
X84390482Y-121001312D01*
X84510180Y-120965002D01*
X84620494Y-120906037D01*
X84717185Y-120826685D01*
X84796537Y-120729994D01*
X84855502Y-120619680D01*
X84891812Y-120499982D01*
X84892105Y-120497000D01*
X86469428Y-120497000D01*
X86481688Y-120621482D01*
X86517998Y-120741180D01*
X86576963Y-120851494D01*
X86656315Y-120948185D01*
X86753006Y-121027537D01*
X86863320Y-121086502D01*
X86983018Y-121122812D01*
X87107500Y-121135072D01*
X87521750Y-121132000D01*
X87680500Y-120973250D01*
X87680500Y-120024000D01*
X86631250Y-120024000D01*
X86472500Y-120182750D01*
X86469428Y-120497000D01*
X84892105Y-120497000D01*
X84904072Y-120375500D01*
X84901000Y-120173750D01*
X84742250Y-120015000D01*
X83693000Y-120015000D01*
X83439000Y-120015000D01*
X82389750Y-120015000D01*
X82231000Y-120173750D01*
X82227928Y-120375500D01*
X73279000Y-120375500D01*
X73279000Y-111582500D01*
X77401928Y-111582500D01*
X77414188Y-111706982D01*
X77450498Y-111826680D01*
X77509463Y-111936994D01*
X77588815Y-112033685D01*
X77685506Y-112113037D01*
X77795820Y-112172002D01*
X77915518Y-112208312D01*
X78040000Y-112220572D01*
X78454250Y-112217500D01*
X78613000Y-112058750D01*
X78613000Y-111222000D01*
X78867000Y-111222000D01*
X78867000Y-112058750D01*
X79025750Y-112217500D01*
X79440000Y-112220572D01*
X79564482Y-112208312D01*
X79684180Y-112172002D01*
X79794494Y-112113037D01*
X79891185Y-112033685D01*
X79970537Y-111936994D01*
X80029502Y-111826680D01*
X80065812Y-111706982D01*
X80078072Y-111582500D01*
X80075000Y-111380750D01*
X79916250Y-111222000D01*
X78867000Y-111222000D01*
X78613000Y-111222000D01*
X77563750Y-111222000D01*
X77405000Y-111380750D01*
X77401928Y-111582500D01*
X73279000Y-111582500D01*
X73279000Y-108161000D01*
X77948114Y-108161000D01*
X77946291Y-108161553D01*
X77793836Y-108243042D01*
X77660208Y-108352708D01*
X77625910Y-108394500D01*
X77589503Y-108394500D01*
X77452256Y-108302795D01*
X77263898Y-108224774D01*
X77063939Y-108185000D01*
X76860061Y-108185000D01*
X76660102Y-108224774D01*
X76471744Y-108302795D01*
X76302226Y-108416063D01*
X76158063Y-108560226D01*
X76044795Y-108729744D01*
X75966774Y-108918102D01*
X75927000Y-109118061D01*
X75927000Y-109321939D01*
X75966774Y-109521898D01*
X76044795Y-109710256D01*
X76158063Y-109879774D01*
X76302226Y-110023937D01*
X76471744Y-110137205D01*
X76660102Y-110215226D01*
X76860061Y-110255000D01*
X77063939Y-110255000D01*
X77263898Y-110215226D01*
X77452256Y-110137205D01*
X77589503Y-110045500D01*
X77625910Y-110045500D01*
X77660208Y-110087292D01*
X77666564Y-110092508D01*
X77588815Y-110156315D01*
X77509463Y-110253006D01*
X77450498Y-110363320D01*
X77414188Y-110483018D01*
X77401928Y-110607500D01*
X77405000Y-110809250D01*
X77563750Y-110968000D01*
X78613000Y-110968000D01*
X78613000Y-110948000D01*
X78867000Y-110948000D01*
X78867000Y-110968000D01*
X79916250Y-110968000D01*
X80075000Y-110809250D01*
X80077783Y-110626500D01*
X81028750Y-110626500D01*
X81028750Y-110728002D01*
X81187498Y-110728002D01*
X81028750Y-110886750D01*
X81038573Y-111003631D01*
X81075485Y-111123145D01*
X81135004Y-111233161D01*
X81214842Y-111329451D01*
X81311932Y-111408316D01*
X81422542Y-111466724D01*
X81542421Y-111502430D01*
X81666963Y-111514064D01*
X82128000Y-111511000D01*
X82286750Y-111352250D01*
X82286750Y-110728000D01*
X82266750Y-110728000D01*
X82266750Y-110714072D01*
X83163750Y-110714072D01*
X83288232Y-110701812D01*
X83407930Y-110665502D01*
X83518244Y-110606537D01*
X83614935Y-110527185D01*
X83694287Y-110430494D01*
X83706667Y-110407333D01*
X83798750Y-110315250D01*
X83789204Y-110201663D01*
X83789562Y-110200482D01*
X83801822Y-110076000D01*
X83801822Y-109526000D01*
X83789562Y-109401518D01*
X83789405Y-109401000D01*
X83789562Y-109400482D01*
X83801822Y-109276000D01*
X83801822Y-108726000D01*
X83789562Y-108601518D01*
X83789405Y-108601000D01*
X83789562Y-108600482D01*
X83801822Y-108476000D01*
X83801822Y-107926000D01*
X83789562Y-107801518D01*
X83789405Y-107801000D01*
X83789562Y-107800482D01*
X83801822Y-107676000D01*
X83801822Y-107126000D01*
X83789562Y-107001518D01*
X83789405Y-107001000D01*
X83789562Y-107000482D01*
X83801822Y-106876000D01*
X83801822Y-106326000D01*
X83789562Y-106201518D01*
X83789405Y-106201000D01*
X83789562Y-106200482D01*
X83801822Y-106076000D01*
X83801822Y-105526000D01*
X83789562Y-105401518D01*
X83789405Y-105401000D01*
X83789562Y-105400482D01*
X83801822Y-105276000D01*
X83801822Y-104726000D01*
X83789562Y-104601518D01*
X83789405Y-104601000D01*
X83789562Y-104600482D01*
X83801822Y-104476000D01*
X83801822Y-103926000D01*
X83789562Y-103801518D01*
X83789405Y-103801000D01*
X83789562Y-103800482D01*
X83801822Y-103676000D01*
X83801822Y-103126000D01*
X83789562Y-103001518D01*
X83789405Y-103001000D01*
X83789562Y-103000482D01*
X83801822Y-102876000D01*
X83801822Y-102326000D01*
X83797788Y-102285038D01*
X83838750Y-102289072D01*
X84388750Y-102289072D01*
X84513232Y-102276812D01*
X84514413Y-102276454D01*
X84628000Y-102286000D01*
X84720083Y-102193917D01*
X84743244Y-102181537D01*
X84839935Y-102102185D01*
X84913750Y-102012241D01*
X84987565Y-102102185D01*
X85084256Y-102181537D01*
X85107417Y-102193917D01*
X85199500Y-102286000D01*
X85313087Y-102276454D01*
X85314268Y-102276812D01*
X85438750Y-102289072D01*
X85988750Y-102289072D01*
X86113232Y-102276812D01*
X86113750Y-102276655D01*
X86114268Y-102276812D01*
X86238750Y-102289072D01*
X86788750Y-102289072D01*
X86913232Y-102276812D01*
X86913750Y-102276655D01*
X86914268Y-102276812D01*
X87038750Y-102289072D01*
X87588750Y-102289072D01*
X87713232Y-102276812D01*
X87713750Y-102276655D01*
X87714268Y-102276812D01*
X87838750Y-102289072D01*
X88388750Y-102289072D01*
X88513232Y-102276812D01*
X88513750Y-102276655D01*
X88514268Y-102276812D01*
X88638750Y-102289072D01*
X89188750Y-102289072D01*
X89313232Y-102276812D01*
X89313750Y-102276655D01*
X89314268Y-102276812D01*
X89438750Y-102289072D01*
X89988750Y-102289072D01*
X90113232Y-102276812D01*
X90113750Y-102276655D01*
X90114268Y-102276812D01*
X90238750Y-102289072D01*
X90788750Y-102289072D01*
X90913232Y-102276812D01*
X90914413Y-102276454D01*
X91028000Y-102286000D01*
X91120083Y-102193917D01*
X91143244Y-102181537D01*
X91239935Y-102102185D01*
X91313750Y-102012241D01*
X91387565Y-102102185D01*
X91484256Y-102181537D01*
X91507417Y-102193917D01*
X91599500Y-102286000D01*
X91713087Y-102276454D01*
X91714268Y-102276812D01*
X91838750Y-102289072D01*
X92388750Y-102289072D01*
X92429712Y-102285038D01*
X92425678Y-102326000D01*
X92425678Y-102876000D01*
X92437938Y-103000482D01*
X92438095Y-103001000D01*
X92437938Y-103001518D01*
X92425678Y-103126000D01*
X92425678Y-103676000D01*
X92437938Y-103800482D01*
X92438095Y-103801000D01*
X92437938Y-103801518D01*
X92425678Y-103926000D01*
X92425678Y-104476000D01*
X92437938Y-104600482D01*
X92438095Y-104601000D01*
X92437938Y-104601518D01*
X92425678Y-104726000D01*
X92425678Y-105276000D01*
X92437938Y-105400482D01*
X92438296Y-105401663D01*
X92428750Y-105515250D01*
X92520833Y-105607333D01*
X92533213Y-105630494D01*
X92612565Y-105727185D01*
X92702509Y-105801000D01*
X92612565Y-105874815D01*
X92533213Y-105971506D01*
X92520833Y-105994667D01*
X92428750Y-106086750D01*
X92438296Y-106200337D01*
X92437938Y-106201518D01*
X92425678Y-106326000D01*
X92425678Y-106876000D01*
X92437938Y-107000482D01*
X92438095Y-107001000D01*
X92437938Y-107001518D01*
X92425678Y-107126000D01*
X92425678Y-107676000D01*
X92437938Y-107800482D01*
X92438095Y-107801000D01*
X92437938Y-107801518D01*
X92425678Y-107926000D01*
X92425678Y-108476000D01*
X92437938Y-108600482D01*
X92438095Y-108601000D01*
X92437938Y-108601518D01*
X92425678Y-108726000D01*
X92425678Y-109276000D01*
X92437938Y-109400482D01*
X92438095Y-109401000D01*
X92437938Y-109401518D01*
X92425678Y-109526000D01*
X92425678Y-110076000D01*
X92437938Y-110200482D01*
X92438095Y-110201000D01*
X92437938Y-110201518D01*
X92425678Y-110326000D01*
X92425678Y-110334999D01*
X90563793Y-110334999D01*
X90523250Y-110331006D01*
X90482707Y-110334999D01*
X90482698Y-110334999D01*
X90361425Y-110346943D01*
X90205817Y-110394146D01*
X90062409Y-110470800D01*
X89936710Y-110573958D01*
X89932425Y-110579179D01*
X89927210Y-110583459D01*
X89901359Y-110614959D01*
X89824051Y-110709158D01*
X89747397Y-110852567D01*
X89700195Y-111008174D01*
X89685679Y-111155554D01*
X89639935Y-111099815D01*
X89543244Y-111020463D01*
X89520083Y-111008083D01*
X89428000Y-110916000D01*
X89314413Y-110925546D01*
X89313232Y-110925188D01*
X89188750Y-110912928D01*
X88638750Y-110912928D01*
X88514268Y-110925188D01*
X88513750Y-110925345D01*
X88513232Y-110925188D01*
X88388750Y-110912928D01*
X87838750Y-110912928D01*
X87714268Y-110925188D01*
X87713750Y-110925345D01*
X87713232Y-110925188D01*
X87588750Y-110912928D01*
X87038750Y-110912928D01*
X86914268Y-110925188D01*
X86913750Y-110925345D01*
X86913232Y-110925188D01*
X86788750Y-110912928D01*
X86238750Y-110912928D01*
X86114268Y-110925188D01*
X86113750Y-110925345D01*
X86113232Y-110925188D01*
X85988750Y-110912928D01*
X85438750Y-110912928D01*
X85314268Y-110925188D01*
X85313750Y-110925345D01*
X85313232Y-110925188D01*
X85188750Y-110912928D01*
X84638750Y-110912928D01*
X84514268Y-110925188D01*
X84513750Y-110925345D01*
X84513232Y-110925188D01*
X84388750Y-110912928D01*
X83838750Y-110912928D01*
X83796198Y-110917119D01*
X83798750Y-110886750D01*
X83640000Y-110728000D01*
X82540750Y-110728000D01*
X82540750Y-111352250D01*
X82699500Y-111511000D01*
X83160537Y-111514064D01*
X83204722Y-111509936D01*
X83200678Y-111551000D01*
X83200678Y-113051000D01*
X83212938Y-113175482D01*
X83249248Y-113295180D01*
X83308213Y-113405494D01*
X83387565Y-113502185D01*
X83484256Y-113581537D01*
X83594570Y-113640502D01*
X83714268Y-113676812D01*
X83838750Y-113689072D01*
X84388750Y-113689072D01*
X84513232Y-113676812D01*
X84513750Y-113676655D01*
X84514268Y-113676812D01*
X84638750Y-113689072D01*
X85188750Y-113689072D01*
X85313232Y-113676812D01*
X85313750Y-113676655D01*
X85314268Y-113676812D01*
X85438750Y-113689072D01*
X85988750Y-113689072D01*
X86113232Y-113676812D01*
X86113750Y-113676655D01*
X86114268Y-113676812D01*
X86238750Y-113689072D01*
X86788750Y-113689072D01*
X86913232Y-113676812D01*
X86913750Y-113676655D01*
X86914268Y-113676812D01*
X87038750Y-113689072D01*
X87353751Y-113689072D01*
X87353750Y-116725949D01*
X87296498Y-116783201D01*
X87267500Y-116806999D01*
X87243702Y-116835997D01*
X87243701Y-116835998D01*
X87172526Y-116922724D01*
X87153174Y-116958928D01*
X87107500Y-116958928D01*
X86983018Y-116971188D01*
X86863320Y-117007498D01*
X86753006Y-117066463D01*
X86656315Y-117145815D01*
X86576963Y-117242506D01*
X86571354Y-117253000D01*
X84733845Y-117253000D01*
X84645792Y-117145708D01*
X84512164Y-117036042D01*
X84359709Y-116954553D01*
X84194285Y-116904372D01*
X84022250Y-116887428D01*
X83109750Y-116887428D01*
X82937715Y-116904372D01*
X82772291Y-116954553D01*
X82619836Y-117036042D01*
X82486208Y-117145708D01*
X82376542Y-117279336D01*
X82295053Y-117431791D01*
X82244872Y-117597215D01*
X82227928Y-117769250D01*
X82227928Y-118256750D01*
X82244872Y-118428785D01*
X82295053Y-118594209D01*
X82376542Y-118746664D01*
X82486208Y-118880292D01*
X82492564Y-118885508D01*
X82414815Y-118949315D01*
X82335463Y-119046006D01*
X82276498Y-119156320D01*
X82240188Y-119276018D01*
X82227928Y-119400500D01*
X82231000Y-119602250D01*
X82389750Y-119761000D01*
X83439000Y-119761000D01*
X83439000Y-119741000D01*
X83693000Y-119741000D01*
X83693000Y-119761000D01*
X84742250Y-119761000D01*
X84901000Y-119602250D01*
X84904072Y-119400500D01*
X84891812Y-119276018D01*
X84855502Y-119156320D01*
X84796537Y-119046006D01*
X84717185Y-118949315D01*
X84639436Y-118885508D01*
X84645792Y-118880292D01*
X84733845Y-118773000D01*
X86469428Y-118773000D01*
X86469428Y-118797000D01*
X86481688Y-118921482D01*
X86517998Y-119041180D01*
X86521109Y-119047000D01*
X86517998Y-119052820D01*
X86481688Y-119172518D01*
X86469428Y-119297000D01*
X86472500Y-119611250D01*
X86631250Y-119770000D01*
X87680500Y-119770000D01*
X87680500Y-119750000D01*
X87934500Y-119750000D01*
X87934500Y-119770000D01*
X87954500Y-119770000D01*
X87954500Y-120024000D01*
X87934500Y-120024000D01*
X87934500Y-120973250D01*
X88093250Y-121132000D01*
X88507500Y-121135072D01*
X88631982Y-121122812D01*
X88751680Y-121086502D01*
X88861994Y-121027537D01*
X88907500Y-120990191D01*
X88953006Y-121027537D01*
X89063320Y-121086502D01*
X89183018Y-121122812D01*
X89307500Y-121135072D01*
X90707500Y-121135072D01*
X90831982Y-121122812D01*
X90951680Y-121086502D01*
X91061994Y-121027537D01*
X91158685Y-120948185D01*
X91238037Y-120851494D01*
X91297002Y-120741180D01*
X91325268Y-120648000D01*
X93828155Y-120648000D01*
X93916208Y-120755292D01*
X94049836Y-120864958D01*
X94202291Y-120946447D01*
X94367715Y-120996628D01*
X94539750Y-121013572D01*
X95452250Y-121013572D01*
X95624285Y-120996628D01*
X95789709Y-120946447D01*
X95942164Y-120864958D01*
X96075792Y-120755292D01*
X96185458Y-120621664D01*
X96266947Y-120469209D01*
X96317128Y-120303785D01*
X96334072Y-120131750D01*
X96334072Y-119644250D01*
X96317128Y-119472215D01*
X96266947Y-119306791D01*
X96185458Y-119154336D01*
X96075792Y-119020708D01*
X96069436Y-119015492D01*
X96147185Y-118951685D01*
X96226537Y-118854994D01*
X96240820Y-118828272D01*
X97993551Y-120581003D01*
X98017349Y-120610001D01*
X98133074Y-120704974D01*
X98265103Y-120775546D01*
X98408364Y-120819003D01*
X98520017Y-120830000D01*
X98520026Y-120830000D01*
X98557349Y-120833676D01*
X98594672Y-120830000D01*
X104428667Y-120830000D01*
X104466000Y-120833677D01*
X104503333Y-120830000D01*
X105120130Y-120830000D01*
X105130498Y-120864180D01*
X105189463Y-120974494D01*
X105268815Y-121071185D01*
X105365506Y-121150537D01*
X105475820Y-121209502D01*
X105595518Y-121245812D01*
X105720000Y-121258072D01*
X107520000Y-121258072D01*
X107644482Y-121245812D01*
X107764180Y-121209502D01*
X107874494Y-121150537D01*
X107971185Y-121071185D01*
X108050537Y-120974494D01*
X108109502Y-120864180D01*
X108145812Y-120744482D01*
X108158072Y-120620000D01*
X108158072Y-119520000D01*
X111281928Y-119520000D01*
X111281928Y-120620000D01*
X111294188Y-120744482D01*
X111330498Y-120864180D01*
X111389463Y-120974494D01*
X111468815Y-121071185D01*
X111565506Y-121150537D01*
X111675820Y-121209502D01*
X111795518Y-121245812D01*
X111920000Y-121258072D01*
X113720000Y-121258072D01*
X113844482Y-121245812D01*
X113964180Y-121209502D01*
X114074494Y-121150537D01*
X114171185Y-121071185D01*
X114250537Y-120974494D01*
X114309502Y-120864180D01*
X114345812Y-120744482D01*
X114358072Y-120620000D01*
X114358072Y-119520000D01*
X114345812Y-119395518D01*
X114309502Y-119275820D01*
X114250537Y-119165506D01*
X114171185Y-119068815D01*
X114074494Y-118989463D01*
X113964180Y-118930498D01*
X113844482Y-118894188D01*
X113720000Y-118881928D01*
X111920000Y-118881928D01*
X111795518Y-118894188D01*
X111675820Y-118930498D01*
X111565506Y-118989463D01*
X111468815Y-119068815D01*
X111389463Y-119165506D01*
X111330498Y-119275820D01*
X111294188Y-119395518D01*
X111281928Y-119520000D01*
X108158072Y-119520000D01*
X108145812Y-119395518D01*
X108109502Y-119275820D01*
X108050537Y-119165506D01*
X107971185Y-119068815D01*
X107874494Y-118989463D01*
X107764180Y-118930498D01*
X107644482Y-118894188D01*
X107520000Y-118881928D01*
X105720000Y-118881928D01*
X105595518Y-118894188D01*
X105475820Y-118930498D01*
X105365506Y-118989463D01*
X105268815Y-119068815D01*
X105226000Y-119120985D01*
X105226000Y-117319015D01*
X105268815Y-117371185D01*
X105365506Y-117450537D01*
X105475820Y-117509502D01*
X105595518Y-117545812D01*
X105720000Y-117558072D01*
X107520000Y-117558072D01*
X107644482Y-117545812D01*
X107764180Y-117509502D01*
X107874494Y-117450537D01*
X107971185Y-117371185D01*
X108050537Y-117274494D01*
X108109502Y-117164180D01*
X108145812Y-117044482D01*
X108158072Y-116920000D01*
X111281928Y-116920000D01*
X111294188Y-117044482D01*
X111330498Y-117164180D01*
X111389463Y-117274494D01*
X111468815Y-117371185D01*
X111565506Y-117450537D01*
X111675820Y-117509502D01*
X111795518Y-117545812D01*
X111920000Y-117558072D01*
X112534250Y-117555000D01*
X112693000Y-117396250D01*
X112693000Y-116497000D01*
X112947000Y-116497000D01*
X112947000Y-117396250D01*
X113105750Y-117555000D01*
X113720000Y-117558072D01*
X113844482Y-117545812D01*
X113964180Y-117509502D01*
X114074494Y-117450537D01*
X114171185Y-117371185D01*
X114250537Y-117274494D01*
X114309502Y-117164180D01*
X114345812Y-117044482D01*
X114358072Y-116920000D01*
X114355000Y-116655750D01*
X114196250Y-116497000D01*
X112947000Y-116497000D01*
X112693000Y-116497000D01*
X111443750Y-116497000D01*
X111285000Y-116655750D01*
X111281928Y-116920000D01*
X108158072Y-116920000D01*
X108158072Y-115820000D01*
X111281928Y-115820000D01*
X111285000Y-116084250D01*
X111443750Y-116243000D01*
X112693000Y-116243000D01*
X112693000Y-115343750D01*
X112947000Y-115343750D01*
X112947000Y-116243000D01*
X114196250Y-116243000D01*
X114355000Y-116084250D01*
X114358072Y-115820000D01*
X114345812Y-115695518D01*
X114309502Y-115575820D01*
X114250537Y-115465506D01*
X114171185Y-115368815D01*
X114074494Y-115289463D01*
X113964180Y-115230498D01*
X113844482Y-115194188D01*
X113720000Y-115181928D01*
X113105750Y-115185000D01*
X112947000Y-115343750D01*
X112693000Y-115343750D01*
X112534250Y-115185000D01*
X111920000Y-115181928D01*
X111795518Y-115194188D01*
X111675820Y-115230498D01*
X111565506Y-115289463D01*
X111468815Y-115368815D01*
X111389463Y-115465506D01*
X111330498Y-115575820D01*
X111294188Y-115695518D01*
X111281928Y-115820000D01*
X108158072Y-115820000D01*
X108145812Y-115695518D01*
X108109502Y-115575820D01*
X108050537Y-115465506D01*
X107971185Y-115368815D01*
X107874494Y-115289463D01*
X107764180Y-115230498D01*
X107644482Y-115194188D01*
X107520000Y-115181928D01*
X106847871Y-115181928D01*
X112018513Y-110011287D01*
X112047511Y-109987489D01*
X112111352Y-109909699D01*
X112142484Y-109871765D01*
X112213056Y-109739735D01*
X112225052Y-109700188D01*
X112256513Y-109596474D01*
X112267510Y-109484821D01*
X112267510Y-109484811D01*
X112271186Y-109447488D01*
X112267510Y-109410165D01*
X112267510Y-107264832D01*
X112271186Y-107227509D01*
X112267510Y-107190186D01*
X112267510Y-107190177D01*
X112256513Y-107078524D01*
X112213056Y-106935263D01*
X112178474Y-106870566D01*
X112142484Y-106803233D01*
X112071309Y-106716507D01*
X112047511Y-106687509D01*
X112018514Y-106663712D01*
X111818822Y-106464020D01*
X111820572Y-106446250D01*
X111820572Y-105958750D01*
X111803628Y-105786715D01*
X111753447Y-105621291D01*
X111671958Y-105468836D01*
X111562292Y-105335208D01*
X111428664Y-105225542D01*
X111276209Y-105144053D01*
X111110785Y-105093872D01*
X110938750Y-105076928D01*
X110784874Y-105076928D01*
X110893480Y-104968322D01*
X110911250Y-104970072D01*
X111398750Y-104970072D01*
X111570785Y-104953128D01*
X111736209Y-104902947D01*
X111888664Y-104821458D01*
X112022292Y-104711792D01*
X112027508Y-104705436D01*
X112091315Y-104783185D01*
X112188006Y-104862537D01*
X112298320Y-104921502D01*
X112418018Y-104957812D01*
X112542500Y-104970072D01*
X112744250Y-104967000D01*
X112903000Y-104808250D01*
X112903000Y-103759000D01*
X113157000Y-103759000D01*
X113157000Y-104808250D01*
X113315750Y-104967000D01*
X113517500Y-104970072D01*
X113641982Y-104957812D01*
X113761680Y-104921502D01*
X113871994Y-104862537D01*
X113968685Y-104783185D01*
X114048037Y-104686494D01*
X114107002Y-104576180D01*
X114143312Y-104456482D01*
X114155572Y-104332000D01*
X114152500Y-103917750D01*
X113993750Y-103759000D01*
X113157000Y-103759000D01*
X112903000Y-103759000D01*
X112883000Y-103759000D01*
X112883000Y-103505000D01*
X112903000Y-103505000D01*
X112903000Y-102455750D01*
X113157000Y-102455750D01*
X113157000Y-103505000D01*
X113993750Y-103505000D01*
X114152500Y-103346250D01*
X114155572Y-102932000D01*
X114143312Y-102807518D01*
X114107002Y-102687820D01*
X114048037Y-102577506D01*
X113968685Y-102480815D01*
X113871994Y-102401463D01*
X113761680Y-102342498D01*
X113641982Y-102306188D01*
X113517500Y-102293928D01*
X113315750Y-102297000D01*
X113157000Y-102455750D01*
X112903000Y-102455750D01*
X112744250Y-102297000D01*
X112542500Y-102293928D01*
X112418018Y-102306188D01*
X112298320Y-102342498D01*
X112188006Y-102401463D01*
X112091315Y-102480815D01*
X112027508Y-102558564D01*
X112022292Y-102552208D01*
X111888664Y-102442542D01*
X111736209Y-102361053D01*
X111725124Y-102357691D01*
X111807898Y-102341226D01*
X111996256Y-102263205D01*
X112165774Y-102149937D01*
X112309937Y-102005774D01*
X112423205Y-101836256D01*
X112501226Y-101647898D01*
X112541000Y-101447939D01*
X112541000Y-101244061D01*
X112501226Y-101044102D01*
X112423205Y-100855744D01*
X112379652Y-100790562D01*
X112459792Y-100724792D01*
X112569458Y-100591164D01*
X112650947Y-100438709D01*
X112701128Y-100273285D01*
X112718072Y-100101250D01*
X112718072Y-99613750D01*
X112701128Y-99441715D01*
X112650947Y-99276291D01*
X112569458Y-99123836D01*
X112459792Y-98990208D01*
X112453436Y-98984992D01*
X112531185Y-98921185D01*
X112610537Y-98824494D01*
X112669502Y-98714180D01*
X112705812Y-98594482D01*
X112718072Y-98470000D01*
X112715000Y-98268250D01*
X112556250Y-98109500D01*
X111507000Y-98109500D01*
X111507000Y-98129500D01*
X111253000Y-98129500D01*
X111253000Y-98109500D01*
X111233000Y-98109500D01*
X111233000Y-97855500D01*
X111253000Y-97855500D01*
X111253000Y-97018750D01*
X111507000Y-97018750D01*
X111507000Y-97855500D01*
X112556250Y-97855500D01*
X112715000Y-97696750D01*
X112718072Y-97495000D01*
X112705812Y-97370518D01*
X112669502Y-97250820D01*
X112610537Y-97140506D01*
X112531185Y-97043815D01*
X112434494Y-96964463D01*
X112324180Y-96905498D01*
X112204482Y-96869188D01*
X112080000Y-96856928D01*
X111665750Y-96860000D01*
X111507000Y-97018750D01*
X111253000Y-97018750D01*
X111094250Y-96860000D01*
X110680000Y-96856928D01*
X110555518Y-96869188D01*
X110435820Y-96905498D01*
X110325506Y-96964463D01*
X110228815Y-97043815D01*
X110149463Y-97140506D01*
X110090498Y-97250820D01*
X110054188Y-97370518D01*
X110041928Y-97495000D01*
X110043889Y-97623778D01*
X110031128Y-97494215D01*
X109980947Y-97328791D01*
X109899458Y-97176336D01*
X109789792Y-97042708D01*
X109656164Y-96933042D01*
X109503709Y-96851553D01*
X109338285Y-96801372D01*
X109166250Y-96784428D01*
X108623874Y-96784428D01*
X108440000Y-96600554D01*
X108440000Y-93974448D01*
X108754194Y-93660255D01*
X108782239Y-93637239D01*
X108874088Y-93525321D01*
X108887712Y-93499832D01*
X108910000Y-93493071D01*
X108935518Y-93500812D01*
X109060000Y-93513072D01*
X109560000Y-93513072D01*
X109684482Y-93500812D01*
X109709266Y-93493294D01*
X109728639Y-93499404D01*
X109828250Y-93510000D01*
X109987000Y-93351250D01*
X109987000Y-93346033D01*
X110011185Y-93326185D01*
X110090537Y-93229494D01*
X110149502Y-93119180D01*
X110185812Y-92999482D01*
X110198072Y-92875000D01*
X110198072Y-90625000D01*
X110185812Y-90500518D01*
X110149502Y-90380820D01*
X110090537Y-90270506D01*
X110011185Y-90173815D01*
X109987000Y-90153967D01*
X109987000Y-90148750D01*
X110233000Y-90148750D01*
X110233000Y-91623000D01*
X110257000Y-91623000D01*
X110257000Y-91877000D01*
X110233000Y-91877000D01*
X110233000Y-93351250D01*
X110391750Y-93510000D01*
X110491361Y-93499404D01*
X110610652Y-93461779D01*
X110720311Y-93401604D01*
X110816123Y-93321193D01*
X110894406Y-93223634D01*
X110950123Y-93116578D01*
X111104866Y-93305134D01*
X111330986Y-93490706D01*
X111588966Y-93628599D01*
X111868889Y-93713513D01*
X112160000Y-93742185D01*
X112451110Y-93713513D01*
X112731033Y-93628599D01*
X112989013Y-93490706D01*
X113215134Y-93305134D01*
X113400706Y-93079014D01*
X113538599Y-92821034D01*
X113623513Y-92541111D01*
X113645000Y-92322950D01*
X113645000Y-91177050D01*
X113623513Y-90958889D01*
X113538599Y-90678966D01*
X113400706Y-90420986D01*
X113215134Y-90194866D01*
X112989014Y-90009294D01*
X112731034Y-89871401D01*
X112451111Y-89786487D01*
X112160000Y-89757815D01*
X111868890Y-89786487D01*
X111588967Y-89871401D01*
X111330987Y-90009294D01*
X111104867Y-90194866D01*
X110950123Y-90383421D01*
X110894406Y-90276366D01*
X110816123Y-90178807D01*
X110720311Y-90098396D01*
X110610652Y-90038221D01*
X110491361Y-90000596D01*
X110391750Y-89990000D01*
X110233000Y-90148750D01*
X109987000Y-90148750D01*
X109828250Y-89990000D01*
X109728639Y-90000596D01*
X109709266Y-90006706D01*
X109684482Y-89999188D01*
X109560000Y-89986928D01*
X109060000Y-89986928D01*
X108935518Y-89999188D01*
X108910000Y-90006929D01*
X108884482Y-89999188D01*
X108760000Y-89986928D01*
X108260000Y-89986928D01*
X108135518Y-89999188D01*
X108110000Y-90006929D01*
X108084482Y-89999188D01*
X107960000Y-89986928D01*
X107460000Y-89986928D01*
X107335518Y-89999188D01*
X107310000Y-90006929D01*
X107284482Y-89999188D01*
X107160000Y-89986928D01*
X106660000Y-89986928D01*
X106535518Y-89999188D01*
X106415820Y-90035498D01*
X106305506Y-90094463D01*
X106208815Y-90173815D01*
X106129463Y-90270506D01*
X106070498Y-90380820D01*
X106069754Y-90383271D01*
X105915134Y-90194866D01*
X105689014Y-90009294D01*
X105431034Y-89871401D01*
X105151111Y-89786487D01*
X104860000Y-89757815D01*
X104568890Y-89786487D01*
X104288967Y-89871401D01*
X104030987Y-90009294D01*
X103804867Y-90194866D01*
X103619294Y-90420986D01*
X103481401Y-90678966D01*
X103396487Y-90958889D01*
X103375000Y-91177050D01*
X103375000Y-92322949D01*
X103396487Y-92541110D01*
X103481401Y-92821033D01*
X103619294Y-93079013D01*
X103804866Y-93305134D01*
X104030986Y-93490706D01*
X104288966Y-93628599D01*
X104568889Y-93713513D01*
X104730744Y-93729454D01*
X102769003Y-95691196D01*
X102739999Y-95714999D01*
X102684871Y-95782174D01*
X102645026Y-95830724D01*
X102620390Y-95876815D01*
X102574454Y-95962754D01*
X102530997Y-96106015D01*
X102520000Y-96217668D01*
X102520000Y-96217678D01*
X102516324Y-96255000D01*
X102520000Y-96292322D01*
X102520000Y-96470224D01*
X102481746Y-96473992D01*
X102315150Y-96524528D01*
X102161614Y-96606595D01*
X102027038Y-96717038D01*
X101916595Y-96851614D01*
X101834528Y-97005150D01*
X101783992Y-97171746D01*
X101766928Y-97345000D01*
X101766928Y-98095000D01*
X101783992Y-98268254D01*
X101834528Y-98434850D01*
X101916595Y-98588386D01*
X102027038Y-98722962D01*
X102161614Y-98833405D01*
X102315150Y-98915472D01*
X102481746Y-98966008D01*
X102655000Y-98983072D01*
X103905000Y-98983072D01*
X104078254Y-98966008D01*
X104244850Y-98915472D01*
X104398386Y-98833405D01*
X104532962Y-98722962D01*
X104643405Y-98588386D01*
X104725472Y-98434850D01*
X104776008Y-98268254D01*
X104793072Y-98095000D01*
X104793072Y-97345000D01*
X104776008Y-97171746D01*
X104725472Y-97005150D01*
X104643405Y-96851614D01*
X104532962Y-96717038D01*
X104398386Y-96606595D01*
X104244850Y-96524528D01*
X104122414Y-96487388D01*
X106520000Y-94089802D01*
X106520001Y-96600552D01*
X106356125Y-96764428D01*
X105813750Y-96764428D01*
X105641715Y-96781372D01*
X105476291Y-96831553D01*
X105323836Y-96913042D01*
X105190208Y-97022708D01*
X105080542Y-97156336D01*
X104999053Y-97308791D01*
X104948872Y-97474215D01*
X104931928Y-97646250D01*
X104931928Y-98133750D01*
X104948872Y-98305785D01*
X104999053Y-98471209D01*
X105080542Y-98623664D01*
X105190208Y-98757292D01*
X105275756Y-98827500D01*
X105190208Y-98897708D01*
X105080542Y-99031336D01*
X104999053Y-99183791D01*
X104948872Y-99349215D01*
X104931928Y-99521250D01*
X104931928Y-100008750D01*
X104948872Y-100180785D01*
X104999053Y-100346209D01*
X105080542Y-100498664D01*
X105190208Y-100632292D01*
X105323836Y-100741958D01*
X105476291Y-100823447D01*
X105510001Y-100833673D01*
X105510001Y-101090187D01*
X103585703Y-103014485D01*
X103533205Y-102887744D01*
X103419937Y-102718226D01*
X103275774Y-102574063D01*
X103181417Y-102511016D01*
X103835039Y-101857394D01*
X103866541Y-101831541D01*
X103906434Y-101782931D01*
X104078254Y-101766008D01*
X104244850Y-101715472D01*
X104398386Y-101633405D01*
X104532962Y-101522962D01*
X104643405Y-101388386D01*
X104725472Y-101234850D01*
X104776008Y-101068254D01*
X104793072Y-100895000D01*
X104793072Y-100145000D01*
X104776008Y-99971746D01*
X104725472Y-99805150D01*
X104643405Y-99651614D01*
X104532962Y-99517038D01*
X104398386Y-99406595D01*
X104244850Y-99324528D01*
X104078254Y-99273992D01*
X103905000Y-99256928D01*
X102655000Y-99256928D01*
X102481746Y-99273992D01*
X102315150Y-99324528D01*
X102161614Y-99406595D01*
X102027038Y-99517038D01*
X101916595Y-99651614D01*
X101834528Y-99805150D01*
X101783992Y-99971746D01*
X101766928Y-100145000D01*
X101766928Y-100895000D01*
X101783992Y-101068254D01*
X101834528Y-101234850D01*
X101916595Y-101388386D01*
X101940298Y-101417269D01*
X100782068Y-102575500D01*
X99576183Y-102575500D01*
X93986822Y-96986140D01*
X93986822Y-96571750D01*
X93969878Y-96399715D01*
X93919697Y-96234291D01*
X93838208Y-96081836D01*
X93829652Y-96071411D01*
X93881205Y-95994256D01*
X93959226Y-95805898D01*
X93999000Y-95605939D01*
X93999000Y-95402061D01*
X93959226Y-95202102D01*
X93881205Y-95013744D01*
X93767937Y-94844226D01*
X93623774Y-94700063D01*
X93454256Y-94586795D01*
X93265898Y-94508774D01*
X93065939Y-94469000D01*
X92862061Y-94469000D01*
X92662102Y-94508774D01*
X92473744Y-94586795D01*
X92304226Y-94700063D01*
X92160063Y-94844226D01*
X92046795Y-95013744D01*
X91968774Y-95202102D01*
X91929000Y-95402061D01*
X91929000Y-95605939D01*
X91968774Y-95805898D01*
X92019156Y-95927529D01*
X91993958Y-95948208D01*
X91988742Y-95954564D01*
X91924935Y-95876815D01*
X91828244Y-95797463D01*
X91717930Y-95738498D01*
X91598232Y-95702188D01*
X91473750Y-95689928D01*
X91272000Y-95693000D01*
X91113250Y-95851750D01*
X91113250Y-96901000D01*
X91133250Y-96901000D01*
X91133250Y-97155000D01*
X91113250Y-97155000D01*
X91113250Y-98204250D01*
X91272000Y-98363000D01*
X91288250Y-98363247D01*
X91288251Y-99516000D01*
X91186748Y-99516000D01*
X91186748Y-99656166D01*
X91143244Y-99620463D01*
X91120083Y-99608083D01*
X91028000Y-99516000D01*
X90914413Y-99525546D01*
X90913232Y-99525188D01*
X90788750Y-99512928D01*
X90238750Y-99512928D01*
X90114268Y-99525188D01*
X90113750Y-99525345D01*
X90113232Y-99525188D01*
X89988750Y-99512928D01*
X89438750Y-99512928D01*
X89314268Y-99525188D01*
X89313750Y-99525345D01*
X89313232Y-99525188D01*
X89188750Y-99512928D01*
X88638750Y-99512928D01*
X88514268Y-99525188D01*
X88513750Y-99525345D01*
X88513232Y-99525188D01*
X88388750Y-99512928D01*
X87838750Y-99512928D01*
X87714268Y-99525188D01*
X87713750Y-99525345D01*
X87713232Y-99525188D01*
X87588750Y-99512928D01*
X87038750Y-99512928D01*
X86914268Y-99525188D01*
X86913750Y-99525345D01*
X86913232Y-99525188D01*
X86788750Y-99512928D01*
X86238750Y-99512928D01*
X86114268Y-99525188D01*
X86113750Y-99525345D01*
X86113232Y-99525188D01*
X85988750Y-99512928D01*
X85438750Y-99512928D01*
X85314268Y-99525188D01*
X85313087Y-99525546D01*
X85199500Y-99516000D01*
X85107417Y-99608083D01*
X85084256Y-99620463D01*
X84987565Y-99699815D01*
X84913750Y-99789759D01*
X84839935Y-99699815D01*
X84743244Y-99620463D01*
X84720083Y-99608083D01*
X84628000Y-99516000D01*
X84514413Y-99525546D01*
X84513232Y-99525188D01*
X84388750Y-99512928D01*
X83874250Y-99512928D01*
X83874250Y-98142090D01*
X83916042Y-98107792D01*
X83921258Y-98101436D01*
X83985065Y-98179185D01*
X84081756Y-98258537D01*
X84192070Y-98317502D01*
X84311768Y-98353812D01*
X84436250Y-98366072D01*
X84638000Y-98363000D01*
X84796750Y-98204250D01*
X84796750Y-97155000D01*
X85050750Y-97155000D01*
X85050750Y-98204250D01*
X85209500Y-98363000D01*
X85411250Y-98366072D01*
X85535732Y-98353812D01*
X85655430Y-98317502D01*
X85765744Y-98258537D01*
X85862435Y-98179185D01*
X85941787Y-98082494D01*
X86000752Y-97972180D01*
X86037062Y-97852482D01*
X86049322Y-97728000D01*
X89860678Y-97728000D01*
X89872938Y-97852482D01*
X89909248Y-97972180D01*
X89968213Y-98082494D01*
X90047565Y-98179185D01*
X90144256Y-98258537D01*
X90254570Y-98317502D01*
X90374268Y-98353812D01*
X90498750Y-98366072D01*
X90700500Y-98363000D01*
X90859250Y-98204250D01*
X90859250Y-97155000D01*
X90022500Y-97155000D01*
X89863750Y-97313750D01*
X89860678Y-97728000D01*
X86049322Y-97728000D01*
X86046250Y-97313750D01*
X85887500Y-97155000D01*
X85050750Y-97155000D01*
X84796750Y-97155000D01*
X84776750Y-97155000D01*
X84776750Y-96901000D01*
X84796750Y-96901000D01*
X84796750Y-95851750D01*
X85050750Y-95851750D01*
X85050750Y-96901000D01*
X85887500Y-96901000D01*
X86046250Y-96742250D01*
X86049322Y-96328000D01*
X89860678Y-96328000D01*
X89863750Y-96742250D01*
X90022500Y-96901000D01*
X90859250Y-96901000D01*
X90859250Y-95851750D01*
X90700500Y-95693000D01*
X90498750Y-95689928D01*
X90374268Y-95702188D01*
X90254570Y-95738498D01*
X90144256Y-95797463D01*
X90047565Y-95876815D01*
X89968213Y-95973506D01*
X89909248Y-96083820D01*
X89872938Y-96203518D01*
X89860678Y-96328000D01*
X86049322Y-96328000D01*
X86037062Y-96203518D01*
X86000752Y-96083820D01*
X85941787Y-95973506D01*
X85862435Y-95876815D01*
X85765744Y-95797463D01*
X85655430Y-95738498D01*
X85535732Y-95702188D01*
X85411250Y-95689928D01*
X85209500Y-95693000D01*
X85050750Y-95851750D01*
X84796750Y-95851750D01*
X84638000Y-95693000D01*
X84436250Y-95689928D01*
X84311768Y-95702188D01*
X84192070Y-95738498D01*
X84081756Y-95797463D01*
X83985065Y-95876815D01*
X83921258Y-95954564D01*
X83916042Y-95948208D01*
X83784870Y-95840557D01*
X83799226Y-95805898D01*
X83839000Y-95605939D01*
X83839000Y-95402061D01*
X83799226Y-95202102D01*
X83721205Y-95013744D01*
X83607937Y-94844226D01*
X83463774Y-94700063D01*
X83294256Y-94586795D01*
X83105898Y-94508774D01*
X82905939Y-94469000D01*
X82702061Y-94469000D01*
X82502102Y-94508774D01*
X82313744Y-94586795D01*
X82144226Y-94700063D01*
X82000063Y-94844226D01*
X81886795Y-95013744D01*
X81808774Y-95202102D01*
X81769000Y-95402061D01*
X81769000Y-95605939D01*
X81808774Y-95805898D01*
X81886795Y-95994256D01*
X81978500Y-96131503D01*
X81978501Y-96273198D01*
X81940122Y-96399715D01*
X81923178Y-96571750D01*
X81923178Y-97484250D01*
X81940122Y-97656285D01*
X81990303Y-97821709D01*
X82071792Y-97974164D01*
X82181458Y-98107792D01*
X82223250Y-98142090D01*
X82223251Y-100451440D01*
X82219256Y-100492000D01*
X82235195Y-100653826D01*
X82282397Y-100809433D01*
X82359051Y-100952842D01*
X82420613Y-101027854D01*
X82462210Y-101078541D01*
X82493711Y-101104393D01*
X82845352Y-101456034D01*
X82871209Y-101487541D01*
X82996908Y-101590699D01*
X83140316Y-101667353D01*
X83204197Y-101686731D01*
X83204712Y-101691962D01*
X83163750Y-101687928D01*
X81663750Y-101687928D01*
X81539268Y-101700188D01*
X81419570Y-101736498D01*
X81309256Y-101795463D01*
X81253769Y-101841000D01*
X81206711Y-101841000D01*
X81177774Y-101812063D01*
X81008256Y-101698795D01*
X80819898Y-101620774D01*
X80619939Y-101581000D01*
X80416061Y-101581000D01*
X80216102Y-101620774D01*
X80027744Y-101698795D01*
X79858226Y-101812063D01*
X79714063Y-101956226D01*
X79600795Y-102125744D01*
X79522774Y-102314102D01*
X79483000Y-102514061D01*
X79483000Y-102717939D01*
X79522774Y-102917898D01*
X79600795Y-103106256D01*
X79714063Y-103275774D01*
X79858226Y-103419937D01*
X80027744Y-103533205D01*
X80216102Y-103611226D01*
X80416061Y-103651000D01*
X80619939Y-103651000D01*
X80819898Y-103611226D01*
X81008256Y-103533205D01*
X81025678Y-103521564D01*
X81025678Y-103676000D01*
X81037938Y-103800482D01*
X81038095Y-103801000D01*
X81037938Y-103801518D01*
X81025678Y-103926000D01*
X81025678Y-104241000D01*
X73279000Y-104241000D01*
X73279000Y-86131000D01*
X103507039Y-86131000D01*
X103481401Y-86178966D01*
G36*
X90678776Y-113725276D02*
G01*
X90717763Y-113772781D01*
X90773749Y-113841001D01*
X90802750Y-113864802D01*
X90824950Y-113887002D01*
X90848750Y-113916002D01*
X90964475Y-114010975D01*
X91096504Y-114081547D01*
X91239765Y-114125004D01*
X91351418Y-114136001D01*
X91351428Y-114136001D01*
X91388750Y-114139677D01*
X91426073Y-114136001D01*
X91548550Y-114136001D01*
X94300006Y-116887458D01*
X94296000Y-116887428D01*
X94171518Y-116899688D01*
X94051820Y-116935998D01*
X93941506Y-116994963D01*
X93844815Y-117074315D01*
X93765463Y-117171006D01*
X93706498Y-117281320D01*
X93670188Y-117401018D01*
X93657928Y-117525500D01*
X93661000Y-117727250D01*
X93819750Y-117886000D01*
X94869000Y-117886000D01*
X94869000Y-117866000D01*
X95123000Y-117866000D01*
X95123000Y-117886000D01*
X95143000Y-117886000D01*
X95143000Y-118140000D01*
X95123000Y-118140000D01*
X95123000Y-118160000D01*
X94869000Y-118160000D01*
X94869000Y-118140000D01*
X93819750Y-118140000D01*
X93661000Y-118298750D01*
X93657928Y-118500500D01*
X93670188Y-118624982D01*
X93706498Y-118744680D01*
X93765463Y-118854994D01*
X93844815Y-118951685D01*
X93922564Y-119015492D01*
X93916208Y-119020708D01*
X93828155Y-119128000D01*
X91779376Y-119128000D01*
X91781504Y-119120985D01*
X91792501Y-119009332D01*
X91792501Y-119009322D01*
X91796177Y-118971999D01*
X91792501Y-118934676D01*
X91792501Y-115457073D01*
X91796177Y-115419750D01*
X91792501Y-115382427D01*
X91792501Y-115382418D01*
X91781504Y-115270765D01*
X91738047Y-115127504D01*
X91667475Y-114995475D01*
X91654312Y-114979436D01*
X91596300Y-114908747D01*
X91596296Y-114908743D01*
X91572502Y-114879750D01*
X91543509Y-114855956D01*
X90376624Y-113689072D01*
X90659424Y-113689072D01*
X90678776Y-113725276D01*
X90678776Y-113725276D01*
G37*
X90678776Y-113725276D02*
X90717763Y-113772781D01*
X90773749Y-113841001D01*
X90802750Y-113864802D01*
X90824950Y-113887002D01*
X90848750Y-113916002D01*
X90964475Y-114010975D01*
X91096504Y-114081547D01*
X91239765Y-114125004D01*
X91351418Y-114136001D01*
X91351428Y-114136001D01*
X91388750Y-114139677D01*
X91426073Y-114136001D01*
X91548550Y-114136001D01*
X94300006Y-116887458D01*
X94296000Y-116887428D01*
X94171518Y-116899688D01*
X94051820Y-116935998D01*
X93941506Y-116994963D01*
X93844815Y-117074315D01*
X93765463Y-117171006D01*
X93706498Y-117281320D01*
X93670188Y-117401018D01*
X93657928Y-117525500D01*
X93661000Y-117727250D01*
X93819750Y-117886000D01*
X94869000Y-117886000D01*
X94869000Y-117866000D01*
X95123000Y-117866000D01*
X95123000Y-117886000D01*
X95143000Y-117886000D01*
X95143000Y-118140000D01*
X95123000Y-118140000D01*
X95123000Y-118160000D01*
X94869000Y-118160000D01*
X94869000Y-118140000D01*
X93819750Y-118140000D01*
X93661000Y-118298750D01*
X93657928Y-118500500D01*
X93670188Y-118624982D01*
X93706498Y-118744680D01*
X93765463Y-118854994D01*
X93844815Y-118951685D01*
X93922564Y-119015492D01*
X93916208Y-119020708D01*
X93828155Y-119128000D01*
X91779376Y-119128000D01*
X91781504Y-119120985D01*
X91792501Y-119009332D01*
X91792501Y-119009322D01*
X91796177Y-118971999D01*
X91792501Y-118934676D01*
X91792501Y-115457073D01*
X91796177Y-115419750D01*
X91792501Y-115382427D01*
X91792501Y-115382418D01*
X91781504Y-115270765D01*
X91738047Y-115127504D01*
X91667475Y-114995475D01*
X91654312Y-114979436D01*
X91596300Y-114908747D01*
X91596296Y-114908743D01*
X91572502Y-114879750D01*
X91543509Y-114855956D01*
X90376624Y-113689072D01*
X90659424Y-113689072D01*
X90678776Y-113725276D01*
G36*
X90272502Y-115734555D02*
G01*
X90272502Y-116982748D01*
X90134500Y-117120750D01*
X90134500Y-118070000D01*
X90154500Y-118070000D01*
X90154500Y-118324000D01*
X90134500Y-118324000D01*
X90134500Y-118344000D01*
X89880500Y-118344000D01*
X89880500Y-118324000D01*
X89860500Y-118324000D01*
X89860500Y-118070000D01*
X89880500Y-118070000D01*
X89880500Y-117120750D01*
X89721750Y-116962000D01*
X89307500Y-116958928D01*
X89183018Y-116971188D01*
X89063320Y-117007498D01*
X88953006Y-117066463D01*
X88907500Y-117103809D01*
X88873929Y-117076258D01*
X88877426Y-117040750D01*
X88873750Y-117003427D01*
X88873750Y-114335801D01*
X90272502Y-115734555D01*
X90272502Y-115734555D01*
G37*
X90272502Y-115734555D02*
X90272502Y-116982748D01*
X90134500Y-117120750D01*
X90134500Y-118070000D01*
X90154500Y-118070000D01*
X90154500Y-118324000D01*
X90134500Y-118324000D01*
X90134500Y-118344000D01*
X89880500Y-118344000D01*
X89880500Y-118324000D01*
X89860500Y-118324000D01*
X89860500Y-118070000D01*
X89880500Y-118070000D01*
X89880500Y-117120750D01*
X89721750Y-116962000D01*
X89307500Y-116958928D01*
X89183018Y-116971188D01*
X89063320Y-117007498D01*
X88953006Y-117066463D01*
X88907500Y-117103809D01*
X88873929Y-117076258D01*
X88877426Y-117040750D01*
X88873750Y-117003427D01*
X88873750Y-114335801D01*
X90272502Y-115734555D01*
G36*
X110041928Y-100101250D02*
G01*
X110058872Y-100273285D01*
X110109053Y-100438709D01*
X110190542Y-100591164D01*
X110300208Y-100724792D01*
X110433836Y-100834458D01*
X110567924Y-100906130D01*
X110510774Y-101044102D01*
X110471000Y-101244061D01*
X110471000Y-101447939D01*
X110510774Y-101647898D01*
X110588795Y-101836256D01*
X110702063Y-102005774D01*
X110846226Y-102149937D01*
X111015744Y-102263205D01*
X111089915Y-102293928D01*
X110911250Y-102293928D01*
X110739215Y-102310872D01*
X110573791Y-102361053D01*
X110421336Y-102442542D01*
X110287708Y-102552208D01*
X110178042Y-102685836D01*
X110096553Y-102838291D01*
X110046372Y-103003715D01*
X110029428Y-103175750D01*
X110029428Y-103682770D01*
X106434689Y-107277510D01*
X100857000Y-107277510D01*
X100857000Y-107086061D01*
X100817226Y-106886102D01*
X100739205Y-106697744D01*
X100625937Y-106528226D01*
X100481774Y-106384063D01*
X100312256Y-106270795D01*
X100123898Y-106192774D01*
X99923939Y-106153000D01*
X99720061Y-106153000D01*
X99520102Y-106192774D01*
X99518414Y-106193473D01*
X99450458Y-106066336D01*
X99340792Y-105932708D01*
X99207164Y-105823042D01*
X99091092Y-105761000D01*
X103456678Y-105761000D01*
X103494000Y-105764676D01*
X103531322Y-105761000D01*
X103531333Y-105761000D01*
X103642986Y-105750003D01*
X103786247Y-105706546D01*
X103918276Y-105635974D01*
X104034001Y-105541001D01*
X104057804Y-105511997D01*
X108659230Y-100910572D01*
X109166250Y-100910572D01*
X109338285Y-100893628D01*
X109503709Y-100843447D01*
X109656164Y-100761958D01*
X109789792Y-100652292D01*
X109899458Y-100518664D01*
X109980947Y-100366209D01*
X110031128Y-100200785D01*
X110041928Y-100091131D01*
X110041928Y-100101250D01*
X110041928Y-100101250D01*
G37*
X110041928Y-100101250D02*
X110058872Y-100273285D01*
X110109053Y-100438709D01*
X110190542Y-100591164D01*
X110300208Y-100724792D01*
X110433836Y-100834458D01*
X110567924Y-100906130D01*
X110510774Y-101044102D01*
X110471000Y-101244061D01*
X110471000Y-101447939D01*
X110510774Y-101647898D01*
X110588795Y-101836256D01*
X110702063Y-102005774D01*
X110846226Y-102149937D01*
X111015744Y-102263205D01*
X111089915Y-102293928D01*
X110911250Y-102293928D01*
X110739215Y-102310872D01*
X110573791Y-102361053D01*
X110421336Y-102442542D01*
X110287708Y-102552208D01*
X110178042Y-102685836D01*
X110096553Y-102838291D01*
X110046372Y-103003715D01*
X110029428Y-103175750D01*
X110029428Y-103682770D01*
X106434689Y-107277510D01*
X100857000Y-107277510D01*
X100857000Y-107086061D01*
X100817226Y-106886102D01*
X100739205Y-106697744D01*
X100625937Y-106528226D01*
X100481774Y-106384063D01*
X100312256Y-106270795D01*
X100123898Y-106192774D01*
X99923939Y-106153000D01*
X99720061Y-106153000D01*
X99520102Y-106192774D01*
X99518414Y-106193473D01*
X99450458Y-106066336D01*
X99340792Y-105932708D01*
X99207164Y-105823042D01*
X99091092Y-105761000D01*
X103456678Y-105761000D01*
X103494000Y-105764676D01*
X103531322Y-105761000D01*
X103531333Y-105761000D01*
X103642986Y-105750003D01*
X103786247Y-105706546D01*
X103918276Y-105635974D01*
X104034001Y-105541001D01*
X104057804Y-105511997D01*
X108659230Y-100910572D01*
X109166250Y-100910572D01*
X109338285Y-100893628D01*
X109503709Y-100843447D01*
X109656164Y-100761958D01*
X109789792Y-100652292D01*
X109899458Y-100518664D01*
X109980947Y-100366209D01*
X110031128Y-100200785D01*
X110041928Y-100091131D01*
X110041928Y-100101250D01*
G36*
X96725500Y-106885500D02*
G01*
X96745500Y-106885500D01*
X96745500Y-107139500D01*
X96725500Y-107139500D01*
X96725500Y-107159500D01*
X96471500Y-107159500D01*
X96471500Y-107139500D01*
X96451500Y-107139500D01*
X96451500Y-106885500D01*
X96471500Y-106885500D01*
X96471500Y-106865500D01*
X96725500Y-106865500D01*
X96725500Y-106885500D01*
X96725500Y-106885500D01*
G37*
X96725500Y-106885500D02*
X96745500Y-106885500D01*
X96745500Y-107139500D01*
X96725500Y-107139500D01*
X96725500Y-107159500D01*
X96471500Y-107159500D01*
X96471500Y-107139500D01*
X96451500Y-107139500D01*
X96451500Y-106885500D01*
X96471500Y-106885500D01*
X96471500Y-106865500D01*
X96725500Y-106865500D01*
X96725500Y-106885500D01*
G36*
X95756506Y-105781963D02*
G01*
X95659815Y-105861315D01*
X95580463Y-105958006D01*
X95521498Y-106068320D01*
X95485188Y-106188018D01*
X95472928Y-106312500D01*
X95473398Y-106375845D01*
X95197630Y-106100077D01*
X95198750Y-106086750D01*
X95106667Y-105994667D01*
X95094287Y-105971506D01*
X95014935Y-105874815D01*
X94924991Y-105801000D01*
X94973731Y-105761000D01*
X95795724Y-105761000D01*
X95756506Y-105781963D01*
X95756506Y-105781963D01*
G37*
X95756506Y-105781963D02*
X95659815Y-105861315D01*
X95580463Y-105958006D01*
X95521498Y-106068320D01*
X95485188Y-106188018D01*
X95472928Y-106312500D01*
X95473398Y-106375845D01*
X95197630Y-106100077D01*
X95198750Y-106086750D01*
X95106667Y-105994667D01*
X95094287Y-105971506D01*
X95014935Y-105874815D01*
X94924991Y-105801000D01*
X94973731Y-105761000D01*
X95795724Y-105761000D01*
X95756506Y-105781963D01*
G36*
X97739836Y-105823042D02*
G01*
X97606208Y-105932708D01*
X97600992Y-105939064D01*
X97537185Y-105861315D01*
X97440494Y-105781963D01*
X97401276Y-105761000D01*
X97855908Y-105761000D01*
X97739836Y-105823042D01*
X97739836Y-105823042D01*
G37*
X97739836Y-105823042D02*
X97606208Y-105932708D01*
X97600992Y-105939064D01*
X97537185Y-105861315D01*
X97440494Y-105781963D01*
X97401276Y-105761000D01*
X97855908Y-105761000D01*
X97739836Y-105823042D01*
M02*
