M48
; DRILL file {KiCad (5.1.4)-1} date 10/15/2022 1:05:22 PM
; FORMAT={-:-/ absolute / inch / decimal}
; #@! TF.CreationDate,2022-10-15T13:05:22-05:00
; #@! TF.GenerationSoftware,Kicad,Pcbnew,(5.1.4)-1
; #@! TF.FileFunction,Plated,1,2,PTH
FMAT,2
INCH
T1C0.0157
T2C0.0276
T3C0.0579
%
G90
G05
T1
X3.03Y-4.3
X3.17Y-4.04
X3.26Y-3.76
X3.66Y-3.76
X3.74Y-4.48
X3.93Y-4.22
X3.93Y-4.29
X4.04Y-4.07
X4.29Y-4.3
X4.39Y-3.99
T3
X1.6Y-4.39
X1.6516Y-4.3325
X1.8484Y-4.3128
X1.85Y-4.29
X2.35Y-3.64
X2.4016Y-3.5825
X2.5984Y-3.5628
X2.6Y-3.54
X1.6Y-3.6396
X1.6516Y-3.5821
X1.8484Y-3.5624
X1.85Y-3.5396
X2.35Y-4.39
X2.4016Y-4.3325
X2.5984Y-4.3128
X2.6Y-4.29
T2
G00X4.1283Y-3.4114
M15
G01X4.1283Y-3.4587
M16
G05
G00X4.1283Y-3.5886
M15
G01X4.1283Y-3.6358
M16
G05
G00X4.4157Y-3.4114
M15
G01X4.4157Y-3.4587
M16
G05
G00X4.4157Y-3.5886
M15
G01X4.4157Y-3.6358
M16
G05
T0
M30
