G04 #@! TF.GenerationSoftware,KiCad,Pcbnew,(5.1.4)-1*
G04 #@! TF.CreationDate,2022-10-15T13:05:20-05:00*
G04 #@! TF.ProjectId,ai03-guide,61693033-2d67-4756-9964-652e6b696361,rev?*
G04 #@! TF.SameCoordinates,Original*
G04 #@! TF.FileFunction,Soldermask,Bot*
G04 #@! TF.FilePolarity,Negative*
%FSLAX46Y46*%
G04 Gerber Fmt 4.6, Leading zero omitted, Abs format (unit mm)*
G04 Created by KiCad (PCBNEW (5.1.4)-1) date 2022-10-15 13:05:20*
%MOMM*%
%LPD*%
G04 APERTURE LIST*
%ADD10C,0.100000*%
G04 APERTURE END LIST*
D10*
G36*
X51046000Y-123206000D02*
G01*
X50044000Y-123206000D01*
X50044000Y-121904000D01*
X51046000Y-121904000D01*
X51046000Y-123206000D01*
X51046000Y-123206000D01*
G37*
G36*
X47746000Y-123206000D02*
G01*
X46744000Y-123206000D01*
X46744000Y-121904000D01*
X47746000Y-121904000D01*
X47746000Y-123206000D01*
X47746000Y-123206000D01*
G37*
G36*
X63241000Y-123079000D02*
G01*
X62239000Y-123079000D01*
X62239000Y-121777000D01*
X63241000Y-121777000D01*
X63241000Y-123079000D01*
X63241000Y-123079000D01*
G37*
G36*
X66541000Y-123079000D02*
G01*
X65539000Y-123079000D01*
X65539000Y-121777000D01*
X66541000Y-121777000D01*
X66541000Y-123079000D01*
X66541000Y-123079000D01*
G37*
G36*
X113771000Y-120671000D02*
G01*
X111869000Y-120671000D01*
X111869000Y-119469000D01*
X113771000Y-119469000D01*
X113771000Y-120671000D01*
X113771000Y-120671000D01*
G37*
G36*
X107571000Y-120671000D02*
G01*
X105669000Y-120671000D01*
X105669000Y-119469000D01*
X107571000Y-119469000D01*
X107571000Y-120671000D01*
X107571000Y-120671000D01*
G37*
G36*
X88558500Y-120548000D02*
G01*
X87056500Y-120548000D01*
X87056500Y-119246000D01*
X88558500Y-119246000D01*
X88558500Y-120548000D01*
X88558500Y-120548000D01*
G37*
G36*
X90758500Y-120548000D02*
G01*
X89256500Y-120548000D01*
X89256500Y-119246000D01*
X90758500Y-119246000D01*
X90758500Y-120548000D01*
X90758500Y-120548000D01*
G37*
G36*
X95580468Y-119354065D02*
G01*
X95619138Y-119365796D01*
X95654777Y-119384846D01*
X95686017Y-119410483D01*
X95711654Y-119441723D01*
X95730704Y-119477362D01*
X95742435Y-119516032D01*
X95747000Y-119562388D01*
X95747000Y-120213612D01*
X95742435Y-120259968D01*
X95730704Y-120298638D01*
X95711654Y-120334277D01*
X95686017Y-120365517D01*
X95654777Y-120391154D01*
X95619138Y-120410204D01*
X95580468Y-120421935D01*
X95534112Y-120426500D01*
X94457888Y-120426500D01*
X94411532Y-120421935D01*
X94372862Y-120410204D01*
X94337223Y-120391154D01*
X94305983Y-120365517D01*
X94280346Y-120334277D01*
X94261296Y-120298638D01*
X94249565Y-120259968D01*
X94245000Y-120213612D01*
X94245000Y-119562388D01*
X94249565Y-119516032D01*
X94261296Y-119477362D01*
X94280346Y-119441723D01*
X94305983Y-119410483D01*
X94337223Y-119384846D01*
X94372862Y-119365796D01*
X94411532Y-119354065D01*
X94457888Y-119349500D01*
X95534112Y-119349500D01*
X95580468Y-119354065D01*
X95580468Y-119354065D01*
G37*
G36*
X84150468Y-119354065D02*
G01*
X84189138Y-119365796D01*
X84224777Y-119384846D01*
X84256017Y-119410483D01*
X84281654Y-119441723D01*
X84300704Y-119477362D01*
X84312435Y-119516032D01*
X84317000Y-119562388D01*
X84317000Y-120213612D01*
X84312435Y-120259968D01*
X84300704Y-120298638D01*
X84281654Y-120334277D01*
X84256017Y-120365517D01*
X84224777Y-120391154D01*
X84189138Y-120410204D01*
X84150468Y-120421935D01*
X84104112Y-120426500D01*
X83027888Y-120426500D01*
X82981532Y-120421935D01*
X82942862Y-120410204D01*
X82907223Y-120391154D01*
X82875983Y-120365517D01*
X82850346Y-120334277D01*
X82831296Y-120298638D01*
X82819565Y-120259968D01*
X82815000Y-120213612D01*
X82815000Y-119562388D01*
X82819565Y-119516032D01*
X82831296Y-119477362D01*
X82850346Y-119441723D01*
X82875983Y-119410483D01*
X82907223Y-119384846D01*
X82942862Y-119365796D01*
X82981532Y-119354065D01*
X83027888Y-119349500D01*
X84104112Y-119349500D01*
X84150468Y-119354065D01*
X84150468Y-119354065D01*
G37*
G36*
X90758500Y-118848000D02*
G01*
X89256500Y-118848000D01*
X89256500Y-117546000D01*
X90758500Y-117546000D01*
X90758500Y-118848000D01*
X90758500Y-118848000D01*
G37*
G36*
X88558500Y-118848000D02*
G01*
X87056500Y-118848000D01*
X87056500Y-117546000D01*
X88558500Y-117546000D01*
X88558500Y-118848000D01*
X88558500Y-118848000D01*
G37*
G36*
X95580468Y-117479065D02*
G01*
X95619138Y-117490796D01*
X95654777Y-117509846D01*
X95686017Y-117535483D01*
X95711654Y-117566723D01*
X95730704Y-117602362D01*
X95742435Y-117641032D01*
X95747000Y-117687388D01*
X95747000Y-118338612D01*
X95742435Y-118384968D01*
X95730704Y-118423638D01*
X95711654Y-118459277D01*
X95686017Y-118490517D01*
X95654777Y-118516154D01*
X95619138Y-118535204D01*
X95580468Y-118546935D01*
X95534112Y-118551500D01*
X94457888Y-118551500D01*
X94411532Y-118546935D01*
X94372862Y-118535204D01*
X94337223Y-118516154D01*
X94305983Y-118490517D01*
X94280346Y-118459277D01*
X94261296Y-118423638D01*
X94249565Y-118384968D01*
X94245000Y-118338612D01*
X94245000Y-117687388D01*
X94249565Y-117641032D01*
X94261296Y-117602362D01*
X94280346Y-117566723D01*
X94305983Y-117535483D01*
X94337223Y-117509846D01*
X94372862Y-117490796D01*
X94411532Y-117479065D01*
X94457888Y-117474500D01*
X95534112Y-117474500D01*
X95580468Y-117479065D01*
X95580468Y-117479065D01*
G37*
G36*
X84150468Y-117479065D02*
G01*
X84189138Y-117490796D01*
X84224777Y-117509846D01*
X84256017Y-117535483D01*
X84281654Y-117566723D01*
X84300704Y-117602362D01*
X84312435Y-117641032D01*
X84317000Y-117687388D01*
X84317000Y-118338612D01*
X84312435Y-118384968D01*
X84300704Y-118423638D01*
X84281654Y-118459277D01*
X84256017Y-118490517D01*
X84224777Y-118516154D01*
X84189138Y-118535204D01*
X84150468Y-118546935D01*
X84104112Y-118551500D01*
X83027888Y-118551500D01*
X82981532Y-118546935D01*
X82942862Y-118535204D01*
X82907223Y-118516154D01*
X82875983Y-118490517D01*
X82850346Y-118459277D01*
X82831296Y-118423638D01*
X82819565Y-118384968D01*
X82815000Y-118338612D01*
X82815000Y-117687388D01*
X82819565Y-117641032D01*
X82831296Y-117602362D01*
X82850346Y-117566723D01*
X82875983Y-117535483D01*
X82907223Y-117509846D01*
X82942862Y-117490796D01*
X82981532Y-117479065D01*
X83027888Y-117474500D01*
X84104112Y-117474500D01*
X84150468Y-117479065D01*
X84150468Y-117479065D01*
G37*
G36*
X113771000Y-116971000D02*
G01*
X111869000Y-116971000D01*
X111869000Y-115769000D01*
X113771000Y-115769000D01*
X113771000Y-116971000D01*
X113771000Y-116971000D01*
G37*
G36*
X107571000Y-116971000D02*
G01*
X105669000Y-116971000D01*
X105669000Y-115769000D01*
X107571000Y-115769000D01*
X107571000Y-116971000D01*
X107571000Y-116971000D01*
G37*
G36*
X64096474Y-112079684D02*
G01*
X64314474Y-112169983D01*
X64468623Y-112233833D01*
X64803548Y-112457623D01*
X65088377Y-112742452D01*
X65312167Y-113077377D01*
X65344562Y-113155586D01*
X65466316Y-113449526D01*
X65544900Y-113844594D01*
X65544900Y-114247406D01*
X65466316Y-114642474D01*
X65415451Y-114765272D01*
X65312167Y-115014623D01*
X65088377Y-115349548D01*
X64803548Y-115634377D01*
X64468623Y-115858167D01*
X64314474Y-115922017D01*
X64096474Y-116012316D01*
X63701406Y-116090900D01*
X63298594Y-116090900D01*
X62903526Y-116012316D01*
X62685526Y-115922017D01*
X62531377Y-115858167D01*
X62196452Y-115634377D01*
X61911623Y-115349548D01*
X61687833Y-115014623D01*
X61584549Y-114765272D01*
X61533684Y-114642474D01*
X61455100Y-114247406D01*
X61455100Y-113844594D01*
X61533684Y-113449526D01*
X61655438Y-113155586D01*
X61687833Y-113077377D01*
X61911623Y-112742452D01*
X62196452Y-112457623D01*
X62531377Y-112233833D01*
X62685526Y-112169983D01*
X62903526Y-112079684D01*
X63298594Y-112001100D01*
X63701406Y-112001100D01*
X64096474Y-112079684D01*
X64096474Y-112079684D01*
G37*
G36*
X45046474Y-112079684D02*
G01*
X45264474Y-112169983D01*
X45418623Y-112233833D01*
X45753548Y-112457623D01*
X46038377Y-112742452D01*
X46262167Y-113077377D01*
X46294562Y-113155586D01*
X46416316Y-113449526D01*
X46494900Y-113844594D01*
X46494900Y-114247406D01*
X46416316Y-114642474D01*
X46365451Y-114765272D01*
X46262167Y-115014623D01*
X46038377Y-115349548D01*
X45753548Y-115634377D01*
X45418623Y-115858167D01*
X45264474Y-115922017D01*
X45046474Y-116012316D01*
X44651406Y-116090900D01*
X44248594Y-116090900D01*
X43853526Y-116012316D01*
X43635526Y-115922017D01*
X43481377Y-115858167D01*
X43146452Y-115634377D01*
X42861623Y-115349548D01*
X42637833Y-115014623D01*
X42534549Y-114765272D01*
X42483684Y-114642474D01*
X42405100Y-114247406D01*
X42405100Y-113844594D01*
X42483684Y-113449526D01*
X42605438Y-113155586D01*
X42637833Y-113077377D01*
X42861623Y-112742452D01*
X43146452Y-112457623D01*
X43481377Y-112233833D01*
X43635526Y-112169983D01*
X43853526Y-112079684D01*
X44248594Y-112001100D01*
X44651406Y-112001100D01*
X45046474Y-112079684D01*
X45046474Y-112079684D01*
G37*
G36*
X39640104Y-113155585D02*
G01*
X39808626Y-113225389D01*
X39960291Y-113326728D01*
X40089272Y-113455709D01*
X40190611Y-113607374D01*
X40260415Y-113775896D01*
X40296000Y-113954797D01*
X40296000Y-114137203D01*
X40260415Y-114316104D01*
X40190611Y-114484626D01*
X40089272Y-114636291D01*
X39960291Y-114765272D01*
X39808626Y-114866611D01*
X39640104Y-114936415D01*
X39461203Y-114972000D01*
X39278797Y-114972000D01*
X39099896Y-114936415D01*
X38931374Y-114866611D01*
X38779709Y-114765272D01*
X38650728Y-114636291D01*
X38549389Y-114484626D01*
X38479585Y-114316104D01*
X38444000Y-114137203D01*
X38444000Y-113954797D01*
X38479585Y-113775896D01*
X38549389Y-113607374D01*
X38650728Y-113455709D01*
X38779709Y-113326728D01*
X38931374Y-113225389D01*
X39099896Y-113155585D01*
X39278797Y-113120000D01*
X39461203Y-113120000D01*
X39640104Y-113155585D01*
X39640104Y-113155585D01*
G37*
G36*
X58690104Y-113155585D02*
G01*
X58858626Y-113225389D01*
X59010291Y-113326728D01*
X59139272Y-113455709D01*
X59240611Y-113607374D01*
X59310415Y-113775896D01*
X59346000Y-113954797D01*
X59346000Y-114137203D01*
X59310415Y-114316104D01*
X59240611Y-114484626D01*
X59139272Y-114636291D01*
X59010291Y-114765272D01*
X58858626Y-114866611D01*
X58690104Y-114936415D01*
X58511203Y-114972000D01*
X58328797Y-114972000D01*
X58149896Y-114936415D01*
X57981374Y-114866611D01*
X57829709Y-114765272D01*
X57700728Y-114636291D01*
X57599389Y-114484626D01*
X57529585Y-114316104D01*
X57494000Y-114137203D01*
X57494000Y-113954797D01*
X57529585Y-113775896D01*
X57599389Y-113607374D01*
X57700728Y-113455709D01*
X57829709Y-113326728D01*
X57981374Y-113225389D01*
X58149896Y-113155585D01*
X58328797Y-113120000D01*
X58511203Y-113120000D01*
X58690104Y-113155585D01*
X58690104Y-113155585D01*
G37*
G36*
X68850104Y-113155585D02*
G01*
X69018626Y-113225389D01*
X69170291Y-113326728D01*
X69299272Y-113455709D01*
X69400611Y-113607374D01*
X69470415Y-113775896D01*
X69506000Y-113954797D01*
X69506000Y-114137203D01*
X69470415Y-114316104D01*
X69400611Y-114484626D01*
X69299272Y-114636291D01*
X69170291Y-114765272D01*
X69018626Y-114866611D01*
X68850104Y-114936415D01*
X68671203Y-114972000D01*
X68488797Y-114972000D01*
X68309896Y-114936415D01*
X68141374Y-114866611D01*
X67989709Y-114765272D01*
X67860728Y-114636291D01*
X67759389Y-114484626D01*
X67689585Y-114316104D01*
X67654000Y-114137203D01*
X67654000Y-113954797D01*
X67689585Y-113775896D01*
X67759389Y-113607374D01*
X67860728Y-113455709D01*
X67989709Y-113326728D01*
X68141374Y-113225389D01*
X68309896Y-113155585D01*
X68488797Y-113120000D01*
X68671203Y-113120000D01*
X68850104Y-113155585D01*
X68850104Y-113155585D01*
G37*
G36*
X49800104Y-113155585D02*
G01*
X49968626Y-113225389D01*
X50120291Y-113326728D01*
X50249272Y-113455709D01*
X50350611Y-113607374D01*
X50420415Y-113775896D01*
X50456000Y-113954797D01*
X50456000Y-114137203D01*
X50420415Y-114316104D01*
X50350611Y-114484626D01*
X50249272Y-114636291D01*
X50120291Y-114765272D01*
X49968626Y-114866611D01*
X49800104Y-114936415D01*
X49621203Y-114972000D01*
X49438797Y-114972000D01*
X49259896Y-114936415D01*
X49091374Y-114866611D01*
X48939709Y-114765272D01*
X48810728Y-114636291D01*
X48709389Y-114484626D01*
X48639585Y-114316104D01*
X48604000Y-114137203D01*
X48604000Y-113954797D01*
X48639585Y-113775896D01*
X48709389Y-113607374D01*
X48810728Y-113455709D01*
X48939709Y-113326728D01*
X49091374Y-113225389D01*
X49259896Y-113155585D01*
X49438797Y-113120000D01*
X49621203Y-113120000D01*
X49800104Y-113155585D01*
X49800104Y-113155585D01*
G37*
G36*
X92439750Y-113102000D02*
G01*
X83787750Y-113102000D01*
X83787750Y-111500000D01*
X92439750Y-111500000D01*
X92439750Y-113102000D01*
X92439750Y-113102000D01*
G37*
G36*
X41973205Y-108869881D02*
G01*
X41978645Y-108870000D01*
X42065828Y-108870000D01*
X42082097Y-108873236D01*
X42100956Y-108875515D01*
X42117532Y-108876246D01*
X42202223Y-108897010D01*
X42207518Y-108898184D01*
X42293027Y-108915193D01*
X42308362Y-108921545D01*
X42326401Y-108927455D01*
X42342521Y-108931407D01*
X42421504Y-108968280D01*
X42426494Y-108970477D01*
X42507045Y-109003842D01*
X42520841Y-109013060D01*
X42537393Y-109022382D01*
X42552426Y-109029400D01*
X42622694Y-109080971D01*
X42627192Y-109084122D01*
X42699656Y-109132541D01*
X42711383Y-109144268D01*
X42725809Y-109156648D01*
X42739179Y-109166461D01*
X42739180Y-109166462D01*
X42798021Y-109230733D01*
X42801829Y-109234714D01*
X42863459Y-109296344D01*
X42872674Y-109310135D01*
X42884396Y-109325078D01*
X42895605Y-109337321D01*
X42940799Y-109411874D01*
X42943746Y-109416501D01*
X42992158Y-109488955D01*
X42998505Y-109504277D01*
X43007092Y-109521231D01*
X43015691Y-109535417D01*
X43045478Y-109617368D01*
X43047452Y-109622448D01*
X43078547Y-109697517D01*
X43080807Y-109702974D01*
X43084041Y-109719233D01*
X43089158Y-109737542D01*
X43094825Y-109753134D01*
X43108055Y-109839345D01*
X43109001Y-109844713D01*
X43126000Y-109930173D01*
X43126000Y-109946752D01*
X43127444Y-109965692D01*
X43129963Y-109982104D01*
X43126120Y-110069249D01*
X43126000Y-110074689D01*
X43126000Y-110161825D01*
X43122766Y-110178083D01*
X43120488Y-110196941D01*
X43119756Y-110213531D01*
X43098988Y-110298237D01*
X43097812Y-110303537D01*
X43080807Y-110389027D01*
X43074457Y-110404357D01*
X43068549Y-110422393D01*
X43064595Y-110438520D01*
X43027711Y-110517526D01*
X43025511Y-110522523D01*
X42992158Y-110603045D01*
X42982944Y-110616835D01*
X42973622Y-110633387D01*
X42966602Y-110648424D01*
X42915011Y-110718720D01*
X42911866Y-110723210D01*
X42863461Y-110795654D01*
X42806460Y-110852655D01*
X42801811Y-110857563D01*
X42370311Y-111338470D01*
X41476723Y-112334376D01*
X41348679Y-112451602D01*
X41249631Y-112511645D01*
X41150583Y-112571689D01*
X40932866Y-112650823D01*
X40703895Y-112685961D01*
X40472470Y-112675754D01*
X40247481Y-112620593D01*
X40142727Y-112571689D01*
X40037579Y-112522602D01*
X39940838Y-112451602D01*
X39850823Y-112385539D01*
X39776394Y-112304241D01*
X39694398Y-112214679D01*
X39612564Y-112079685D01*
X39574311Y-112016583D01*
X39495177Y-111798866D01*
X39460039Y-111569895D01*
X39470246Y-111338470D01*
X39525407Y-111113481D01*
X39576972Y-111003028D01*
X39623398Y-110903580D01*
X39623400Y-110903577D01*
X39726114Y-110763622D01*
X40481245Y-109922027D01*
X41012787Y-109329621D01*
X41023681Y-109315589D01*
X41036539Y-109296346D01*
X41093573Y-109239312D01*
X41098223Y-109234403D01*
X41113278Y-109217624D01*
X41134701Y-109198011D01*
X41138682Y-109194203D01*
X41200346Y-109132539D01*
X41214143Y-109123320D01*
X41229102Y-109111585D01*
X41241321Y-109100398D01*
X41273385Y-109080961D01*
X41315830Y-109055231D01*
X41320421Y-109052308D01*
X41392955Y-109003842D01*
X41408300Y-108997486D01*
X41425248Y-108988901D01*
X41439416Y-108980312D01*
X41439417Y-108980312D01*
X41439418Y-108980311D01*
X41521312Y-108950545D01*
X41526410Y-108948563D01*
X41606973Y-108915193D01*
X41623252Y-108911955D01*
X41641542Y-108906844D01*
X41657135Y-108901177D01*
X41743300Y-108887954D01*
X41748663Y-108887009D01*
X41834173Y-108870000D01*
X41850766Y-108870000D01*
X41869709Y-108868555D01*
X41886106Y-108866039D01*
X41973205Y-108869881D01*
X41973205Y-108869881D01*
G37*
G36*
X61023205Y-108869881D02*
G01*
X61028645Y-108870000D01*
X61115828Y-108870000D01*
X61132097Y-108873236D01*
X61150956Y-108875515D01*
X61167532Y-108876246D01*
X61252223Y-108897010D01*
X61257518Y-108898184D01*
X61343027Y-108915193D01*
X61358362Y-108921545D01*
X61376401Y-108927455D01*
X61392521Y-108931407D01*
X61471504Y-108968280D01*
X61476494Y-108970477D01*
X61557045Y-109003842D01*
X61570841Y-109013060D01*
X61587393Y-109022382D01*
X61602426Y-109029400D01*
X61672694Y-109080971D01*
X61677192Y-109084122D01*
X61749656Y-109132541D01*
X61761383Y-109144268D01*
X61775809Y-109156648D01*
X61789179Y-109166461D01*
X61789180Y-109166462D01*
X61848021Y-109230733D01*
X61851829Y-109234714D01*
X61913459Y-109296344D01*
X61922674Y-109310135D01*
X61934396Y-109325078D01*
X61945605Y-109337321D01*
X61990799Y-109411874D01*
X61993746Y-109416501D01*
X62042158Y-109488955D01*
X62048505Y-109504277D01*
X62057092Y-109521231D01*
X62065691Y-109535417D01*
X62095478Y-109617368D01*
X62097452Y-109622448D01*
X62128547Y-109697517D01*
X62130807Y-109702974D01*
X62134041Y-109719233D01*
X62139158Y-109737542D01*
X62144825Y-109753134D01*
X62158055Y-109839345D01*
X62159001Y-109844713D01*
X62176000Y-109930173D01*
X62176000Y-109946752D01*
X62177444Y-109965692D01*
X62179963Y-109982104D01*
X62176120Y-110069249D01*
X62176000Y-110074689D01*
X62176000Y-110161825D01*
X62172766Y-110178083D01*
X62170488Y-110196941D01*
X62169756Y-110213531D01*
X62148988Y-110298237D01*
X62147812Y-110303537D01*
X62130807Y-110389027D01*
X62124457Y-110404357D01*
X62118549Y-110422393D01*
X62114595Y-110438520D01*
X62077711Y-110517526D01*
X62075511Y-110522523D01*
X62042158Y-110603045D01*
X62032944Y-110616835D01*
X62023622Y-110633387D01*
X62016602Y-110648424D01*
X61965011Y-110718720D01*
X61961866Y-110723210D01*
X61913461Y-110795654D01*
X61856460Y-110852655D01*
X61851811Y-110857563D01*
X61420311Y-111338470D01*
X60526723Y-112334376D01*
X60398679Y-112451602D01*
X60299631Y-112511645D01*
X60200583Y-112571689D01*
X59982866Y-112650823D01*
X59753895Y-112685961D01*
X59522470Y-112675754D01*
X59297481Y-112620593D01*
X59192727Y-112571689D01*
X59087579Y-112522602D01*
X58990838Y-112451602D01*
X58900823Y-112385539D01*
X58826394Y-112304241D01*
X58744398Y-112214679D01*
X58662564Y-112079685D01*
X58624311Y-112016583D01*
X58545177Y-111798866D01*
X58510039Y-111569895D01*
X58520246Y-111338470D01*
X58575407Y-111113481D01*
X58626972Y-111003028D01*
X58673398Y-110903580D01*
X58673400Y-110903577D01*
X58776114Y-110763622D01*
X59531245Y-109922027D01*
X60062787Y-109329621D01*
X60073681Y-109315589D01*
X60086539Y-109296346D01*
X60143573Y-109239312D01*
X60148223Y-109234403D01*
X60163278Y-109217624D01*
X60184701Y-109198011D01*
X60188682Y-109194203D01*
X60250346Y-109132539D01*
X60264143Y-109123320D01*
X60279102Y-109111585D01*
X60291321Y-109100398D01*
X60323385Y-109080961D01*
X60365830Y-109055231D01*
X60370421Y-109052308D01*
X60442955Y-109003842D01*
X60458300Y-108997486D01*
X60475248Y-108988901D01*
X60489416Y-108980312D01*
X60489417Y-108980312D01*
X60489418Y-108980311D01*
X60571312Y-108950545D01*
X60576410Y-108948563D01*
X60656973Y-108915193D01*
X60673252Y-108911955D01*
X60691542Y-108906844D01*
X60707135Y-108901177D01*
X60793300Y-108887954D01*
X60798663Y-108887009D01*
X60884173Y-108870000D01*
X60900766Y-108870000D01*
X60919709Y-108868555D01*
X60936106Y-108866039D01*
X61023205Y-108869881D01*
X61023205Y-108869881D01*
G37*
G36*
X79324468Y-110561065D02*
G01*
X79363138Y-110572796D01*
X79398777Y-110591846D01*
X79430017Y-110617483D01*
X79455654Y-110648723D01*
X79474704Y-110684362D01*
X79486435Y-110723032D01*
X79491000Y-110769388D01*
X79491000Y-111420612D01*
X79486435Y-111466968D01*
X79474704Y-111505638D01*
X79455654Y-111541277D01*
X79430017Y-111572517D01*
X79398777Y-111598154D01*
X79363138Y-111617204D01*
X79324468Y-111628935D01*
X79278112Y-111633500D01*
X78201888Y-111633500D01*
X78155532Y-111628935D01*
X78116862Y-111617204D01*
X78081223Y-111598154D01*
X78049983Y-111572517D01*
X78024346Y-111541277D01*
X78005296Y-111505638D01*
X77993565Y-111466968D01*
X77989000Y-111420612D01*
X77989000Y-110769388D01*
X77993565Y-110723032D01*
X78005296Y-110684362D01*
X78024346Y-110648723D01*
X78049983Y-110617483D01*
X78081223Y-110591846D01*
X78116862Y-110572796D01*
X78155532Y-110561065D01*
X78201888Y-110556500D01*
X79278112Y-110556500D01*
X79324468Y-110561065D01*
X79324468Y-110561065D01*
G37*
G36*
X83214750Y-110927000D02*
G01*
X81612750Y-110927000D01*
X81612750Y-102275000D01*
X83214750Y-102275000D01*
X83214750Y-110927000D01*
X83214750Y-110927000D01*
G37*
G36*
X94614750Y-110927000D02*
G01*
X93012750Y-110927000D01*
X93012750Y-102275000D01*
X94614750Y-102275000D01*
X94614750Y-110927000D01*
X94614750Y-110927000D01*
G37*
G36*
X66128127Y-107788261D02*
G01*
X66148900Y-107790000D01*
X66155827Y-107790000D01*
X66250754Y-107808882D01*
X66254348Y-107809542D01*
X66349730Y-107825624D01*
X66356203Y-107828085D01*
X66376228Y-107833841D01*
X66383027Y-107835193D01*
X66445414Y-107861034D01*
X66472443Y-107872230D01*
X66475844Y-107873581D01*
X66566255Y-107907961D01*
X66572127Y-107911640D01*
X66590636Y-107921187D01*
X66597045Y-107923842D01*
X66677563Y-107977642D01*
X66680554Y-107979578D01*
X66762557Y-108030959D01*
X66767584Y-108035700D01*
X66783896Y-108048691D01*
X66789652Y-108052537D01*
X66858110Y-108120995D01*
X66860689Y-108123499D01*
X66931090Y-108189889D01*
X66935095Y-108195519D01*
X66948559Y-108211444D01*
X66953459Y-108216344D01*
X67007244Y-108296839D01*
X67009291Y-108299807D01*
X67065380Y-108378645D01*
X67068214Y-108384958D01*
X67078308Y-108403193D01*
X67082158Y-108408955D01*
X67119220Y-108498430D01*
X67120624Y-108501685D01*
X67160265Y-108589973D01*
X67161815Y-108596725D01*
X67168152Y-108616562D01*
X67170807Y-108622973D01*
X67185690Y-108697796D01*
X67189692Y-108717917D01*
X67190438Y-108721401D01*
X67212098Y-108815751D01*
X67212098Y-108815754D01*
X67212300Y-108822654D01*
X67214647Y-108843370D01*
X67216000Y-108850174D01*
X67216000Y-108946986D01*
X67216053Y-108950584D01*
X67217188Y-108989277D01*
X67216295Y-109002225D01*
X67216000Y-109010797D01*
X67216000Y-109081826D01*
X67210081Y-109111585D01*
X67209604Y-109113979D01*
X67207500Y-109129750D01*
X67169238Y-109684545D01*
X67140376Y-109855730D01*
X67058038Y-110072255D01*
X66935041Y-110268557D01*
X66776111Y-110437090D01*
X66587355Y-110571380D01*
X66376027Y-110666265D01*
X66150249Y-110718098D01*
X65918698Y-110724889D01*
X65918697Y-110724889D01*
X65873012Y-110717186D01*
X65690270Y-110686376D01*
X65473745Y-110604038D01*
X65277443Y-110481041D01*
X65108910Y-110322111D01*
X64974620Y-110133355D01*
X64879735Y-109922027D01*
X64827902Y-109696249D01*
X64822812Y-109522723D01*
X64863704Y-108929794D01*
X64864000Y-108921196D01*
X64864000Y-108850175D01*
X64882882Y-108755250D01*
X64883544Y-108751645D01*
X64885089Y-108742483D01*
X64899624Y-108656270D01*
X64902085Y-108649799D01*
X64907842Y-108629767D01*
X64909193Y-108622974D01*
X64911843Y-108616576D01*
X64946264Y-108533476D01*
X64947553Y-108530230D01*
X64981962Y-108439745D01*
X64985636Y-108433881D01*
X64995187Y-108415365D01*
X64997842Y-108408955D01*
X65051657Y-108328415D01*
X65053577Y-108325449D01*
X65104959Y-108243443D01*
X65109711Y-108238404D01*
X65122689Y-108222107D01*
X65126537Y-108216348D01*
X65194993Y-108147892D01*
X65197546Y-108145262D01*
X65218023Y-108123548D01*
X65263889Y-108074910D01*
X65269521Y-108070903D01*
X65285447Y-108057438D01*
X65290346Y-108052539D01*
X65370824Y-107998766D01*
X65373806Y-107996710D01*
X65452645Y-107940620D01*
X65458955Y-107937787D01*
X65477194Y-107927691D01*
X65482951Y-107923844D01*
X65482954Y-107923843D01*
X65482955Y-107923842D01*
X65572429Y-107886781D01*
X65575687Y-107885375D01*
X65663973Y-107845735D01*
X65670725Y-107844185D01*
X65690562Y-107837848D01*
X65696973Y-107835193D01*
X65791899Y-107816311D01*
X65795446Y-107815551D01*
X65889751Y-107793901D01*
X65892130Y-107793831D01*
X65896665Y-107793698D01*
X65917381Y-107791351D01*
X65924174Y-107790000D01*
X66020959Y-107790000D01*
X66024584Y-107789947D01*
X66121302Y-107787110D01*
X66128127Y-107788261D01*
X66128127Y-107788261D01*
G37*
G36*
X47078127Y-107788261D02*
G01*
X47098900Y-107790000D01*
X47105827Y-107790000D01*
X47200754Y-107808882D01*
X47204348Y-107809542D01*
X47299730Y-107825624D01*
X47306203Y-107828085D01*
X47326228Y-107833841D01*
X47333027Y-107835193D01*
X47395414Y-107861034D01*
X47422443Y-107872230D01*
X47425844Y-107873581D01*
X47516255Y-107907961D01*
X47522127Y-107911640D01*
X47540636Y-107921187D01*
X47547045Y-107923842D01*
X47627563Y-107977642D01*
X47630554Y-107979578D01*
X47712557Y-108030959D01*
X47717584Y-108035700D01*
X47733896Y-108048691D01*
X47739652Y-108052537D01*
X47808110Y-108120995D01*
X47810689Y-108123499D01*
X47881090Y-108189889D01*
X47885095Y-108195519D01*
X47898559Y-108211444D01*
X47903459Y-108216344D01*
X47957244Y-108296839D01*
X47959291Y-108299807D01*
X48015380Y-108378645D01*
X48018214Y-108384958D01*
X48028308Y-108403193D01*
X48032158Y-108408955D01*
X48069220Y-108498430D01*
X48070624Y-108501685D01*
X48110265Y-108589973D01*
X48111815Y-108596725D01*
X48118152Y-108616562D01*
X48120807Y-108622973D01*
X48135690Y-108697796D01*
X48139692Y-108717917D01*
X48140438Y-108721401D01*
X48162098Y-108815751D01*
X48162098Y-108815754D01*
X48162300Y-108822654D01*
X48164647Y-108843370D01*
X48166000Y-108850174D01*
X48166000Y-108946986D01*
X48166053Y-108950584D01*
X48167188Y-108989277D01*
X48166295Y-109002225D01*
X48166000Y-109010797D01*
X48166000Y-109081826D01*
X48160081Y-109111585D01*
X48159604Y-109113979D01*
X48157500Y-109129750D01*
X48119238Y-109684545D01*
X48090376Y-109855730D01*
X48008038Y-110072255D01*
X47885041Y-110268557D01*
X47726111Y-110437090D01*
X47537355Y-110571380D01*
X47326027Y-110666265D01*
X47100249Y-110718098D01*
X46868698Y-110724889D01*
X46868697Y-110724889D01*
X46823012Y-110717186D01*
X46640270Y-110686376D01*
X46423745Y-110604038D01*
X46227443Y-110481041D01*
X46058910Y-110322111D01*
X45924620Y-110133355D01*
X45829735Y-109922027D01*
X45777902Y-109696249D01*
X45772812Y-109522723D01*
X45813704Y-108929794D01*
X45814000Y-108921196D01*
X45814000Y-108850175D01*
X45832882Y-108755250D01*
X45833544Y-108751645D01*
X45835089Y-108742483D01*
X45849624Y-108656270D01*
X45852085Y-108649799D01*
X45857842Y-108629767D01*
X45859193Y-108622974D01*
X45861843Y-108616576D01*
X45896264Y-108533476D01*
X45897553Y-108530230D01*
X45931962Y-108439745D01*
X45935636Y-108433881D01*
X45945187Y-108415365D01*
X45947842Y-108408955D01*
X46001657Y-108328415D01*
X46003577Y-108325449D01*
X46054959Y-108243443D01*
X46059711Y-108238404D01*
X46072689Y-108222107D01*
X46076537Y-108216348D01*
X46144993Y-108147892D01*
X46147546Y-108145262D01*
X46168023Y-108123548D01*
X46213889Y-108074910D01*
X46219521Y-108070903D01*
X46235447Y-108057438D01*
X46240346Y-108052539D01*
X46320824Y-107998766D01*
X46323806Y-107996710D01*
X46402645Y-107940620D01*
X46408955Y-107937787D01*
X46427194Y-107927691D01*
X46432951Y-107923844D01*
X46432954Y-107923843D01*
X46432955Y-107923842D01*
X46522429Y-107886781D01*
X46525687Y-107885375D01*
X46613973Y-107845735D01*
X46620725Y-107844185D01*
X46640562Y-107837848D01*
X46646973Y-107835193D01*
X46741899Y-107816311D01*
X46745446Y-107815551D01*
X46839751Y-107793901D01*
X46842130Y-107793831D01*
X46846665Y-107793698D01*
X46867381Y-107791351D01*
X46874174Y-107790000D01*
X46970959Y-107790000D01*
X46974584Y-107789947D01*
X47071302Y-107787110D01*
X47078127Y-107788261D01*
X47078127Y-107788261D01*
G37*
G36*
X79324468Y-108686065D02*
G01*
X79363138Y-108697796D01*
X79398777Y-108716846D01*
X79430017Y-108742483D01*
X79455654Y-108773723D01*
X79474704Y-108809362D01*
X79486435Y-108848032D01*
X79491000Y-108894388D01*
X79491000Y-109545612D01*
X79486435Y-109591968D01*
X79474704Y-109630638D01*
X79455654Y-109666277D01*
X79430017Y-109697517D01*
X79398777Y-109723154D01*
X79363138Y-109742204D01*
X79324468Y-109753935D01*
X79278112Y-109758500D01*
X78201888Y-109758500D01*
X78155532Y-109753935D01*
X78116862Y-109742204D01*
X78081223Y-109723154D01*
X78049983Y-109697517D01*
X78024346Y-109666277D01*
X78005296Y-109630638D01*
X77993565Y-109591968D01*
X77989000Y-109545612D01*
X77989000Y-108894388D01*
X77993565Y-108848032D01*
X78005296Y-108809362D01*
X78024346Y-108773723D01*
X78049983Y-108742483D01*
X78081223Y-108716846D01*
X78116862Y-108697796D01*
X78155532Y-108686065D01*
X78201888Y-108681500D01*
X79278112Y-108681500D01*
X79324468Y-108686065D01*
X79324468Y-108686065D01*
G37*
G36*
X111066968Y-107543565D02*
G01*
X111105638Y-107555296D01*
X111141277Y-107574346D01*
X111172517Y-107599983D01*
X111198154Y-107631223D01*
X111217204Y-107666862D01*
X111228935Y-107705532D01*
X111233500Y-107751888D01*
X111233500Y-108403112D01*
X111228935Y-108449468D01*
X111217204Y-108488138D01*
X111198154Y-108523777D01*
X111172517Y-108555017D01*
X111141277Y-108580654D01*
X111105638Y-108599704D01*
X111066968Y-108611435D01*
X111020612Y-108616000D01*
X109944388Y-108616000D01*
X109898032Y-108611435D01*
X109859362Y-108599704D01*
X109823723Y-108580654D01*
X109792483Y-108555017D01*
X109766846Y-108523777D01*
X109747796Y-108488138D01*
X109736065Y-108449468D01*
X109731500Y-108403112D01*
X109731500Y-107751888D01*
X109736065Y-107705532D01*
X109747796Y-107666862D01*
X109766846Y-107631223D01*
X109792483Y-107599983D01*
X109823723Y-107574346D01*
X109859362Y-107555296D01*
X109898032Y-107543565D01*
X109944388Y-107539000D01*
X111020612Y-107539000D01*
X111066968Y-107543565D01*
X111066968Y-107543565D01*
G37*
G36*
X98845468Y-106266065D02*
G01*
X98884138Y-106277796D01*
X98919777Y-106296846D01*
X98951017Y-106322483D01*
X98976654Y-106353723D01*
X98995704Y-106389362D01*
X99007435Y-106428032D01*
X99012000Y-106474388D01*
X99012000Y-107550612D01*
X99007435Y-107596968D01*
X98995704Y-107635638D01*
X98976654Y-107671277D01*
X98951017Y-107702517D01*
X98919777Y-107728154D01*
X98884138Y-107747204D01*
X98845468Y-107758935D01*
X98799112Y-107763500D01*
X98147888Y-107763500D01*
X98101532Y-107758935D01*
X98062862Y-107747204D01*
X98027223Y-107728154D01*
X97995983Y-107702517D01*
X97970346Y-107671277D01*
X97951296Y-107635638D01*
X97939565Y-107596968D01*
X97935000Y-107550612D01*
X97935000Y-106474388D01*
X97939565Y-106428032D01*
X97951296Y-106389362D01*
X97970346Y-106353723D01*
X97995983Y-106322483D01*
X98027223Y-106296846D01*
X98062862Y-106277796D01*
X98101532Y-106266065D01*
X98147888Y-106261500D01*
X98799112Y-106261500D01*
X98845468Y-106266065D01*
X98845468Y-106266065D01*
G37*
G36*
X96970468Y-106266065D02*
G01*
X97009138Y-106277796D01*
X97044777Y-106296846D01*
X97076017Y-106322483D01*
X97101654Y-106353723D01*
X97120704Y-106389362D01*
X97132435Y-106428032D01*
X97137000Y-106474388D01*
X97137000Y-107550612D01*
X97132435Y-107596968D01*
X97120704Y-107635638D01*
X97101654Y-107671277D01*
X97076017Y-107702517D01*
X97044777Y-107728154D01*
X97009138Y-107747204D01*
X96970468Y-107758935D01*
X96924112Y-107763500D01*
X96272888Y-107763500D01*
X96226532Y-107758935D01*
X96187862Y-107747204D01*
X96152223Y-107728154D01*
X96120983Y-107702517D01*
X96095346Y-107671277D01*
X96076296Y-107635638D01*
X96064565Y-107596968D01*
X96060000Y-107550612D01*
X96060000Y-106474388D01*
X96064565Y-106428032D01*
X96076296Y-106389362D01*
X96095346Y-106353723D01*
X96120983Y-106322483D01*
X96152223Y-106296846D01*
X96187862Y-106277796D01*
X96226532Y-106266065D01*
X96272888Y-106261500D01*
X96924112Y-106261500D01*
X96970468Y-106266065D01*
X96970468Y-106266065D01*
G37*
G36*
X111066968Y-105668565D02*
G01*
X111105638Y-105680296D01*
X111141277Y-105699346D01*
X111172517Y-105724983D01*
X111198154Y-105756223D01*
X111217204Y-105791862D01*
X111228935Y-105830532D01*
X111233500Y-105876888D01*
X111233500Y-106528112D01*
X111228935Y-106574468D01*
X111217204Y-106613138D01*
X111198154Y-106648777D01*
X111172517Y-106680017D01*
X111141277Y-106705654D01*
X111105638Y-106724704D01*
X111066968Y-106736435D01*
X111020612Y-106741000D01*
X109944388Y-106741000D01*
X109898032Y-106736435D01*
X109859362Y-106724704D01*
X109823723Y-106705654D01*
X109792483Y-106680017D01*
X109766846Y-106648777D01*
X109747796Y-106613138D01*
X109736065Y-106574468D01*
X109731500Y-106528112D01*
X109731500Y-105876888D01*
X109736065Y-105830532D01*
X109747796Y-105791862D01*
X109766846Y-105756223D01*
X109792483Y-105724983D01*
X109823723Y-105699346D01*
X109859362Y-105680296D01*
X109898032Y-105668565D01*
X109944388Y-105664000D01*
X111020612Y-105664000D01*
X111066968Y-105668565D01*
X111066968Y-105668565D01*
G37*
G36*
X113401968Y-102885565D02*
G01*
X113440638Y-102897296D01*
X113476277Y-102916346D01*
X113507517Y-102941983D01*
X113533154Y-102973223D01*
X113552204Y-103008862D01*
X113563935Y-103047532D01*
X113568500Y-103093888D01*
X113568500Y-104170112D01*
X113563935Y-104216468D01*
X113552204Y-104255138D01*
X113533154Y-104290777D01*
X113507517Y-104322017D01*
X113476277Y-104347654D01*
X113440638Y-104366704D01*
X113401968Y-104378435D01*
X113355612Y-104383000D01*
X112704388Y-104383000D01*
X112658032Y-104378435D01*
X112619362Y-104366704D01*
X112583723Y-104347654D01*
X112552483Y-104322017D01*
X112526846Y-104290777D01*
X112507796Y-104255138D01*
X112496065Y-104216468D01*
X112491500Y-104170112D01*
X112491500Y-103093888D01*
X112496065Y-103047532D01*
X112507796Y-103008862D01*
X112526846Y-102973223D01*
X112552483Y-102941983D01*
X112583723Y-102916346D01*
X112619362Y-102897296D01*
X112658032Y-102885565D01*
X112704388Y-102881000D01*
X113355612Y-102881000D01*
X113401968Y-102885565D01*
X113401968Y-102885565D01*
G37*
G36*
X111526968Y-102885565D02*
G01*
X111565638Y-102897296D01*
X111601277Y-102916346D01*
X111632517Y-102941983D01*
X111658154Y-102973223D01*
X111677204Y-103008862D01*
X111688935Y-103047532D01*
X111693500Y-103093888D01*
X111693500Y-104170112D01*
X111688935Y-104216468D01*
X111677204Y-104255138D01*
X111658154Y-104290777D01*
X111632517Y-104322017D01*
X111601277Y-104347654D01*
X111565638Y-104366704D01*
X111526968Y-104378435D01*
X111480612Y-104383000D01*
X110829388Y-104383000D01*
X110783032Y-104378435D01*
X110744362Y-104366704D01*
X110708723Y-104347654D01*
X110677483Y-104322017D01*
X110651846Y-104290777D01*
X110632796Y-104255138D01*
X110621065Y-104216468D01*
X110616500Y-104170112D01*
X110616500Y-103093888D01*
X110621065Y-103047532D01*
X110632796Y-103008862D01*
X110651846Y-102973223D01*
X110677483Y-102941983D01*
X110708723Y-102916346D01*
X110744362Y-102897296D01*
X110783032Y-102885565D01*
X110829388Y-102881000D01*
X111480612Y-102881000D01*
X111526968Y-102885565D01*
X111526968Y-102885565D01*
G37*
G36*
X67089640Y-103917240D02*
G01*
X66087640Y-103917240D01*
X66087640Y-102615240D01*
X67089640Y-102615240D01*
X67089640Y-103917240D01*
X67089640Y-103917240D01*
G37*
G36*
X63789640Y-103917240D02*
G01*
X62787640Y-103917240D01*
X62787640Y-102615240D01*
X63789640Y-102615240D01*
X63789640Y-103917240D01*
X63789640Y-103917240D01*
G37*
G36*
X47385320Y-103815640D02*
G01*
X46383320Y-103815640D01*
X46383320Y-102513640D01*
X47385320Y-102513640D01*
X47385320Y-103815640D01*
X47385320Y-103815640D01*
G37*
G36*
X50685320Y-103815640D02*
G01*
X49683320Y-103815640D01*
X49683320Y-102513640D01*
X50685320Y-102513640D01*
X50685320Y-103815640D01*
X50685320Y-103815640D01*
G37*
G36*
X92439750Y-101702000D02*
G01*
X83787750Y-101702000D01*
X83787750Y-100100000D01*
X92439750Y-100100000D01*
X92439750Y-101702000D01*
X92439750Y-101702000D01*
G37*
G36*
X104048604Y-99848347D02*
G01*
X104085144Y-99859432D01*
X104118821Y-99877433D01*
X104148341Y-99901659D01*
X104172567Y-99931179D01*
X104190568Y-99964856D01*
X104201653Y-100001396D01*
X104206000Y-100045538D01*
X104206000Y-100994462D01*
X104201653Y-101038604D01*
X104190568Y-101075144D01*
X104172567Y-101108821D01*
X104148341Y-101138341D01*
X104118821Y-101162567D01*
X104085144Y-101180568D01*
X104048604Y-101191653D01*
X104004462Y-101196000D01*
X102555538Y-101196000D01*
X102511396Y-101191653D01*
X102474856Y-101180568D01*
X102441179Y-101162567D01*
X102411659Y-101138341D01*
X102387433Y-101108821D01*
X102369432Y-101075144D01*
X102358347Y-101038604D01*
X102354000Y-100994462D01*
X102354000Y-100045538D01*
X102358347Y-100001396D01*
X102369432Y-99964856D01*
X102387433Y-99931179D01*
X102411659Y-99901659D01*
X102441179Y-99877433D01*
X102474856Y-99859432D01*
X102511396Y-99848347D01*
X102555538Y-99844000D01*
X104004462Y-99844000D01*
X104048604Y-99848347D01*
X104048604Y-99848347D01*
G37*
G36*
X111964468Y-99323565D02*
G01*
X112003138Y-99335296D01*
X112038777Y-99354346D01*
X112070017Y-99379983D01*
X112095654Y-99411223D01*
X112114704Y-99446862D01*
X112126435Y-99485532D01*
X112131000Y-99531888D01*
X112131000Y-100183112D01*
X112126435Y-100229468D01*
X112114704Y-100268138D01*
X112095654Y-100303777D01*
X112070017Y-100335017D01*
X112038777Y-100360654D01*
X112003138Y-100379704D01*
X111964468Y-100391435D01*
X111918112Y-100396000D01*
X110841888Y-100396000D01*
X110795532Y-100391435D01*
X110756862Y-100379704D01*
X110721223Y-100360654D01*
X110689983Y-100335017D01*
X110664346Y-100303777D01*
X110645296Y-100268138D01*
X110633565Y-100229468D01*
X110629000Y-100183112D01*
X110629000Y-99531888D01*
X110633565Y-99485532D01*
X110645296Y-99446862D01*
X110664346Y-99411223D01*
X110689983Y-99379983D01*
X110721223Y-99354346D01*
X110756862Y-99335296D01*
X110795532Y-99323565D01*
X110841888Y-99319000D01*
X111918112Y-99319000D01*
X111964468Y-99323565D01*
X111964468Y-99323565D01*
G37*
G36*
X109294468Y-99251065D02*
G01*
X109333138Y-99262796D01*
X109368777Y-99281846D01*
X109400017Y-99307483D01*
X109425654Y-99338723D01*
X109444704Y-99374362D01*
X109456435Y-99413032D01*
X109461000Y-99459388D01*
X109461000Y-100110612D01*
X109456435Y-100156968D01*
X109444704Y-100195638D01*
X109425654Y-100231277D01*
X109400017Y-100262517D01*
X109368777Y-100288154D01*
X109333138Y-100307204D01*
X109294468Y-100318935D01*
X109248112Y-100323500D01*
X108171888Y-100323500D01*
X108125532Y-100318935D01*
X108086862Y-100307204D01*
X108051223Y-100288154D01*
X108019983Y-100262517D01*
X107994346Y-100231277D01*
X107975296Y-100195638D01*
X107963565Y-100156968D01*
X107959000Y-100110612D01*
X107959000Y-99459388D01*
X107963565Y-99413032D01*
X107975296Y-99374362D01*
X107994346Y-99338723D01*
X108019983Y-99307483D01*
X108051223Y-99281846D01*
X108086862Y-99262796D01*
X108125532Y-99251065D01*
X108171888Y-99246500D01*
X109248112Y-99246500D01*
X109294468Y-99251065D01*
X109294468Y-99251065D01*
G37*
G36*
X106854468Y-99231065D02*
G01*
X106893138Y-99242796D01*
X106928777Y-99261846D01*
X106960017Y-99287483D01*
X106985654Y-99318723D01*
X107004704Y-99354362D01*
X107016435Y-99393032D01*
X107021000Y-99439388D01*
X107021000Y-100090612D01*
X107016435Y-100136968D01*
X107004704Y-100175638D01*
X106985654Y-100211277D01*
X106960017Y-100242517D01*
X106928777Y-100268154D01*
X106893138Y-100287204D01*
X106854468Y-100298935D01*
X106808112Y-100303500D01*
X105731888Y-100303500D01*
X105685532Y-100298935D01*
X105646862Y-100287204D01*
X105611223Y-100268154D01*
X105579983Y-100242517D01*
X105554346Y-100211277D01*
X105535296Y-100175638D01*
X105523565Y-100136968D01*
X105519000Y-100090612D01*
X105519000Y-99439388D01*
X105523565Y-99393032D01*
X105535296Y-99354362D01*
X105554346Y-99318723D01*
X105579983Y-99287483D01*
X105611223Y-99261846D01*
X105646862Y-99242796D01*
X105685532Y-99231065D01*
X105731888Y-99226500D01*
X106808112Y-99226500D01*
X106854468Y-99231065D01*
X106854468Y-99231065D01*
G37*
G36*
X111964468Y-97448565D02*
G01*
X112003138Y-97460296D01*
X112038777Y-97479346D01*
X112070017Y-97504983D01*
X112095654Y-97536223D01*
X112114704Y-97571862D01*
X112126435Y-97610532D01*
X112131000Y-97656888D01*
X112131000Y-98308112D01*
X112126435Y-98354468D01*
X112114704Y-98393138D01*
X112095654Y-98428777D01*
X112070017Y-98460017D01*
X112038777Y-98485654D01*
X112003138Y-98504704D01*
X111964468Y-98516435D01*
X111918112Y-98521000D01*
X110841888Y-98521000D01*
X110795532Y-98516435D01*
X110756862Y-98504704D01*
X110721223Y-98485654D01*
X110689983Y-98460017D01*
X110664346Y-98428777D01*
X110645296Y-98393138D01*
X110633565Y-98354468D01*
X110629000Y-98308112D01*
X110629000Y-97656888D01*
X110633565Y-97610532D01*
X110645296Y-97571862D01*
X110664346Y-97536223D01*
X110689983Y-97504983D01*
X110721223Y-97479346D01*
X110756862Y-97460296D01*
X110795532Y-97448565D01*
X110841888Y-97444000D01*
X111918112Y-97444000D01*
X111964468Y-97448565D01*
X111964468Y-97448565D01*
G37*
G36*
X109294468Y-97376065D02*
G01*
X109333138Y-97387796D01*
X109368777Y-97406846D01*
X109400017Y-97432483D01*
X109425654Y-97463723D01*
X109444704Y-97499362D01*
X109456435Y-97538032D01*
X109461000Y-97584388D01*
X109461000Y-98235612D01*
X109456435Y-98281968D01*
X109444704Y-98320638D01*
X109425654Y-98356277D01*
X109400017Y-98387517D01*
X109368777Y-98413154D01*
X109333138Y-98432204D01*
X109294468Y-98443935D01*
X109248112Y-98448500D01*
X108171888Y-98448500D01*
X108125532Y-98443935D01*
X108086862Y-98432204D01*
X108051223Y-98413154D01*
X108019983Y-98387517D01*
X107994346Y-98356277D01*
X107975296Y-98320638D01*
X107963565Y-98281968D01*
X107959000Y-98235612D01*
X107959000Y-97584388D01*
X107963565Y-97538032D01*
X107975296Y-97499362D01*
X107994346Y-97463723D01*
X108019983Y-97432483D01*
X108051223Y-97406846D01*
X108086862Y-97387796D01*
X108125532Y-97376065D01*
X108171888Y-97371500D01*
X109248112Y-97371500D01*
X109294468Y-97376065D01*
X109294468Y-97376065D01*
G37*
G36*
X106854468Y-97356065D02*
G01*
X106893138Y-97367796D01*
X106928777Y-97386846D01*
X106960017Y-97412483D01*
X106985654Y-97443723D01*
X107004704Y-97479362D01*
X107016435Y-97518032D01*
X107021000Y-97564388D01*
X107021000Y-98215612D01*
X107016435Y-98261968D01*
X107004704Y-98300638D01*
X106985654Y-98336277D01*
X106960017Y-98367517D01*
X106928777Y-98393154D01*
X106893138Y-98412204D01*
X106854468Y-98423935D01*
X106808112Y-98428500D01*
X105731888Y-98428500D01*
X105685532Y-98423935D01*
X105646862Y-98412204D01*
X105611223Y-98393154D01*
X105579983Y-98367517D01*
X105554346Y-98336277D01*
X105535296Y-98300638D01*
X105523565Y-98261968D01*
X105519000Y-98215612D01*
X105519000Y-97564388D01*
X105523565Y-97518032D01*
X105535296Y-97479362D01*
X105554346Y-97443723D01*
X105579983Y-97412483D01*
X105611223Y-97386846D01*
X105646862Y-97367796D01*
X105685532Y-97356065D01*
X105731888Y-97351500D01*
X106808112Y-97351500D01*
X106854468Y-97356065D01*
X106854468Y-97356065D01*
G37*
G36*
X104048604Y-97048347D02*
G01*
X104085144Y-97059432D01*
X104118821Y-97077433D01*
X104148341Y-97101659D01*
X104172567Y-97131179D01*
X104190568Y-97164856D01*
X104201653Y-97201396D01*
X104206000Y-97245538D01*
X104206000Y-98194462D01*
X104201653Y-98238604D01*
X104190568Y-98275144D01*
X104172567Y-98308821D01*
X104148341Y-98338341D01*
X104118821Y-98362567D01*
X104085144Y-98380568D01*
X104048604Y-98391653D01*
X104004462Y-98396000D01*
X102555538Y-98396000D01*
X102511396Y-98391653D01*
X102474856Y-98380568D01*
X102441179Y-98362567D01*
X102411659Y-98338341D01*
X102387433Y-98308821D01*
X102369432Y-98275144D01*
X102358347Y-98238604D01*
X102354000Y-98194462D01*
X102354000Y-97245538D01*
X102358347Y-97201396D01*
X102369432Y-97164856D01*
X102387433Y-97131179D01*
X102411659Y-97101659D01*
X102441179Y-97077433D01*
X102474856Y-97059432D01*
X102511396Y-97048347D01*
X102555538Y-97044000D01*
X104004462Y-97044000D01*
X104048604Y-97048347D01*
X104048604Y-97048347D01*
G37*
G36*
X91358218Y-96281565D02*
G01*
X91396888Y-96293296D01*
X91432527Y-96312346D01*
X91463767Y-96337983D01*
X91489404Y-96369223D01*
X91508454Y-96404862D01*
X91520185Y-96443532D01*
X91524750Y-96489888D01*
X91524750Y-97566112D01*
X91520185Y-97612468D01*
X91508454Y-97651138D01*
X91489404Y-97686777D01*
X91463767Y-97718017D01*
X91432527Y-97743654D01*
X91396888Y-97762704D01*
X91358218Y-97774435D01*
X91311862Y-97779000D01*
X90660638Y-97779000D01*
X90614282Y-97774435D01*
X90575612Y-97762704D01*
X90539973Y-97743654D01*
X90508733Y-97718017D01*
X90483096Y-97686777D01*
X90464046Y-97651138D01*
X90452315Y-97612468D01*
X90447750Y-97566112D01*
X90447750Y-96489888D01*
X90452315Y-96443532D01*
X90464046Y-96404862D01*
X90483096Y-96369223D01*
X90508733Y-96337983D01*
X90539973Y-96312346D01*
X90575612Y-96293296D01*
X90614282Y-96281565D01*
X90660638Y-96277000D01*
X91311862Y-96277000D01*
X91358218Y-96281565D01*
X91358218Y-96281565D01*
G37*
G36*
X93233218Y-96281565D02*
G01*
X93271888Y-96293296D01*
X93307527Y-96312346D01*
X93338767Y-96337983D01*
X93364404Y-96369223D01*
X93383454Y-96404862D01*
X93395185Y-96443532D01*
X93399750Y-96489888D01*
X93399750Y-97566112D01*
X93395185Y-97612468D01*
X93383454Y-97651138D01*
X93364404Y-97686777D01*
X93338767Y-97718017D01*
X93307527Y-97743654D01*
X93271888Y-97762704D01*
X93233218Y-97774435D01*
X93186862Y-97779000D01*
X92535638Y-97779000D01*
X92489282Y-97774435D01*
X92450612Y-97762704D01*
X92414973Y-97743654D01*
X92383733Y-97718017D01*
X92358096Y-97686777D01*
X92339046Y-97651138D01*
X92327315Y-97612468D01*
X92322750Y-97566112D01*
X92322750Y-96489888D01*
X92327315Y-96443532D01*
X92339046Y-96404862D01*
X92358096Y-96369223D01*
X92383733Y-96337983D01*
X92414973Y-96312346D01*
X92450612Y-96293296D01*
X92489282Y-96281565D01*
X92535638Y-96277000D01*
X93186862Y-96277000D01*
X93233218Y-96281565D01*
X93233218Y-96281565D01*
G37*
G36*
X83420718Y-96281565D02*
G01*
X83459388Y-96293296D01*
X83495027Y-96312346D01*
X83526267Y-96337983D01*
X83551904Y-96369223D01*
X83570954Y-96404862D01*
X83582685Y-96443532D01*
X83587250Y-96489888D01*
X83587250Y-97566112D01*
X83582685Y-97612468D01*
X83570954Y-97651138D01*
X83551904Y-97686777D01*
X83526267Y-97718017D01*
X83495027Y-97743654D01*
X83459388Y-97762704D01*
X83420718Y-97774435D01*
X83374362Y-97779000D01*
X82723138Y-97779000D01*
X82676782Y-97774435D01*
X82638112Y-97762704D01*
X82602473Y-97743654D01*
X82571233Y-97718017D01*
X82545596Y-97686777D01*
X82526546Y-97651138D01*
X82514815Y-97612468D01*
X82510250Y-97566112D01*
X82510250Y-96489888D01*
X82514815Y-96443532D01*
X82526546Y-96404862D01*
X82545596Y-96369223D01*
X82571233Y-96337983D01*
X82602473Y-96312346D01*
X82638112Y-96293296D01*
X82676782Y-96281565D01*
X82723138Y-96277000D01*
X83374362Y-96277000D01*
X83420718Y-96281565D01*
X83420718Y-96281565D01*
G37*
G36*
X85295718Y-96281565D02*
G01*
X85334388Y-96293296D01*
X85370027Y-96312346D01*
X85401267Y-96337983D01*
X85426904Y-96369223D01*
X85445954Y-96404862D01*
X85457685Y-96443532D01*
X85462250Y-96489888D01*
X85462250Y-97566112D01*
X85457685Y-97612468D01*
X85445954Y-97651138D01*
X85426904Y-97686777D01*
X85401267Y-97718017D01*
X85370027Y-97743654D01*
X85334388Y-97762704D01*
X85295718Y-97774435D01*
X85249362Y-97779000D01*
X84598138Y-97779000D01*
X84551782Y-97774435D01*
X84513112Y-97762704D01*
X84477473Y-97743654D01*
X84446233Y-97718017D01*
X84420596Y-97686777D01*
X84401546Y-97651138D01*
X84389815Y-97612468D01*
X84385250Y-97566112D01*
X84385250Y-96489888D01*
X84389815Y-96443532D01*
X84401546Y-96404862D01*
X84420596Y-96369223D01*
X84446233Y-96337983D01*
X84477473Y-96312346D01*
X84513112Y-96293296D01*
X84551782Y-96281565D01*
X84598138Y-96277000D01*
X85249362Y-96277000D01*
X85295718Y-96281565D01*
X85295718Y-96281565D01*
G37*
G36*
X64096474Y-93029684D02*
G01*
X64233502Y-93086443D01*
X64468623Y-93183833D01*
X64803548Y-93407623D01*
X65088377Y-93692452D01*
X65312167Y-94027377D01*
X65344562Y-94105586D01*
X65466316Y-94399526D01*
X65544900Y-94794594D01*
X65544900Y-95197406D01*
X65466316Y-95592474D01*
X65415451Y-95715272D01*
X65312167Y-95964623D01*
X65088377Y-96299548D01*
X64803548Y-96584377D01*
X64468623Y-96808167D01*
X64314474Y-96872017D01*
X64096474Y-96962316D01*
X63701406Y-97040900D01*
X63298594Y-97040900D01*
X62903526Y-96962316D01*
X62685526Y-96872017D01*
X62531377Y-96808167D01*
X62196452Y-96584377D01*
X61911623Y-96299548D01*
X61687833Y-95964623D01*
X61584549Y-95715272D01*
X61533684Y-95592474D01*
X61455100Y-95197406D01*
X61455100Y-94794594D01*
X61533684Y-94399526D01*
X61655438Y-94105586D01*
X61687833Y-94027377D01*
X61911623Y-93692452D01*
X62196452Y-93407623D01*
X62531377Y-93183833D01*
X62766498Y-93086443D01*
X62903526Y-93029684D01*
X63298594Y-92951100D01*
X63701406Y-92951100D01*
X64096474Y-93029684D01*
X64096474Y-93029684D01*
G37*
G36*
X45046474Y-93018684D02*
G01*
X45210056Y-93086442D01*
X45418623Y-93172833D01*
X45753548Y-93396623D01*
X46038377Y-93681452D01*
X46262167Y-94016377D01*
X46294562Y-94094586D01*
X46416316Y-94388526D01*
X46494900Y-94783594D01*
X46494900Y-95186406D01*
X46416316Y-95581474D01*
X46365451Y-95704272D01*
X46262167Y-95953623D01*
X46038377Y-96288548D01*
X45753548Y-96573377D01*
X45418623Y-96797167D01*
X45264474Y-96861017D01*
X45046474Y-96951316D01*
X44651406Y-97029900D01*
X44248594Y-97029900D01*
X43853526Y-96951316D01*
X43635526Y-96861017D01*
X43481377Y-96797167D01*
X43146452Y-96573377D01*
X42861623Y-96288548D01*
X42637833Y-95953623D01*
X42534549Y-95704272D01*
X42483684Y-95581474D01*
X42405100Y-95186406D01*
X42405100Y-94783594D01*
X42483684Y-94388526D01*
X42605438Y-94094586D01*
X42637833Y-94016377D01*
X42861623Y-93681452D01*
X43146452Y-93396623D01*
X43481377Y-93172833D01*
X43689944Y-93086442D01*
X43853526Y-93018684D01*
X44248594Y-92940100D01*
X44651406Y-92940100D01*
X45046474Y-93018684D01*
X45046474Y-93018684D01*
G37*
G36*
X58690104Y-94105585D02*
G01*
X58858626Y-94175389D01*
X59010291Y-94276728D01*
X59139272Y-94405709D01*
X59240611Y-94557374D01*
X59310415Y-94725896D01*
X59346000Y-94904797D01*
X59346000Y-95087203D01*
X59310415Y-95266104D01*
X59240611Y-95434626D01*
X59139272Y-95586291D01*
X59010291Y-95715272D01*
X58858626Y-95816611D01*
X58690104Y-95886415D01*
X58511203Y-95922000D01*
X58328797Y-95922000D01*
X58149896Y-95886415D01*
X57981374Y-95816611D01*
X57829709Y-95715272D01*
X57700728Y-95586291D01*
X57599389Y-95434626D01*
X57529585Y-95266104D01*
X57494000Y-95087203D01*
X57494000Y-94904797D01*
X57529585Y-94725896D01*
X57599389Y-94557374D01*
X57700728Y-94405709D01*
X57829709Y-94276728D01*
X57981374Y-94175389D01*
X58149896Y-94105585D01*
X58328797Y-94070000D01*
X58511203Y-94070000D01*
X58690104Y-94105585D01*
X58690104Y-94105585D01*
G37*
G36*
X68850104Y-94105585D02*
G01*
X69018626Y-94175389D01*
X69170291Y-94276728D01*
X69299272Y-94405709D01*
X69400611Y-94557374D01*
X69470415Y-94725896D01*
X69506000Y-94904797D01*
X69506000Y-95087203D01*
X69470415Y-95266104D01*
X69400611Y-95434626D01*
X69299272Y-95586291D01*
X69170291Y-95715272D01*
X69018626Y-95816611D01*
X68850104Y-95886415D01*
X68671203Y-95922000D01*
X68488797Y-95922000D01*
X68309896Y-95886415D01*
X68141374Y-95816611D01*
X67989709Y-95715272D01*
X67860728Y-95586291D01*
X67759389Y-95434626D01*
X67689585Y-95266104D01*
X67654000Y-95087203D01*
X67654000Y-94904797D01*
X67689585Y-94725896D01*
X67759389Y-94557374D01*
X67860728Y-94405709D01*
X67989709Y-94276728D01*
X68141374Y-94175389D01*
X68309896Y-94105585D01*
X68488797Y-94070000D01*
X68671203Y-94070000D01*
X68850104Y-94105585D01*
X68850104Y-94105585D01*
G37*
G36*
X49800104Y-94094585D02*
G01*
X49968626Y-94164389D01*
X50120291Y-94265728D01*
X50249272Y-94394709D01*
X50350611Y-94546374D01*
X50420415Y-94714896D01*
X50456000Y-94893797D01*
X50456000Y-95076203D01*
X50420415Y-95255104D01*
X50350611Y-95423626D01*
X50249272Y-95575291D01*
X50120291Y-95704272D01*
X49968626Y-95805611D01*
X49800104Y-95875415D01*
X49621203Y-95911000D01*
X49438797Y-95911000D01*
X49259896Y-95875415D01*
X49091374Y-95805611D01*
X48939709Y-95704272D01*
X48810728Y-95575291D01*
X48709389Y-95423626D01*
X48639585Y-95255104D01*
X48604000Y-95076203D01*
X48604000Y-94893797D01*
X48639585Y-94714896D01*
X48709389Y-94546374D01*
X48810728Y-94394709D01*
X48939709Y-94265728D01*
X49091374Y-94164389D01*
X49259896Y-94094585D01*
X49438797Y-94059000D01*
X49621203Y-94059000D01*
X49800104Y-94094585D01*
X49800104Y-94094585D01*
G37*
G36*
X39640104Y-94094585D02*
G01*
X39808626Y-94164389D01*
X39960291Y-94265728D01*
X40089272Y-94394709D01*
X40190611Y-94546374D01*
X40260415Y-94714896D01*
X40296000Y-94893797D01*
X40296000Y-95076203D01*
X40260415Y-95255104D01*
X40190611Y-95423626D01*
X40089272Y-95575291D01*
X39960291Y-95704272D01*
X39808626Y-95805611D01*
X39640104Y-95875415D01*
X39461203Y-95911000D01*
X39278797Y-95911000D01*
X39099896Y-95875415D01*
X38931374Y-95805611D01*
X38779709Y-95704272D01*
X38650728Y-95575291D01*
X38549389Y-95423626D01*
X38479585Y-95255104D01*
X38444000Y-95076203D01*
X38444000Y-94893797D01*
X38479585Y-94714896D01*
X38549389Y-94546374D01*
X38650728Y-94394709D01*
X38779709Y-94265728D01*
X38931374Y-94164389D01*
X39099896Y-94094585D01*
X39278797Y-94059000D01*
X39461203Y-94059000D01*
X39640104Y-94094585D01*
X39640104Y-94094585D01*
G37*
G36*
X61023205Y-89819881D02*
G01*
X61028645Y-89820000D01*
X61115828Y-89820000D01*
X61132097Y-89823236D01*
X61150956Y-89825515D01*
X61167532Y-89826246D01*
X61252223Y-89847010D01*
X61257518Y-89848184D01*
X61343027Y-89865193D01*
X61358362Y-89871545D01*
X61376401Y-89877455D01*
X61392521Y-89881407D01*
X61471504Y-89918280D01*
X61476494Y-89920477D01*
X61557045Y-89953842D01*
X61570841Y-89963060D01*
X61587393Y-89972382D01*
X61602426Y-89979400D01*
X61672694Y-90030971D01*
X61677192Y-90034122D01*
X61749656Y-90082541D01*
X61761383Y-90094268D01*
X61775809Y-90106648D01*
X61789179Y-90116461D01*
X61841311Y-90173403D01*
X61848021Y-90180733D01*
X61851829Y-90184714D01*
X61913459Y-90246344D01*
X61922674Y-90260135D01*
X61934396Y-90275078D01*
X61945605Y-90287321D01*
X61990799Y-90361874D01*
X61993746Y-90366501D01*
X62042158Y-90438955D01*
X62048505Y-90454277D01*
X62057092Y-90471231D01*
X62065691Y-90485417D01*
X62095478Y-90567368D01*
X62097452Y-90572448D01*
X62130807Y-90652973D01*
X62130807Y-90652974D01*
X62134041Y-90669233D01*
X62139158Y-90687542D01*
X62144825Y-90703134D01*
X62158055Y-90789345D01*
X62159001Y-90794713D01*
X62176000Y-90880173D01*
X62176000Y-90896752D01*
X62177444Y-90915692D01*
X62179963Y-90932104D01*
X62176120Y-91019249D01*
X62176000Y-91024689D01*
X62176000Y-91111825D01*
X62172766Y-91128083D01*
X62170488Y-91146941D01*
X62169756Y-91163531D01*
X62148988Y-91248237D01*
X62147812Y-91253537D01*
X62130807Y-91339027D01*
X62124457Y-91354357D01*
X62118549Y-91372393D01*
X62114595Y-91388520D01*
X62077711Y-91467526D01*
X62075511Y-91472523D01*
X62042158Y-91553045D01*
X62032944Y-91566835D01*
X62023622Y-91583387D01*
X62016602Y-91598424D01*
X61965011Y-91668720D01*
X61961866Y-91673210D01*
X61913461Y-91745654D01*
X61856460Y-91802655D01*
X61851811Y-91807563D01*
X61222532Y-92508896D01*
X60526723Y-93284376D01*
X60398679Y-93401602D01*
X60299706Y-93461600D01*
X60200583Y-93521689D01*
X59982866Y-93600823D01*
X59753895Y-93635961D01*
X59522470Y-93625754D01*
X59297481Y-93570593D01*
X59192727Y-93521689D01*
X59087579Y-93472602D01*
X58975850Y-93390602D01*
X58900823Y-93335539D01*
X58826394Y-93254241D01*
X58744398Y-93164679D01*
X58662564Y-93029685D01*
X58624311Y-92966583D01*
X58545177Y-92748866D01*
X58510039Y-92519895D01*
X58520246Y-92288470D01*
X58575407Y-92063481D01*
X58626972Y-91953028D01*
X58673398Y-91853580D01*
X58681473Y-91842577D01*
X58776114Y-91713622D01*
X59541115Y-90861027D01*
X60062787Y-90279621D01*
X60073681Y-90265589D01*
X60086539Y-90246346D01*
X60143573Y-90189312D01*
X60148223Y-90184403D01*
X60163278Y-90167624D01*
X60184701Y-90148011D01*
X60188682Y-90144203D01*
X60250346Y-90082539D01*
X60264143Y-90073320D01*
X60279102Y-90061585D01*
X60291321Y-90050398D01*
X60340104Y-90020826D01*
X60365830Y-90005231D01*
X60370421Y-90002308D01*
X60442955Y-89953842D01*
X60458300Y-89947486D01*
X60475248Y-89938901D01*
X60489416Y-89930312D01*
X60489417Y-89930312D01*
X60489418Y-89930311D01*
X60571312Y-89900545D01*
X60576410Y-89898563D01*
X60656973Y-89865193D01*
X60673252Y-89861955D01*
X60691542Y-89856844D01*
X60707135Y-89851177D01*
X60793300Y-89837954D01*
X60798663Y-89837009D01*
X60884173Y-89820000D01*
X60900766Y-89820000D01*
X60919709Y-89818555D01*
X60936106Y-89816039D01*
X61023205Y-89819881D01*
X61023205Y-89819881D01*
G37*
G36*
X41973205Y-89808881D02*
G01*
X41978645Y-89809000D01*
X42065828Y-89809000D01*
X42082097Y-89812236D01*
X42100956Y-89814515D01*
X42117532Y-89815246D01*
X42202223Y-89836010D01*
X42207518Y-89837184D01*
X42293027Y-89854193D01*
X42308362Y-89860545D01*
X42326401Y-89866455D01*
X42342521Y-89870407D01*
X42421504Y-89907280D01*
X42426494Y-89909477D01*
X42507045Y-89942842D01*
X42520841Y-89952060D01*
X42537393Y-89961382D01*
X42552426Y-89968400D01*
X42622694Y-90019971D01*
X42627190Y-90023121D01*
X42643655Y-90034122D01*
X42699656Y-90071541D01*
X42711383Y-90083268D01*
X42725809Y-90095648D01*
X42739179Y-90105461D01*
X42796091Y-90167624D01*
X42798021Y-90169733D01*
X42801829Y-90173714D01*
X42863459Y-90235344D01*
X42872674Y-90249135D01*
X42884396Y-90264078D01*
X42895605Y-90276321D01*
X42940799Y-90350874D01*
X42943746Y-90355501D01*
X42948113Y-90362037D01*
X42992158Y-90427955D01*
X42998505Y-90443277D01*
X43007092Y-90460231D01*
X43015691Y-90474417D01*
X43045478Y-90556368D01*
X43047452Y-90561448D01*
X43080807Y-90641973D01*
X43081658Y-90646249D01*
X43084041Y-90658233D01*
X43089158Y-90676542D01*
X43094825Y-90692134D01*
X43108055Y-90778345D01*
X43109001Y-90783713D01*
X43126000Y-90869173D01*
X43126000Y-90885752D01*
X43127444Y-90904692D01*
X43129963Y-90921104D01*
X43126120Y-91008249D01*
X43126000Y-91013689D01*
X43126000Y-91100825D01*
X43122766Y-91117083D01*
X43120488Y-91135941D01*
X43119756Y-91152531D01*
X43098988Y-91237237D01*
X43097812Y-91242537D01*
X43080807Y-91328027D01*
X43074457Y-91343357D01*
X43068549Y-91361393D01*
X43064595Y-91377520D01*
X43027711Y-91456526D01*
X43025511Y-91461523D01*
X42992158Y-91542045D01*
X42982944Y-91555835D01*
X42973622Y-91572387D01*
X42966602Y-91587424D01*
X42915011Y-91657720D01*
X42911866Y-91662210D01*
X42863461Y-91734654D01*
X42806460Y-91791655D01*
X42801811Y-91796563D01*
X42084088Y-92596467D01*
X41476723Y-93273376D01*
X41348679Y-93390602D01*
X41249631Y-93450645D01*
X41150583Y-93510689D01*
X40932866Y-93589823D01*
X40703895Y-93624961D01*
X40472470Y-93614754D01*
X40247481Y-93559593D01*
X40142727Y-93510689D01*
X40037579Y-93461602D01*
X39940838Y-93390602D01*
X39850823Y-93324539D01*
X39722005Y-93183833D01*
X39694398Y-93153679D01*
X39612564Y-93018685D01*
X39574311Y-92955583D01*
X39495177Y-92737866D01*
X39460039Y-92508895D01*
X39470246Y-92277470D01*
X39525407Y-92052481D01*
X39592176Y-91909459D01*
X39623398Y-91842580D01*
X39623400Y-91842577D01*
X39726114Y-91702622D01*
X40509570Y-90829459D01*
X41012787Y-90268621D01*
X41023681Y-90254589D01*
X41036539Y-90235346D01*
X41093573Y-90178312D01*
X41098223Y-90173403D01*
X41113278Y-90156624D01*
X41134701Y-90137011D01*
X41138682Y-90133203D01*
X41200346Y-90071539D01*
X41214143Y-90062320D01*
X41229102Y-90050585D01*
X41241321Y-90039398D01*
X41273385Y-90019961D01*
X41315830Y-89994231D01*
X41320421Y-89991308D01*
X41392955Y-89942842D01*
X41408300Y-89936486D01*
X41425248Y-89927901D01*
X41439416Y-89919312D01*
X41439417Y-89919312D01*
X41439418Y-89919311D01*
X41521312Y-89889545D01*
X41526410Y-89887563D01*
X41606973Y-89854193D01*
X41623252Y-89850955D01*
X41641542Y-89845844D01*
X41657135Y-89840177D01*
X41743300Y-89826954D01*
X41748663Y-89826009D01*
X41834173Y-89809000D01*
X41850766Y-89809000D01*
X41869709Y-89807555D01*
X41886106Y-89805039D01*
X41973205Y-89808881D01*
X41973205Y-89808881D01*
G37*
G36*
X112336627Y-90362037D02*
G01*
X112506466Y-90413557D01*
X112662991Y-90497222D01*
X112698729Y-90526552D01*
X112800186Y-90609814D01*
X112883448Y-90711271D01*
X112912778Y-90747009D01*
X112996443Y-90903534D01*
X113047963Y-91073373D01*
X113061000Y-91205742D01*
X113061000Y-92294258D01*
X113047963Y-92426627D01*
X112996443Y-92596466D01*
X112912778Y-92752991D01*
X112883448Y-92788729D01*
X112800186Y-92890186D01*
X112662989Y-93002779D01*
X112506467Y-93086442D01*
X112506465Y-93086443D01*
X112336626Y-93137963D01*
X112160000Y-93155359D01*
X111983373Y-93137963D01*
X111813534Y-93086443D01*
X111657009Y-93002778D01*
X111621271Y-92973448D01*
X111519814Y-92890186D01*
X111407221Y-92752989D01*
X111323558Y-92596467D01*
X111323557Y-92596465D01*
X111272037Y-92426626D01*
X111259000Y-92294257D01*
X111259001Y-91205742D01*
X111272038Y-91073373D01*
X111323558Y-90903534D01*
X111407223Y-90747009D01*
X111436553Y-90711271D01*
X111519815Y-90609814D01*
X111621272Y-90526552D01*
X111657010Y-90497222D01*
X111813535Y-90413557D01*
X111983374Y-90362037D01*
X112160000Y-90344641D01*
X112336627Y-90362037D01*
X112336627Y-90362037D01*
G37*
G36*
X105036627Y-90362037D02*
G01*
X105206466Y-90413557D01*
X105362991Y-90497222D01*
X105398729Y-90526552D01*
X105500186Y-90609814D01*
X105583448Y-90711271D01*
X105612778Y-90747009D01*
X105696443Y-90903534D01*
X105747963Y-91073373D01*
X105761000Y-91205742D01*
X105761000Y-92294258D01*
X105747963Y-92426627D01*
X105696443Y-92596466D01*
X105612778Y-92752991D01*
X105583448Y-92788729D01*
X105500186Y-92890186D01*
X105362989Y-93002779D01*
X105206467Y-93086442D01*
X105206465Y-93086443D01*
X105036626Y-93137963D01*
X104860000Y-93155359D01*
X104683373Y-93137963D01*
X104513534Y-93086443D01*
X104357009Y-93002778D01*
X104321271Y-92973448D01*
X104219814Y-92890186D01*
X104107221Y-92752989D01*
X104023558Y-92596467D01*
X104023557Y-92596465D01*
X103972037Y-92426626D01*
X103959000Y-92294257D01*
X103959001Y-91205742D01*
X103972038Y-91073373D01*
X104023558Y-90903534D01*
X104107223Y-90747009D01*
X104136553Y-90711271D01*
X104219815Y-90609814D01*
X104321272Y-90526552D01*
X104357010Y-90497222D01*
X104513535Y-90413557D01*
X104683374Y-90362037D01*
X104860000Y-90344641D01*
X105036627Y-90362037D01*
X105036627Y-90362037D01*
G37*
G36*
X110411000Y-92926000D02*
G01*
X106609000Y-92926000D01*
X106609000Y-90574000D01*
X110411000Y-90574000D01*
X110411000Y-92926000D01*
X110411000Y-92926000D01*
G37*
G36*
X66128127Y-88738261D02*
G01*
X66148900Y-88740000D01*
X66155827Y-88740000D01*
X66250754Y-88758882D01*
X66254348Y-88759542D01*
X66349730Y-88775624D01*
X66356203Y-88778085D01*
X66376228Y-88783841D01*
X66383027Y-88785193D01*
X66445414Y-88811034D01*
X66472443Y-88822230D01*
X66475844Y-88823581D01*
X66566255Y-88857961D01*
X66572127Y-88861640D01*
X66590636Y-88871187D01*
X66597045Y-88873842D01*
X66677563Y-88927642D01*
X66680554Y-88929578D01*
X66762557Y-88980959D01*
X66767584Y-88985700D01*
X66783896Y-88998691D01*
X66789652Y-89002537D01*
X66858110Y-89070995D01*
X66860689Y-89073499D01*
X66931090Y-89139889D01*
X66935095Y-89145519D01*
X66948559Y-89161444D01*
X66953459Y-89166344D01*
X67007244Y-89246839D01*
X67009291Y-89249807D01*
X67065380Y-89328645D01*
X67068214Y-89334958D01*
X67078308Y-89353193D01*
X67082158Y-89358955D01*
X67119220Y-89448430D01*
X67120624Y-89451685D01*
X67160265Y-89539973D01*
X67161815Y-89546725D01*
X67168152Y-89566562D01*
X67170807Y-89572973D01*
X67187504Y-89656917D01*
X67189692Y-89667917D01*
X67190438Y-89671401D01*
X67212098Y-89765751D01*
X67212098Y-89765754D01*
X67212300Y-89772654D01*
X67214647Y-89793370D01*
X67216000Y-89800174D01*
X67216000Y-89896986D01*
X67216053Y-89900584D01*
X67217188Y-89939277D01*
X67216295Y-89952225D01*
X67216000Y-89960797D01*
X67216000Y-90031826D01*
X67210081Y-90061585D01*
X67209604Y-90063979D01*
X67207500Y-90079750D01*
X67169238Y-90634545D01*
X67140376Y-90805730D01*
X67058038Y-91022255D01*
X66935041Y-91218557D01*
X66776111Y-91387090D01*
X66587355Y-91521380D01*
X66376027Y-91616265D01*
X66150249Y-91668098D01*
X65918698Y-91674889D01*
X65918697Y-91674889D01*
X65853455Y-91663889D01*
X65690270Y-91636376D01*
X65473745Y-91554038D01*
X65277443Y-91431041D01*
X65108910Y-91272111D01*
X64974620Y-91083355D01*
X64879735Y-90872027D01*
X64827902Y-90646249D01*
X64822812Y-90472723D01*
X64863704Y-89879794D01*
X64864000Y-89871196D01*
X64864000Y-89800175D01*
X64873035Y-89754754D01*
X64882888Y-89705219D01*
X64883544Y-89701645D01*
X64884791Y-89694250D01*
X64899624Y-89606270D01*
X64902085Y-89599799D01*
X64907842Y-89579767D01*
X64909193Y-89572974D01*
X64909193Y-89572973D01*
X64946264Y-89483476D01*
X64947553Y-89480230D01*
X64981962Y-89389745D01*
X64985636Y-89383881D01*
X64995187Y-89365365D01*
X64997842Y-89358955D01*
X65051657Y-89278415D01*
X65053577Y-89275449D01*
X65104959Y-89193443D01*
X65109711Y-89188404D01*
X65122689Y-89172107D01*
X65126537Y-89166348D01*
X65194993Y-89097892D01*
X65197546Y-89095262D01*
X65218023Y-89073548D01*
X65263889Y-89024910D01*
X65269521Y-89020903D01*
X65285447Y-89007438D01*
X65290346Y-89002539D01*
X65370824Y-88948766D01*
X65373806Y-88946710D01*
X65452645Y-88890620D01*
X65458955Y-88887787D01*
X65477194Y-88877691D01*
X65482951Y-88873844D01*
X65482954Y-88873843D01*
X65482955Y-88873842D01*
X65572429Y-88836781D01*
X65575687Y-88835375D01*
X65663973Y-88795735D01*
X65670725Y-88794185D01*
X65690562Y-88787848D01*
X65696973Y-88785193D01*
X65791899Y-88766311D01*
X65795446Y-88765551D01*
X65889751Y-88743901D01*
X65892130Y-88743831D01*
X65896665Y-88743698D01*
X65917381Y-88741351D01*
X65924174Y-88740000D01*
X66020959Y-88740000D01*
X66024584Y-88739947D01*
X66121302Y-88737110D01*
X66128127Y-88738261D01*
X66128127Y-88738261D01*
G37*
G36*
X47078127Y-88727261D02*
G01*
X47098900Y-88729000D01*
X47105827Y-88729000D01*
X47200754Y-88747882D01*
X47204348Y-88748542D01*
X47299730Y-88764624D01*
X47306203Y-88767085D01*
X47326228Y-88772841D01*
X47333027Y-88774193D01*
X47365983Y-88787844D01*
X47422443Y-88811230D01*
X47425844Y-88812581D01*
X47516255Y-88846961D01*
X47522127Y-88850640D01*
X47540636Y-88860187D01*
X47547045Y-88862842D01*
X47627563Y-88916642D01*
X47630554Y-88918578D01*
X47712557Y-88969959D01*
X47717584Y-88974700D01*
X47733896Y-88987691D01*
X47739652Y-88991537D01*
X47808110Y-89059995D01*
X47810689Y-89062499D01*
X47881090Y-89128889D01*
X47885095Y-89134519D01*
X47898559Y-89150444D01*
X47903459Y-89155344D01*
X47957244Y-89235839D01*
X47959291Y-89238807D01*
X48015380Y-89317645D01*
X48018214Y-89323958D01*
X48028308Y-89342193D01*
X48032158Y-89347955D01*
X48069220Y-89437430D01*
X48070624Y-89440685D01*
X48110265Y-89528973D01*
X48111815Y-89535725D01*
X48118152Y-89555562D01*
X48120807Y-89561973D01*
X48139692Y-89656917D01*
X48140438Y-89660401D01*
X48162098Y-89754751D01*
X48162098Y-89754754D01*
X48162300Y-89761654D01*
X48164647Y-89782370D01*
X48166000Y-89789174D01*
X48166000Y-89885986D01*
X48166053Y-89889584D01*
X48167188Y-89928277D01*
X48166295Y-89941225D01*
X48166000Y-89949797D01*
X48166000Y-90020826D01*
X48160081Y-90050585D01*
X48159604Y-90052979D01*
X48157500Y-90068750D01*
X48119238Y-90623545D01*
X48090376Y-90794730D01*
X48008038Y-91011255D01*
X47885041Y-91207557D01*
X47726111Y-91376090D01*
X47537355Y-91510380D01*
X47326027Y-91605265D01*
X47100249Y-91657098D01*
X46868698Y-91663889D01*
X46868697Y-91663889D01*
X46823012Y-91656186D01*
X46640270Y-91625376D01*
X46423745Y-91543038D01*
X46227443Y-91420041D01*
X46058910Y-91261111D01*
X45924620Y-91072355D01*
X45829735Y-90861027D01*
X45777902Y-90635249D01*
X45772812Y-90461723D01*
X45813704Y-89868794D01*
X45814000Y-89860196D01*
X45814000Y-89789175D01*
X45820847Y-89754751D01*
X45832888Y-89694219D01*
X45833544Y-89690645D01*
X45836772Y-89671501D01*
X45849624Y-89595270D01*
X45852085Y-89588799D01*
X45857842Y-89568767D01*
X45858278Y-89566576D01*
X45859193Y-89561973D01*
X45896264Y-89472476D01*
X45897553Y-89469230D01*
X45931962Y-89378745D01*
X45935636Y-89372881D01*
X45945187Y-89354365D01*
X45947842Y-89347955D01*
X46001657Y-89267415D01*
X46003577Y-89264449D01*
X46054959Y-89182443D01*
X46059711Y-89177404D01*
X46072689Y-89161107D01*
X46076537Y-89155348D01*
X46144993Y-89086892D01*
X46147546Y-89084262D01*
X46168023Y-89062548D01*
X46213889Y-89013910D01*
X46219521Y-89009903D01*
X46235447Y-88996438D01*
X46240346Y-88991539D01*
X46320824Y-88937766D01*
X46323806Y-88935710D01*
X46402645Y-88879620D01*
X46408955Y-88876787D01*
X46427194Y-88866691D01*
X46432951Y-88862844D01*
X46432954Y-88862843D01*
X46432955Y-88862842D01*
X46522429Y-88825781D01*
X46525687Y-88824375D01*
X46613973Y-88784735D01*
X46620725Y-88783185D01*
X46640562Y-88776848D01*
X46646973Y-88774193D01*
X46741899Y-88755311D01*
X46745446Y-88754551D01*
X46839751Y-88732901D01*
X46842130Y-88732831D01*
X46846665Y-88732698D01*
X46867381Y-88730351D01*
X46874174Y-88729000D01*
X46970959Y-88729000D01*
X46974584Y-88728947D01*
X47071302Y-88726110D01*
X47078127Y-88727261D01*
X47078127Y-88727261D01*
G37*
G36*
X112336627Y-85862037D02*
G01*
X112506466Y-85913557D01*
X112662991Y-85997222D01*
X112698729Y-86026552D01*
X112800186Y-86109814D01*
X112883448Y-86211271D01*
X112912778Y-86247009D01*
X112996443Y-86403534D01*
X113047963Y-86573373D01*
X113061000Y-86705742D01*
X113061000Y-87794258D01*
X113047963Y-87926627D01*
X112996443Y-88096466D01*
X112912778Y-88252991D01*
X112883448Y-88288729D01*
X112800186Y-88390186D01*
X112662989Y-88502779D01*
X112506467Y-88586442D01*
X112506465Y-88586443D01*
X112336626Y-88637963D01*
X112160000Y-88655359D01*
X111983373Y-88637963D01*
X111813534Y-88586443D01*
X111657009Y-88502778D01*
X111621271Y-88473448D01*
X111519814Y-88390186D01*
X111407221Y-88252989D01*
X111323558Y-88096467D01*
X111323557Y-88096465D01*
X111272037Y-87926626D01*
X111259000Y-87794257D01*
X111259001Y-86705742D01*
X111272038Y-86573373D01*
X111323558Y-86403534D01*
X111407223Y-86247009D01*
X111436553Y-86211271D01*
X111519815Y-86109814D01*
X111621272Y-86026552D01*
X111657010Y-85997222D01*
X111813535Y-85913557D01*
X111983374Y-85862037D01*
X112160000Y-85844641D01*
X112336627Y-85862037D01*
X112336627Y-85862037D01*
G37*
G36*
X105036627Y-85862037D02*
G01*
X105206466Y-85913557D01*
X105362991Y-85997222D01*
X105398729Y-86026552D01*
X105500186Y-86109814D01*
X105583448Y-86211271D01*
X105612778Y-86247009D01*
X105696443Y-86403534D01*
X105747963Y-86573373D01*
X105761000Y-86705742D01*
X105761000Y-87794258D01*
X105747963Y-87926627D01*
X105696443Y-88096466D01*
X105612778Y-88252991D01*
X105583448Y-88288729D01*
X105500186Y-88390186D01*
X105362989Y-88502779D01*
X105206467Y-88586442D01*
X105206465Y-88586443D01*
X105036626Y-88637963D01*
X104860000Y-88655359D01*
X104683373Y-88637963D01*
X104513534Y-88586443D01*
X104357009Y-88502778D01*
X104321271Y-88473448D01*
X104219814Y-88390186D01*
X104107221Y-88252989D01*
X104023558Y-88096467D01*
X104023557Y-88096465D01*
X103972037Y-87926626D01*
X103959000Y-87794257D01*
X103959001Y-86705742D01*
X103972038Y-86573373D01*
X104023558Y-86403534D01*
X104107223Y-86247009D01*
X104136553Y-86211271D01*
X104219815Y-86109814D01*
X104321272Y-86026552D01*
X104357010Y-85997222D01*
X104513535Y-85913557D01*
X104683374Y-85862037D01*
X104860000Y-85844641D01*
X105036627Y-85862037D01*
X105036627Y-85862037D01*
G37*
M02*
