G04 #@! TF.GenerationSoftware,KiCad,Pcbnew,(5.1.4)-1*
G04 #@! TF.CreationDate,2022-10-15T13:05:20-05:00*
G04 #@! TF.ProjectId,ai03-guide,61693033-2d67-4756-9964-652e6b696361,rev?*
G04 #@! TF.SameCoordinates,Original*
G04 #@! TF.FileFunction,Legend,Bot*
G04 #@! TF.FilePolarity,Positive*
%FSLAX46Y46*%
G04 Gerber Fmt 4.6, Leading zero omitted, Abs format (unit mm)*
G04 Created by KiCad (PCBNEW (5.1.4)-1) date 2022-10-15 13:05:20*
%MOMM*%
%LPD*%
G04 APERTURE LIST*
%ADD10C,0.120000*%
%ADD11C,0.150000*%
%ADD12R,1.502000X1.302000*%
%ADD13O,1.802000X2.802000*%
%ADD14R,0.602000X2.352000*%
%ADD15R,0.652000X1.602000*%
%ADD16R,1.602000X0.652000*%
%ADD17R,1.902000X1.202000*%
%ADD18C,0.100000*%
%ADD19C,1.077000*%
%ADD20C,1.852000*%
%ADD21C,2.352000*%
%ADD22C,4.089800*%
%ADD23C,2.352000*%
%ADD24C,1.352000*%
%ADD25R,1.002000X1.302000*%
G04 APERTURE END LIST*
D10*
X86907500Y-117397000D02*
X90907500Y-117397000D01*
X86907500Y-120697000D02*
X86907500Y-117397000D01*
D11*
X104660000Y-87250000D02*
X104660000Y-92700000D01*
X112360000Y-87250000D02*
X112360000Y-92700000D01*
X104660000Y-92700000D02*
X112360000Y-92700000D01*
X93288750Y-102001000D02*
X94563750Y-102001000D01*
X82938750Y-101426000D02*
X83613750Y-101426000D01*
X82938750Y-111776000D02*
X83613750Y-111776000D01*
X93288750Y-111776000D02*
X92613750Y-111776000D01*
X93288750Y-101426000D02*
X92613750Y-101426000D01*
X93288750Y-111776000D02*
X93288750Y-111101000D01*
X82938750Y-111776000D02*
X82938750Y-111101000D01*
X82938750Y-101426000D02*
X82938750Y-102101000D01*
X93288750Y-101426000D02*
X93288750Y-102001000D01*
X107120000Y-120820000D02*
X112320000Y-120820000D01*
X112320000Y-120820000D02*
X112320000Y-115620000D01*
X112320000Y-115620000D02*
X107120000Y-115620000D01*
X107120000Y-115620000D02*
X107120000Y-120820000D01*
X110720000Y-118220000D02*
G75*
G03X110720000Y-118220000I-1000000J0D01*
G01*
D10*
X112090000Y-98661422D02*
X112090000Y-99178578D01*
X110670000Y-98661422D02*
X110670000Y-99178578D01*
X105560000Y-99086078D02*
X105560000Y-98568922D01*
X106980000Y-99086078D02*
X106980000Y-98568922D01*
X108000000Y-99106078D02*
X108000000Y-98588922D01*
X109420000Y-99106078D02*
X109420000Y-98588922D01*
X109772500Y-107398578D02*
X109772500Y-106881422D01*
X111192500Y-107398578D02*
X111192500Y-106881422D01*
X102370000Y-99722064D02*
X102370000Y-98517936D01*
X104190000Y-99722064D02*
X104190000Y-98517936D01*
X62140000Y-123428000D02*
X66040000Y-123428000D01*
X62140000Y-121428000D02*
X66040000Y-121428000D01*
X62140000Y-123428000D02*
X62140000Y-121428000D01*
X51145000Y-121555000D02*
X47245000Y-121555000D01*
X51145000Y-123555000D02*
X47245000Y-123555000D01*
X51145000Y-121555000D02*
X51145000Y-123555000D01*
X62688640Y-104266240D02*
X66588640Y-104266240D01*
X62688640Y-102266240D02*
X66588640Y-102266240D01*
X62688640Y-104266240D02*
X62688640Y-102266240D01*
X50784320Y-102164640D02*
X46884320Y-102164640D01*
X50784320Y-104164640D02*
X46884320Y-104164640D01*
X50784320Y-102164640D02*
X50784320Y-104164640D01*
X92182328Y-97738000D02*
X91665172Y-97738000D01*
X92182328Y-96318000D02*
X91665172Y-96318000D01*
X83727672Y-96318000D02*
X84244828Y-96318000D01*
X83727672Y-97738000D02*
X84244828Y-97738000D01*
X79450000Y-109898922D02*
X79450000Y-110416078D01*
X78030000Y-109898922D02*
X78030000Y-110416078D01*
X97794578Y-107722500D02*
X97277422Y-107722500D01*
X97794578Y-106302500D02*
X97277422Y-106302500D01*
X111833922Y-102922000D02*
X112351078Y-102922000D01*
X111833922Y-104342000D02*
X112351078Y-104342000D01*
X94286000Y-119209078D02*
X94286000Y-118691922D01*
X95706000Y-119209078D02*
X95706000Y-118691922D01*
X84276000Y-118691922D02*
X84276000Y-119209078D01*
X82856000Y-118691922D02*
X82856000Y-119209078D01*
D11*
X89383690Y-121473190D02*
X89383690Y-121949380D01*
X89717023Y-120949380D02*
X89383690Y-121473190D01*
X89050357Y-120949380D01*
X88193214Y-121949380D02*
X88764642Y-121949380D01*
X88478928Y-121949380D02*
X88478928Y-120949380D01*
X88574166Y-121092238D01*
X88669404Y-121187476D01*
X88764642Y-121235095D01*
X110248095Y-88734380D02*
X110248095Y-89543904D01*
X110200476Y-89639142D01*
X110152857Y-89686761D01*
X110057619Y-89734380D01*
X109867142Y-89734380D01*
X109771904Y-89686761D01*
X109724285Y-89639142D01*
X109676666Y-89543904D01*
X109676666Y-88734380D01*
X109248095Y-89686761D02*
X109105238Y-89734380D01*
X108867142Y-89734380D01*
X108771904Y-89686761D01*
X108724285Y-89639142D01*
X108676666Y-89543904D01*
X108676666Y-89448666D01*
X108724285Y-89353428D01*
X108771904Y-89305809D01*
X108867142Y-89258190D01*
X109057619Y-89210571D01*
X109152857Y-89162952D01*
X109200476Y-89115333D01*
X109248095Y-89020095D01*
X109248095Y-88924857D01*
X109200476Y-88829619D01*
X109152857Y-88782000D01*
X109057619Y-88734380D01*
X108819523Y-88734380D01*
X108676666Y-88782000D01*
X107914761Y-89210571D02*
X107771904Y-89258190D01*
X107724285Y-89305809D01*
X107676666Y-89401047D01*
X107676666Y-89543904D01*
X107724285Y-89639142D01*
X107771904Y-89686761D01*
X107867142Y-89734380D01*
X108248095Y-89734380D01*
X108248095Y-88734380D01*
X107914761Y-88734380D01*
X107819523Y-88782000D01*
X107771904Y-88829619D01*
X107724285Y-88924857D01*
X107724285Y-89020095D01*
X107771904Y-89115333D01*
X107819523Y-89162952D01*
X107914761Y-89210571D01*
X108248095Y-89210571D01*
X106724285Y-89734380D02*
X107295714Y-89734380D01*
X107010000Y-89734380D02*
X107010000Y-88734380D01*
X107105238Y-88877238D01*
X107200476Y-88972476D01*
X107295714Y-89020095D01*
X88875654Y-98603380D02*
X88875654Y-99412904D01*
X88828035Y-99508142D01*
X88780416Y-99555761D01*
X88685178Y-99603380D01*
X88494702Y-99603380D01*
X88399464Y-99555761D01*
X88351845Y-99508142D01*
X88304226Y-99412904D01*
X88304226Y-98603380D01*
X87304226Y-99603380D02*
X87875654Y-99603380D01*
X87589940Y-99603380D02*
X87589940Y-98603380D01*
X87685178Y-98746238D01*
X87780416Y-98841476D01*
X87875654Y-98889095D01*
X111053333Y-114560761D02*
X110910476Y-114608380D01*
X110672380Y-114608380D01*
X110577142Y-114560761D01*
X110529523Y-114513142D01*
X110481904Y-114417904D01*
X110481904Y-114322666D01*
X110529523Y-114227428D01*
X110577142Y-114179809D01*
X110672380Y-114132190D01*
X110862857Y-114084571D01*
X110958095Y-114036952D01*
X111005714Y-113989333D01*
X111053333Y-113894095D01*
X111053333Y-113798857D01*
X111005714Y-113703619D01*
X110958095Y-113656000D01*
X110862857Y-113608380D01*
X110624761Y-113608380D01*
X110481904Y-113656000D01*
X110148571Y-113608380D02*
X109910476Y-114608380D01*
X109720000Y-113894095D01*
X109529523Y-114608380D01*
X109291428Y-113608380D01*
X108386666Y-114608380D02*
X108958095Y-114608380D01*
X108672380Y-114608380D02*
X108672380Y-113608380D01*
X108767619Y-113751238D01*
X108862857Y-113846476D01*
X108958095Y-113894095D01*
X110182380Y-98753333D02*
X109706190Y-98420000D01*
X110182380Y-98181904D02*
X109182380Y-98181904D01*
X109182380Y-98562857D01*
X109230000Y-98658095D01*
X109277619Y-98705714D01*
X109372857Y-98753333D01*
X109515714Y-98753333D01*
X109610952Y-98705714D01*
X109658571Y-98658095D01*
X109706190Y-98562857D01*
X109706190Y-98181904D01*
X109515714Y-99610476D02*
X110182380Y-99610476D01*
X109134761Y-99372380D02*
X109849047Y-99134285D01*
X109849047Y-99753333D01*
X108372380Y-98660833D02*
X107896190Y-98327500D01*
X108372380Y-98089404D02*
X107372380Y-98089404D01*
X107372380Y-98470357D01*
X107420000Y-98565595D01*
X107467619Y-98613214D01*
X107562857Y-98660833D01*
X107705714Y-98660833D01*
X107800952Y-98613214D01*
X107848571Y-98565595D01*
X107896190Y-98470357D01*
X107896190Y-98089404D01*
X107372380Y-98994166D02*
X107372380Y-99613214D01*
X107753333Y-99279880D01*
X107753333Y-99422738D01*
X107800952Y-99517976D01*
X107848571Y-99565595D01*
X107943809Y-99613214D01*
X108181904Y-99613214D01*
X108277142Y-99565595D01*
X108324761Y-99517976D01*
X108372380Y-99422738D01*
X108372380Y-99137023D01*
X108324761Y-99041785D01*
X108277142Y-98994166D01*
X110812380Y-98680833D02*
X110336190Y-98347500D01*
X110812380Y-98109404D02*
X109812380Y-98109404D01*
X109812380Y-98490357D01*
X109860000Y-98585595D01*
X109907619Y-98633214D01*
X110002857Y-98680833D01*
X110145714Y-98680833D01*
X110240952Y-98633214D01*
X110288571Y-98585595D01*
X110336190Y-98490357D01*
X110336190Y-98109404D01*
X109907619Y-99061785D02*
X109860000Y-99109404D01*
X109812380Y-99204642D01*
X109812380Y-99442738D01*
X109860000Y-99537976D01*
X109907619Y-99585595D01*
X110002857Y-99633214D01*
X110098095Y-99633214D01*
X110240952Y-99585595D01*
X110812380Y-99014166D01*
X110812380Y-99633214D01*
X112584880Y-106973333D02*
X112108690Y-106640000D01*
X112584880Y-106401904D02*
X111584880Y-106401904D01*
X111584880Y-106782857D01*
X111632500Y-106878095D01*
X111680119Y-106925714D01*
X111775357Y-106973333D01*
X111918214Y-106973333D01*
X112013452Y-106925714D01*
X112061071Y-106878095D01*
X112108690Y-106782857D01*
X112108690Y-106401904D01*
X112584880Y-107925714D02*
X112584880Y-107354285D01*
X112584880Y-107640000D02*
X111584880Y-107640000D01*
X111727738Y-107544761D01*
X111822976Y-107449523D01*
X111870595Y-107354285D01*
X105171428Y-99453333D02*
X105171428Y-99786666D01*
X104647619Y-99786666D02*
X105647619Y-99786666D01*
X105647619Y-99310476D01*
X104647619Y-98405714D02*
X104647619Y-98977142D01*
X104647619Y-98691428D02*
X105647619Y-98691428D01*
X105504761Y-98786666D01*
X105409523Y-98881904D01*
X105361904Y-98977142D01*
X65128095Y-124880380D02*
X65128095Y-123880380D01*
X64890000Y-123880380D01*
X64747142Y-123928000D01*
X64651904Y-124023238D01*
X64604285Y-124118476D01*
X64556666Y-124308952D01*
X64556666Y-124451809D01*
X64604285Y-124642285D01*
X64651904Y-124737523D01*
X64747142Y-124832761D01*
X64890000Y-124880380D01*
X65128095Y-124880380D01*
X63699523Y-124213714D02*
X63699523Y-124880380D01*
X63937619Y-123832761D02*
X64175714Y-124547047D01*
X63556666Y-124547047D01*
X49633095Y-121007380D02*
X49633095Y-120007380D01*
X49395000Y-120007380D01*
X49252142Y-120055000D01*
X49156904Y-120150238D01*
X49109285Y-120245476D01*
X49061666Y-120435952D01*
X49061666Y-120578809D01*
X49109285Y-120769285D01*
X49156904Y-120864523D01*
X49252142Y-120959761D01*
X49395000Y-121007380D01*
X49633095Y-121007380D01*
X48728333Y-120007380D02*
X48109285Y-120007380D01*
X48442619Y-120388333D01*
X48299761Y-120388333D01*
X48204523Y-120435952D01*
X48156904Y-120483571D01*
X48109285Y-120578809D01*
X48109285Y-120816904D01*
X48156904Y-120912142D01*
X48204523Y-120959761D01*
X48299761Y-121007380D01*
X48585476Y-121007380D01*
X48680714Y-120959761D01*
X48728333Y-120912142D01*
X65676735Y-105718620D02*
X65676735Y-104718620D01*
X65438640Y-104718620D01*
X65295782Y-104766240D01*
X65200544Y-104861478D01*
X65152925Y-104956716D01*
X65105306Y-105147192D01*
X65105306Y-105290049D01*
X65152925Y-105480525D01*
X65200544Y-105575763D01*
X65295782Y-105671001D01*
X65438640Y-105718620D01*
X65676735Y-105718620D01*
X64724354Y-104813859D02*
X64676735Y-104766240D01*
X64581497Y-104718620D01*
X64343401Y-104718620D01*
X64248163Y-104766240D01*
X64200544Y-104813859D01*
X64152925Y-104909097D01*
X64152925Y-105004335D01*
X64200544Y-105147192D01*
X64771973Y-105718620D01*
X64152925Y-105718620D01*
X49272415Y-101617020D02*
X49272415Y-100617020D01*
X49034320Y-100617020D01*
X48891462Y-100664640D01*
X48796224Y-100759878D01*
X48748605Y-100855116D01*
X48700986Y-101045592D01*
X48700986Y-101188449D01*
X48748605Y-101378925D01*
X48796224Y-101474163D01*
X48891462Y-101569401D01*
X49034320Y-101617020D01*
X49272415Y-101617020D01*
X47748605Y-101617020D02*
X48320034Y-101617020D01*
X48034320Y-101617020D02*
X48034320Y-100617020D01*
X48129558Y-100759878D01*
X48224796Y-100855116D01*
X48320034Y-100902735D01*
X92090416Y-95735142D02*
X92138035Y-95782761D01*
X92280892Y-95830380D01*
X92376130Y-95830380D01*
X92518988Y-95782761D01*
X92614226Y-95687523D01*
X92661845Y-95592285D01*
X92709464Y-95401809D01*
X92709464Y-95258952D01*
X92661845Y-95068476D01*
X92614226Y-94973238D01*
X92518988Y-94878000D01*
X92376130Y-94830380D01*
X92280892Y-94830380D01*
X92138035Y-94878000D01*
X92090416Y-94925619D01*
X91757083Y-94830380D02*
X91090416Y-94830380D01*
X91518988Y-95830380D01*
X84152916Y-99035142D02*
X84200535Y-99082761D01*
X84343392Y-99130380D01*
X84438630Y-99130380D01*
X84581488Y-99082761D01*
X84676726Y-98987523D01*
X84724345Y-98892285D01*
X84771964Y-98701809D01*
X84771964Y-98558952D01*
X84724345Y-98368476D01*
X84676726Y-98273238D01*
X84581488Y-98178000D01*
X84438630Y-98130380D01*
X84343392Y-98130380D01*
X84200535Y-98178000D01*
X84152916Y-98225619D01*
X83295773Y-98130380D02*
X83486250Y-98130380D01*
X83581488Y-98178000D01*
X83629107Y-98225619D01*
X83724345Y-98368476D01*
X83771964Y-98558952D01*
X83771964Y-98939904D01*
X83724345Y-99035142D01*
X83676726Y-99082761D01*
X83581488Y-99130380D01*
X83391011Y-99130380D01*
X83295773Y-99082761D01*
X83248154Y-99035142D01*
X83200535Y-98939904D01*
X83200535Y-98701809D01*
X83248154Y-98606571D01*
X83295773Y-98558952D01*
X83391011Y-98511333D01*
X83581488Y-98511333D01*
X83676726Y-98558952D01*
X83724345Y-98606571D01*
X83771964Y-98701809D01*
X77447142Y-109990833D02*
X77494761Y-109943214D01*
X77542380Y-109800357D01*
X77542380Y-109705119D01*
X77494761Y-109562261D01*
X77399523Y-109467023D01*
X77304285Y-109419404D01*
X77113809Y-109371785D01*
X76970952Y-109371785D01*
X76780476Y-109419404D01*
X76685238Y-109467023D01*
X76590000Y-109562261D01*
X76542380Y-109705119D01*
X76542380Y-109800357D01*
X76590000Y-109943214D01*
X76637619Y-109990833D01*
X76542380Y-110895595D02*
X76542380Y-110419404D01*
X77018571Y-110371785D01*
X76970952Y-110419404D01*
X76923333Y-110514642D01*
X76923333Y-110752738D01*
X76970952Y-110847976D01*
X77018571Y-110895595D01*
X77113809Y-110943214D01*
X77351904Y-110943214D01*
X77447142Y-110895595D01*
X77494761Y-110847976D01*
X77542380Y-110752738D01*
X77542380Y-110514642D01*
X77494761Y-110419404D01*
X77447142Y-110371785D01*
X97702666Y-105719642D02*
X97750285Y-105767261D01*
X97893142Y-105814880D01*
X97988380Y-105814880D01*
X98131238Y-105767261D01*
X98226476Y-105672023D01*
X98274095Y-105576785D01*
X98321714Y-105386309D01*
X98321714Y-105243452D01*
X98274095Y-105052976D01*
X98226476Y-104957738D01*
X98131238Y-104862500D01*
X97988380Y-104814880D01*
X97893142Y-104814880D01*
X97750285Y-104862500D01*
X97702666Y-104910119D01*
X96845523Y-105148214D02*
X96845523Y-105814880D01*
X97083619Y-104767261D02*
X97321714Y-105481547D01*
X96702666Y-105481547D01*
X112259166Y-105639142D02*
X112306785Y-105686761D01*
X112449642Y-105734380D01*
X112544880Y-105734380D01*
X112687738Y-105686761D01*
X112782976Y-105591523D01*
X112830595Y-105496285D01*
X112878214Y-105305809D01*
X112878214Y-105162952D01*
X112830595Y-104972476D01*
X112782976Y-104877238D01*
X112687738Y-104782000D01*
X112544880Y-104734380D01*
X112449642Y-104734380D01*
X112306785Y-104782000D01*
X112259166Y-104829619D01*
X111925833Y-104734380D02*
X111306785Y-104734380D01*
X111640119Y-105115333D01*
X111497261Y-105115333D01*
X111402023Y-105162952D01*
X111354404Y-105210571D01*
X111306785Y-105305809D01*
X111306785Y-105543904D01*
X111354404Y-105639142D01*
X111402023Y-105686761D01*
X111497261Y-105734380D01*
X111782976Y-105734380D01*
X111878214Y-105686761D01*
X111925833Y-105639142D01*
X97003142Y-118783833D02*
X97050761Y-118736214D01*
X97098380Y-118593357D01*
X97098380Y-118498119D01*
X97050761Y-118355261D01*
X96955523Y-118260023D01*
X96860285Y-118212404D01*
X96669809Y-118164785D01*
X96526952Y-118164785D01*
X96336476Y-118212404D01*
X96241238Y-118260023D01*
X96146000Y-118355261D01*
X96098380Y-118498119D01*
X96098380Y-118593357D01*
X96146000Y-118736214D01*
X96193619Y-118783833D01*
X96193619Y-119164785D02*
X96146000Y-119212404D01*
X96098380Y-119307642D01*
X96098380Y-119545738D01*
X96146000Y-119640976D01*
X96193619Y-119688595D01*
X96288857Y-119736214D01*
X96384095Y-119736214D01*
X96526952Y-119688595D01*
X97098380Y-119117166D01*
X97098380Y-119736214D01*
X82273142Y-118783833D02*
X82320761Y-118736214D01*
X82368380Y-118593357D01*
X82368380Y-118498119D01*
X82320761Y-118355261D01*
X82225523Y-118260023D01*
X82130285Y-118212404D01*
X81939809Y-118164785D01*
X81796952Y-118164785D01*
X81606476Y-118212404D01*
X81511238Y-118260023D01*
X81416000Y-118355261D01*
X81368380Y-118498119D01*
X81368380Y-118593357D01*
X81416000Y-118736214D01*
X81463619Y-118783833D01*
X82368380Y-119736214D02*
X82368380Y-119164785D01*
X82368380Y-119450500D02*
X81368380Y-119450500D01*
X81511238Y-119355261D01*
X81606476Y-119260023D01*
X81654095Y-119164785D01*
%LPC*%
D12*
X87807500Y-119897000D03*
X90007500Y-119897000D03*
X90007500Y-118197000D03*
X87807500Y-118197000D03*
D13*
X104860000Y-87250000D03*
X112160000Y-87250000D03*
X112160000Y-91750000D03*
X104860000Y-91750000D03*
D14*
X106910000Y-91750000D03*
X107710000Y-91750000D03*
X108510000Y-91750000D03*
X109310000Y-91750000D03*
X110110000Y-91750000D03*
D15*
X92113750Y-100901000D03*
X91313750Y-100901000D03*
X90513750Y-100901000D03*
X89713750Y-100901000D03*
X88913750Y-100901000D03*
X88113750Y-100901000D03*
X87313750Y-100901000D03*
X86513750Y-100901000D03*
X85713750Y-100901000D03*
X84913750Y-100901000D03*
X84113750Y-100901000D03*
D16*
X82413750Y-102601000D03*
X82413750Y-103401000D03*
X82413750Y-104201000D03*
X82413750Y-105001000D03*
X82413750Y-105801000D03*
X82413750Y-106601000D03*
X82413750Y-107401000D03*
X82413750Y-108201000D03*
X82413750Y-109001000D03*
X82413750Y-109801000D03*
X82413750Y-110601000D03*
D15*
X84113750Y-112301000D03*
X84913750Y-112301000D03*
X85713750Y-112301000D03*
X86513750Y-112301000D03*
X87313750Y-112301000D03*
X88113750Y-112301000D03*
X88913750Y-112301000D03*
X89713750Y-112301000D03*
X90513750Y-112301000D03*
X91313750Y-112301000D03*
X92113750Y-112301000D03*
D16*
X93813750Y-110601000D03*
X93813750Y-109801000D03*
X93813750Y-109001000D03*
X93813750Y-108201000D03*
X93813750Y-107401000D03*
X93813750Y-106601000D03*
X93813750Y-105801000D03*
X93813750Y-105001000D03*
X93813750Y-104201000D03*
X93813750Y-103401000D03*
X93813750Y-102601000D03*
D17*
X106620000Y-116370000D03*
X112820000Y-120070000D03*
X106620000Y-120070000D03*
X112820000Y-116370000D03*
D18*
G36*
X111888141Y-99320297D02*
G01*
X111914278Y-99324174D01*
X111939909Y-99330594D01*
X111964788Y-99339495D01*
X111988674Y-99350793D01*
X112011337Y-99364377D01*
X112032560Y-99380117D01*
X112052139Y-99397861D01*
X112069883Y-99417440D01*
X112085623Y-99438663D01*
X112099207Y-99461326D01*
X112110505Y-99485212D01*
X112119406Y-99510091D01*
X112125826Y-99535722D01*
X112129703Y-99561859D01*
X112131000Y-99588250D01*
X112131000Y-100126750D01*
X112129703Y-100153141D01*
X112125826Y-100179278D01*
X112119406Y-100204909D01*
X112110505Y-100229788D01*
X112099207Y-100253674D01*
X112085623Y-100276337D01*
X112069883Y-100297560D01*
X112052139Y-100317139D01*
X112032560Y-100334883D01*
X112011337Y-100350623D01*
X111988674Y-100364207D01*
X111964788Y-100375505D01*
X111939909Y-100384406D01*
X111914278Y-100390826D01*
X111888141Y-100394703D01*
X111861750Y-100396000D01*
X110898250Y-100396000D01*
X110871859Y-100394703D01*
X110845722Y-100390826D01*
X110820091Y-100384406D01*
X110795212Y-100375505D01*
X110771326Y-100364207D01*
X110748663Y-100350623D01*
X110727440Y-100334883D01*
X110707861Y-100317139D01*
X110690117Y-100297560D01*
X110674377Y-100276337D01*
X110660793Y-100253674D01*
X110649495Y-100229788D01*
X110640594Y-100204909D01*
X110634174Y-100179278D01*
X110630297Y-100153141D01*
X110629000Y-100126750D01*
X110629000Y-99588250D01*
X110630297Y-99561859D01*
X110634174Y-99535722D01*
X110640594Y-99510091D01*
X110649495Y-99485212D01*
X110660793Y-99461326D01*
X110674377Y-99438663D01*
X110690117Y-99417440D01*
X110707861Y-99397861D01*
X110727440Y-99380117D01*
X110748663Y-99364377D01*
X110771326Y-99350793D01*
X110795212Y-99339495D01*
X110820091Y-99330594D01*
X110845722Y-99324174D01*
X110871859Y-99320297D01*
X110898250Y-99319000D01*
X111861750Y-99319000D01*
X111888141Y-99320297D01*
X111888141Y-99320297D01*
G37*
D19*
X111380000Y-99857500D03*
D18*
G36*
X111888141Y-97445297D02*
G01*
X111914278Y-97449174D01*
X111939909Y-97455594D01*
X111964788Y-97464495D01*
X111988674Y-97475793D01*
X112011337Y-97489377D01*
X112032560Y-97505117D01*
X112052139Y-97522861D01*
X112069883Y-97542440D01*
X112085623Y-97563663D01*
X112099207Y-97586326D01*
X112110505Y-97610212D01*
X112119406Y-97635091D01*
X112125826Y-97660722D01*
X112129703Y-97686859D01*
X112131000Y-97713250D01*
X112131000Y-98251750D01*
X112129703Y-98278141D01*
X112125826Y-98304278D01*
X112119406Y-98329909D01*
X112110505Y-98354788D01*
X112099207Y-98378674D01*
X112085623Y-98401337D01*
X112069883Y-98422560D01*
X112052139Y-98442139D01*
X112032560Y-98459883D01*
X112011337Y-98475623D01*
X111988674Y-98489207D01*
X111964788Y-98500505D01*
X111939909Y-98509406D01*
X111914278Y-98515826D01*
X111888141Y-98519703D01*
X111861750Y-98521000D01*
X110898250Y-98521000D01*
X110871859Y-98519703D01*
X110845722Y-98515826D01*
X110820091Y-98509406D01*
X110795212Y-98500505D01*
X110771326Y-98489207D01*
X110748663Y-98475623D01*
X110727440Y-98459883D01*
X110707861Y-98442139D01*
X110690117Y-98422560D01*
X110674377Y-98401337D01*
X110660793Y-98378674D01*
X110649495Y-98354788D01*
X110640594Y-98329909D01*
X110634174Y-98304278D01*
X110630297Y-98278141D01*
X110629000Y-98251750D01*
X110629000Y-97713250D01*
X110630297Y-97686859D01*
X110634174Y-97660722D01*
X110640594Y-97635091D01*
X110649495Y-97610212D01*
X110660793Y-97586326D01*
X110674377Y-97563663D01*
X110690117Y-97542440D01*
X110707861Y-97522861D01*
X110727440Y-97505117D01*
X110748663Y-97489377D01*
X110771326Y-97475793D01*
X110795212Y-97464495D01*
X110820091Y-97455594D01*
X110845722Y-97449174D01*
X110871859Y-97445297D01*
X110898250Y-97444000D01*
X111861750Y-97444000D01*
X111888141Y-97445297D01*
X111888141Y-97445297D01*
G37*
D19*
X111380000Y-97982500D03*
D18*
G36*
X106778141Y-97352797D02*
G01*
X106804278Y-97356674D01*
X106829909Y-97363094D01*
X106854788Y-97371995D01*
X106878674Y-97383293D01*
X106901337Y-97396877D01*
X106922560Y-97412617D01*
X106942139Y-97430361D01*
X106959883Y-97449940D01*
X106975623Y-97471163D01*
X106989207Y-97493826D01*
X107000505Y-97517712D01*
X107009406Y-97542591D01*
X107015826Y-97568222D01*
X107019703Y-97594359D01*
X107021000Y-97620750D01*
X107021000Y-98159250D01*
X107019703Y-98185641D01*
X107015826Y-98211778D01*
X107009406Y-98237409D01*
X107000505Y-98262288D01*
X106989207Y-98286174D01*
X106975623Y-98308837D01*
X106959883Y-98330060D01*
X106942139Y-98349639D01*
X106922560Y-98367383D01*
X106901337Y-98383123D01*
X106878674Y-98396707D01*
X106854788Y-98408005D01*
X106829909Y-98416906D01*
X106804278Y-98423326D01*
X106778141Y-98427203D01*
X106751750Y-98428500D01*
X105788250Y-98428500D01*
X105761859Y-98427203D01*
X105735722Y-98423326D01*
X105710091Y-98416906D01*
X105685212Y-98408005D01*
X105661326Y-98396707D01*
X105638663Y-98383123D01*
X105617440Y-98367383D01*
X105597861Y-98349639D01*
X105580117Y-98330060D01*
X105564377Y-98308837D01*
X105550793Y-98286174D01*
X105539495Y-98262288D01*
X105530594Y-98237409D01*
X105524174Y-98211778D01*
X105520297Y-98185641D01*
X105519000Y-98159250D01*
X105519000Y-97620750D01*
X105520297Y-97594359D01*
X105524174Y-97568222D01*
X105530594Y-97542591D01*
X105539495Y-97517712D01*
X105550793Y-97493826D01*
X105564377Y-97471163D01*
X105580117Y-97449940D01*
X105597861Y-97430361D01*
X105617440Y-97412617D01*
X105638663Y-97396877D01*
X105661326Y-97383293D01*
X105685212Y-97371995D01*
X105710091Y-97363094D01*
X105735722Y-97356674D01*
X105761859Y-97352797D01*
X105788250Y-97351500D01*
X106751750Y-97351500D01*
X106778141Y-97352797D01*
X106778141Y-97352797D01*
G37*
D19*
X106270000Y-97890000D03*
D18*
G36*
X106778141Y-99227797D02*
G01*
X106804278Y-99231674D01*
X106829909Y-99238094D01*
X106854788Y-99246995D01*
X106878674Y-99258293D01*
X106901337Y-99271877D01*
X106922560Y-99287617D01*
X106942139Y-99305361D01*
X106959883Y-99324940D01*
X106975623Y-99346163D01*
X106989207Y-99368826D01*
X107000505Y-99392712D01*
X107009406Y-99417591D01*
X107015826Y-99443222D01*
X107019703Y-99469359D01*
X107021000Y-99495750D01*
X107021000Y-100034250D01*
X107019703Y-100060641D01*
X107015826Y-100086778D01*
X107009406Y-100112409D01*
X107000505Y-100137288D01*
X106989207Y-100161174D01*
X106975623Y-100183837D01*
X106959883Y-100205060D01*
X106942139Y-100224639D01*
X106922560Y-100242383D01*
X106901337Y-100258123D01*
X106878674Y-100271707D01*
X106854788Y-100283005D01*
X106829909Y-100291906D01*
X106804278Y-100298326D01*
X106778141Y-100302203D01*
X106751750Y-100303500D01*
X105788250Y-100303500D01*
X105761859Y-100302203D01*
X105735722Y-100298326D01*
X105710091Y-100291906D01*
X105685212Y-100283005D01*
X105661326Y-100271707D01*
X105638663Y-100258123D01*
X105617440Y-100242383D01*
X105597861Y-100224639D01*
X105580117Y-100205060D01*
X105564377Y-100183837D01*
X105550793Y-100161174D01*
X105539495Y-100137288D01*
X105530594Y-100112409D01*
X105524174Y-100086778D01*
X105520297Y-100060641D01*
X105519000Y-100034250D01*
X105519000Y-99495750D01*
X105520297Y-99469359D01*
X105524174Y-99443222D01*
X105530594Y-99417591D01*
X105539495Y-99392712D01*
X105550793Y-99368826D01*
X105564377Y-99346163D01*
X105580117Y-99324940D01*
X105597861Y-99305361D01*
X105617440Y-99287617D01*
X105638663Y-99271877D01*
X105661326Y-99258293D01*
X105685212Y-99246995D01*
X105710091Y-99238094D01*
X105735722Y-99231674D01*
X105761859Y-99227797D01*
X105788250Y-99226500D01*
X106751750Y-99226500D01*
X106778141Y-99227797D01*
X106778141Y-99227797D01*
G37*
D19*
X106270000Y-99765000D03*
D18*
G36*
X109218141Y-97372797D02*
G01*
X109244278Y-97376674D01*
X109269909Y-97383094D01*
X109294788Y-97391995D01*
X109318674Y-97403293D01*
X109341337Y-97416877D01*
X109362560Y-97432617D01*
X109382139Y-97450361D01*
X109399883Y-97469940D01*
X109415623Y-97491163D01*
X109429207Y-97513826D01*
X109440505Y-97537712D01*
X109449406Y-97562591D01*
X109455826Y-97588222D01*
X109459703Y-97614359D01*
X109461000Y-97640750D01*
X109461000Y-98179250D01*
X109459703Y-98205641D01*
X109455826Y-98231778D01*
X109449406Y-98257409D01*
X109440505Y-98282288D01*
X109429207Y-98306174D01*
X109415623Y-98328837D01*
X109399883Y-98350060D01*
X109382139Y-98369639D01*
X109362560Y-98387383D01*
X109341337Y-98403123D01*
X109318674Y-98416707D01*
X109294788Y-98428005D01*
X109269909Y-98436906D01*
X109244278Y-98443326D01*
X109218141Y-98447203D01*
X109191750Y-98448500D01*
X108228250Y-98448500D01*
X108201859Y-98447203D01*
X108175722Y-98443326D01*
X108150091Y-98436906D01*
X108125212Y-98428005D01*
X108101326Y-98416707D01*
X108078663Y-98403123D01*
X108057440Y-98387383D01*
X108037861Y-98369639D01*
X108020117Y-98350060D01*
X108004377Y-98328837D01*
X107990793Y-98306174D01*
X107979495Y-98282288D01*
X107970594Y-98257409D01*
X107964174Y-98231778D01*
X107960297Y-98205641D01*
X107959000Y-98179250D01*
X107959000Y-97640750D01*
X107960297Y-97614359D01*
X107964174Y-97588222D01*
X107970594Y-97562591D01*
X107979495Y-97537712D01*
X107990793Y-97513826D01*
X108004377Y-97491163D01*
X108020117Y-97469940D01*
X108037861Y-97450361D01*
X108057440Y-97432617D01*
X108078663Y-97416877D01*
X108101326Y-97403293D01*
X108125212Y-97391995D01*
X108150091Y-97383094D01*
X108175722Y-97376674D01*
X108201859Y-97372797D01*
X108228250Y-97371500D01*
X109191750Y-97371500D01*
X109218141Y-97372797D01*
X109218141Y-97372797D01*
G37*
D19*
X108710000Y-97910000D03*
D18*
G36*
X109218141Y-99247797D02*
G01*
X109244278Y-99251674D01*
X109269909Y-99258094D01*
X109294788Y-99266995D01*
X109318674Y-99278293D01*
X109341337Y-99291877D01*
X109362560Y-99307617D01*
X109382139Y-99325361D01*
X109399883Y-99344940D01*
X109415623Y-99366163D01*
X109429207Y-99388826D01*
X109440505Y-99412712D01*
X109449406Y-99437591D01*
X109455826Y-99463222D01*
X109459703Y-99489359D01*
X109461000Y-99515750D01*
X109461000Y-100054250D01*
X109459703Y-100080641D01*
X109455826Y-100106778D01*
X109449406Y-100132409D01*
X109440505Y-100157288D01*
X109429207Y-100181174D01*
X109415623Y-100203837D01*
X109399883Y-100225060D01*
X109382139Y-100244639D01*
X109362560Y-100262383D01*
X109341337Y-100278123D01*
X109318674Y-100291707D01*
X109294788Y-100303005D01*
X109269909Y-100311906D01*
X109244278Y-100318326D01*
X109218141Y-100322203D01*
X109191750Y-100323500D01*
X108228250Y-100323500D01*
X108201859Y-100322203D01*
X108175722Y-100318326D01*
X108150091Y-100311906D01*
X108125212Y-100303005D01*
X108101326Y-100291707D01*
X108078663Y-100278123D01*
X108057440Y-100262383D01*
X108037861Y-100244639D01*
X108020117Y-100225060D01*
X108004377Y-100203837D01*
X107990793Y-100181174D01*
X107979495Y-100157288D01*
X107970594Y-100132409D01*
X107964174Y-100106778D01*
X107960297Y-100080641D01*
X107959000Y-100054250D01*
X107959000Y-99515750D01*
X107960297Y-99489359D01*
X107964174Y-99463222D01*
X107970594Y-99437591D01*
X107979495Y-99412712D01*
X107990793Y-99388826D01*
X108004377Y-99366163D01*
X108020117Y-99344940D01*
X108037861Y-99325361D01*
X108057440Y-99307617D01*
X108078663Y-99291877D01*
X108101326Y-99278293D01*
X108125212Y-99266995D01*
X108150091Y-99258094D01*
X108175722Y-99251674D01*
X108201859Y-99247797D01*
X108228250Y-99246500D01*
X109191750Y-99246500D01*
X109218141Y-99247797D01*
X109218141Y-99247797D01*
G37*
D19*
X108710000Y-99785000D03*
D18*
G36*
X110990641Y-105665297D02*
G01*
X111016778Y-105669174D01*
X111042409Y-105675594D01*
X111067288Y-105684495D01*
X111091174Y-105695793D01*
X111113837Y-105709377D01*
X111135060Y-105725117D01*
X111154639Y-105742861D01*
X111172383Y-105762440D01*
X111188123Y-105783663D01*
X111201707Y-105806326D01*
X111213005Y-105830212D01*
X111221906Y-105855091D01*
X111228326Y-105880722D01*
X111232203Y-105906859D01*
X111233500Y-105933250D01*
X111233500Y-106471750D01*
X111232203Y-106498141D01*
X111228326Y-106524278D01*
X111221906Y-106549909D01*
X111213005Y-106574788D01*
X111201707Y-106598674D01*
X111188123Y-106621337D01*
X111172383Y-106642560D01*
X111154639Y-106662139D01*
X111135060Y-106679883D01*
X111113837Y-106695623D01*
X111091174Y-106709207D01*
X111067288Y-106720505D01*
X111042409Y-106729406D01*
X111016778Y-106735826D01*
X110990641Y-106739703D01*
X110964250Y-106741000D01*
X110000750Y-106741000D01*
X109974359Y-106739703D01*
X109948222Y-106735826D01*
X109922591Y-106729406D01*
X109897712Y-106720505D01*
X109873826Y-106709207D01*
X109851163Y-106695623D01*
X109829940Y-106679883D01*
X109810361Y-106662139D01*
X109792617Y-106642560D01*
X109776877Y-106621337D01*
X109763293Y-106598674D01*
X109751995Y-106574788D01*
X109743094Y-106549909D01*
X109736674Y-106524278D01*
X109732797Y-106498141D01*
X109731500Y-106471750D01*
X109731500Y-105933250D01*
X109732797Y-105906859D01*
X109736674Y-105880722D01*
X109743094Y-105855091D01*
X109751995Y-105830212D01*
X109763293Y-105806326D01*
X109776877Y-105783663D01*
X109792617Y-105762440D01*
X109810361Y-105742861D01*
X109829940Y-105725117D01*
X109851163Y-105709377D01*
X109873826Y-105695793D01*
X109897712Y-105684495D01*
X109922591Y-105675594D01*
X109948222Y-105669174D01*
X109974359Y-105665297D01*
X110000750Y-105664000D01*
X110964250Y-105664000D01*
X110990641Y-105665297D01*
X110990641Y-105665297D01*
G37*
D19*
X110482500Y-106202500D03*
D18*
G36*
X110990641Y-107540297D02*
G01*
X111016778Y-107544174D01*
X111042409Y-107550594D01*
X111067288Y-107559495D01*
X111091174Y-107570793D01*
X111113837Y-107584377D01*
X111135060Y-107600117D01*
X111154639Y-107617861D01*
X111172383Y-107637440D01*
X111188123Y-107658663D01*
X111201707Y-107681326D01*
X111213005Y-107705212D01*
X111221906Y-107730091D01*
X111228326Y-107755722D01*
X111232203Y-107781859D01*
X111233500Y-107808250D01*
X111233500Y-108346750D01*
X111232203Y-108373141D01*
X111228326Y-108399278D01*
X111221906Y-108424909D01*
X111213005Y-108449788D01*
X111201707Y-108473674D01*
X111188123Y-108496337D01*
X111172383Y-108517560D01*
X111154639Y-108537139D01*
X111135060Y-108554883D01*
X111113837Y-108570623D01*
X111091174Y-108584207D01*
X111067288Y-108595505D01*
X111042409Y-108604406D01*
X111016778Y-108610826D01*
X110990641Y-108614703D01*
X110964250Y-108616000D01*
X110000750Y-108616000D01*
X109974359Y-108614703D01*
X109948222Y-108610826D01*
X109922591Y-108604406D01*
X109897712Y-108595505D01*
X109873826Y-108584207D01*
X109851163Y-108570623D01*
X109829940Y-108554883D01*
X109810361Y-108537139D01*
X109792617Y-108517560D01*
X109776877Y-108496337D01*
X109763293Y-108473674D01*
X109751995Y-108449788D01*
X109743094Y-108424909D01*
X109736674Y-108399278D01*
X109732797Y-108373141D01*
X109731500Y-108346750D01*
X109731500Y-107808250D01*
X109732797Y-107781859D01*
X109736674Y-107755722D01*
X109743094Y-107730091D01*
X109751995Y-107705212D01*
X109763293Y-107681326D01*
X109776877Y-107658663D01*
X109792617Y-107637440D01*
X109810361Y-107617861D01*
X109829940Y-107600117D01*
X109851163Y-107584377D01*
X109873826Y-107570793D01*
X109897712Y-107559495D01*
X109922591Y-107550594D01*
X109948222Y-107544174D01*
X109974359Y-107540297D01*
X110000750Y-107539000D01*
X110964250Y-107539000D01*
X110990641Y-107540297D01*
X110990641Y-107540297D01*
G37*
D19*
X110482500Y-108077500D03*
D20*
X68580000Y-114046000D03*
X58420000Y-114046000D03*
D21*
X61000000Y-110046000D03*
D22*
X63500000Y-114046000D03*
D21*
X60345001Y-110776000D03*
D23*
X59690000Y-111506000D02*
X61000002Y-110046000D01*
D21*
X66040000Y-108966000D03*
X66020000Y-109256000D03*
D23*
X66000000Y-109546000D02*
X66040000Y-108966000D01*
D20*
X49530000Y-114046000D03*
X39370000Y-114046000D03*
D21*
X41950000Y-110046000D03*
D22*
X44450000Y-114046000D03*
D21*
X41295001Y-110776000D03*
D23*
X40640000Y-111506000D02*
X41950002Y-110046000D01*
D21*
X46990000Y-108966000D03*
X46970000Y-109256000D03*
D23*
X46950000Y-109546000D02*
X46990000Y-108966000D01*
D20*
X68580000Y-94996000D03*
X58420000Y-94996000D03*
D21*
X61000000Y-90996000D03*
D22*
X63500000Y-94996000D03*
D21*
X60345001Y-91726000D03*
D23*
X59690000Y-92456000D02*
X61000002Y-90996000D01*
D21*
X66040000Y-89916000D03*
X66020000Y-90206000D03*
D23*
X66000000Y-90496000D02*
X66040000Y-89916000D01*
D20*
X49530000Y-94985000D03*
X39370000Y-94985000D03*
D21*
X41950000Y-90985000D03*
D22*
X44450000Y-94985000D03*
D21*
X41295001Y-91715000D03*
D23*
X40640000Y-92445000D02*
X41950002Y-90985000D01*
D21*
X46990000Y-89905000D03*
X46970000Y-90195000D03*
D23*
X46950000Y-90485000D02*
X46990000Y-89905000D01*
D18*
G36*
X103962104Y-97045302D02*
G01*
X103988352Y-97049196D01*
X104014093Y-97055643D01*
X104039078Y-97064583D01*
X104063066Y-97075928D01*
X104085826Y-97089571D01*
X104107140Y-97105378D01*
X104126802Y-97123198D01*
X104144622Y-97142860D01*
X104160429Y-97164174D01*
X104174072Y-97186934D01*
X104185417Y-97210922D01*
X104194357Y-97235907D01*
X104200804Y-97261648D01*
X104204698Y-97287896D01*
X104206000Y-97314400D01*
X104206000Y-98125600D01*
X104204698Y-98152104D01*
X104200804Y-98178352D01*
X104194357Y-98204093D01*
X104185417Y-98229078D01*
X104174072Y-98253066D01*
X104160429Y-98275826D01*
X104144622Y-98297140D01*
X104126802Y-98316802D01*
X104107140Y-98334622D01*
X104085826Y-98350429D01*
X104063066Y-98364072D01*
X104039078Y-98375417D01*
X104014093Y-98384357D01*
X103988352Y-98390804D01*
X103962104Y-98394698D01*
X103935600Y-98396000D01*
X102624400Y-98396000D01*
X102597896Y-98394698D01*
X102571648Y-98390804D01*
X102545907Y-98384357D01*
X102520922Y-98375417D01*
X102496934Y-98364072D01*
X102474174Y-98350429D01*
X102452860Y-98334622D01*
X102433198Y-98316802D01*
X102415378Y-98297140D01*
X102399571Y-98275826D01*
X102385928Y-98253066D01*
X102374583Y-98229078D01*
X102365643Y-98204093D01*
X102359196Y-98178352D01*
X102355302Y-98152104D01*
X102354000Y-98125600D01*
X102354000Y-97314400D01*
X102355302Y-97287896D01*
X102359196Y-97261648D01*
X102365643Y-97235907D01*
X102374583Y-97210922D01*
X102385928Y-97186934D01*
X102399571Y-97164174D01*
X102415378Y-97142860D01*
X102433198Y-97123198D01*
X102452860Y-97105378D01*
X102474174Y-97089571D01*
X102496934Y-97075928D01*
X102520922Y-97064583D01*
X102545907Y-97055643D01*
X102571648Y-97049196D01*
X102597896Y-97045302D01*
X102624400Y-97044000D01*
X103935600Y-97044000D01*
X103962104Y-97045302D01*
X103962104Y-97045302D01*
G37*
D24*
X103280000Y-97720000D03*
D18*
G36*
X103962104Y-99845302D02*
G01*
X103988352Y-99849196D01*
X104014093Y-99855643D01*
X104039078Y-99864583D01*
X104063066Y-99875928D01*
X104085826Y-99889571D01*
X104107140Y-99905378D01*
X104126802Y-99923198D01*
X104144622Y-99942860D01*
X104160429Y-99964174D01*
X104174072Y-99986934D01*
X104185417Y-100010922D01*
X104194357Y-100035907D01*
X104200804Y-100061648D01*
X104204698Y-100087896D01*
X104206000Y-100114400D01*
X104206000Y-100925600D01*
X104204698Y-100952104D01*
X104200804Y-100978352D01*
X104194357Y-101004093D01*
X104185417Y-101029078D01*
X104174072Y-101053066D01*
X104160429Y-101075826D01*
X104144622Y-101097140D01*
X104126802Y-101116802D01*
X104107140Y-101134622D01*
X104085826Y-101150429D01*
X104063066Y-101164072D01*
X104039078Y-101175417D01*
X104014093Y-101184357D01*
X103988352Y-101190804D01*
X103962104Y-101194698D01*
X103935600Y-101196000D01*
X102624400Y-101196000D01*
X102597896Y-101194698D01*
X102571648Y-101190804D01*
X102545907Y-101184357D01*
X102520922Y-101175417D01*
X102496934Y-101164072D01*
X102474174Y-101150429D01*
X102452860Y-101134622D01*
X102433198Y-101116802D01*
X102415378Y-101097140D01*
X102399571Y-101075826D01*
X102385928Y-101053066D01*
X102374583Y-101029078D01*
X102365643Y-101004093D01*
X102359196Y-100978352D01*
X102355302Y-100952104D01*
X102354000Y-100925600D01*
X102354000Y-100114400D01*
X102355302Y-100087896D01*
X102359196Y-100061648D01*
X102365643Y-100035907D01*
X102374583Y-100010922D01*
X102385928Y-99986934D01*
X102399571Y-99964174D01*
X102415378Y-99942860D01*
X102433198Y-99923198D01*
X102452860Y-99905378D01*
X102474174Y-99889571D01*
X102496934Y-99875928D01*
X102520922Y-99864583D01*
X102545907Y-99855643D01*
X102571648Y-99849196D01*
X102597896Y-99845302D01*
X102624400Y-99844000D01*
X103935600Y-99844000D01*
X103962104Y-99845302D01*
X103962104Y-99845302D01*
G37*
D24*
X103280000Y-100520000D03*
D25*
X66040000Y-122428000D03*
X62740000Y-122428000D03*
X47245000Y-122555000D03*
X50545000Y-122555000D03*
X66588640Y-103266240D03*
X63288640Y-103266240D03*
X46884320Y-103164640D03*
X50184320Y-103164640D03*
D18*
G36*
X91281891Y-96278297D02*
G01*
X91308028Y-96282174D01*
X91333659Y-96288594D01*
X91358538Y-96297495D01*
X91382424Y-96308793D01*
X91405087Y-96322377D01*
X91426310Y-96338117D01*
X91445889Y-96355861D01*
X91463633Y-96375440D01*
X91479373Y-96396663D01*
X91492957Y-96419326D01*
X91504255Y-96443212D01*
X91513156Y-96468091D01*
X91519576Y-96493722D01*
X91523453Y-96519859D01*
X91524750Y-96546250D01*
X91524750Y-97509750D01*
X91523453Y-97536141D01*
X91519576Y-97562278D01*
X91513156Y-97587909D01*
X91504255Y-97612788D01*
X91492957Y-97636674D01*
X91479373Y-97659337D01*
X91463633Y-97680560D01*
X91445889Y-97700139D01*
X91426310Y-97717883D01*
X91405087Y-97733623D01*
X91382424Y-97747207D01*
X91358538Y-97758505D01*
X91333659Y-97767406D01*
X91308028Y-97773826D01*
X91281891Y-97777703D01*
X91255500Y-97779000D01*
X90717000Y-97779000D01*
X90690609Y-97777703D01*
X90664472Y-97773826D01*
X90638841Y-97767406D01*
X90613962Y-97758505D01*
X90590076Y-97747207D01*
X90567413Y-97733623D01*
X90546190Y-97717883D01*
X90526611Y-97700139D01*
X90508867Y-97680560D01*
X90493127Y-97659337D01*
X90479543Y-97636674D01*
X90468245Y-97612788D01*
X90459344Y-97587909D01*
X90452924Y-97562278D01*
X90449047Y-97536141D01*
X90447750Y-97509750D01*
X90447750Y-96546250D01*
X90449047Y-96519859D01*
X90452924Y-96493722D01*
X90459344Y-96468091D01*
X90468245Y-96443212D01*
X90479543Y-96419326D01*
X90493127Y-96396663D01*
X90508867Y-96375440D01*
X90526611Y-96355861D01*
X90546190Y-96338117D01*
X90567413Y-96322377D01*
X90590076Y-96308793D01*
X90613962Y-96297495D01*
X90638841Y-96288594D01*
X90664472Y-96282174D01*
X90690609Y-96278297D01*
X90717000Y-96277000D01*
X91255500Y-96277000D01*
X91281891Y-96278297D01*
X91281891Y-96278297D01*
G37*
D19*
X90986250Y-97028000D03*
D18*
G36*
X93156891Y-96278297D02*
G01*
X93183028Y-96282174D01*
X93208659Y-96288594D01*
X93233538Y-96297495D01*
X93257424Y-96308793D01*
X93280087Y-96322377D01*
X93301310Y-96338117D01*
X93320889Y-96355861D01*
X93338633Y-96375440D01*
X93354373Y-96396663D01*
X93367957Y-96419326D01*
X93379255Y-96443212D01*
X93388156Y-96468091D01*
X93394576Y-96493722D01*
X93398453Y-96519859D01*
X93399750Y-96546250D01*
X93399750Y-97509750D01*
X93398453Y-97536141D01*
X93394576Y-97562278D01*
X93388156Y-97587909D01*
X93379255Y-97612788D01*
X93367957Y-97636674D01*
X93354373Y-97659337D01*
X93338633Y-97680560D01*
X93320889Y-97700139D01*
X93301310Y-97717883D01*
X93280087Y-97733623D01*
X93257424Y-97747207D01*
X93233538Y-97758505D01*
X93208659Y-97767406D01*
X93183028Y-97773826D01*
X93156891Y-97777703D01*
X93130500Y-97779000D01*
X92592000Y-97779000D01*
X92565609Y-97777703D01*
X92539472Y-97773826D01*
X92513841Y-97767406D01*
X92488962Y-97758505D01*
X92465076Y-97747207D01*
X92442413Y-97733623D01*
X92421190Y-97717883D01*
X92401611Y-97700139D01*
X92383867Y-97680560D01*
X92368127Y-97659337D01*
X92354543Y-97636674D01*
X92343245Y-97612788D01*
X92334344Y-97587909D01*
X92327924Y-97562278D01*
X92324047Y-97536141D01*
X92322750Y-97509750D01*
X92322750Y-96546250D01*
X92324047Y-96519859D01*
X92327924Y-96493722D01*
X92334344Y-96468091D01*
X92343245Y-96443212D01*
X92354543Y-96419326D01*
X92368127Y-96396663D01*
X92383867Y-96375440D01*
X92401611Y-96355861D01*
X92421190Y-96338117D01*
X92442413Y-96322377D01*
X92465076Y-96308793D01*
X92488962Y-96297495D01*
X92513841Y-96288594D01*
X92539472Y-96282174D01*
X92565609Y-96278297D01*
X92592000Y-96277000D01*
X93130500Y-96277000D01*
X93156891Y-96278297D01*
X93156891Y-96278297D01*
G37*
D19*
X92861250Y-97028000D03*
D18*
G36*
X85219391Y-96278297D02*
G01*
X85245528Y-96282174D01*
X85271159Y-96288594D01*
X85296038Y-96297495D01*
X85319924Y-96308793D01*
X85342587Y-96322377D01*
X85363810Y-96338117D01*
X85383389Y-96355861D01*
X85401133Y-96375440D01*
X85416873Y-96396663D01*
X85430457Y-96419326D01*
X85441755Y-96443212D01*
X85450656Y-96468091D01*
X85457076Y-96493722D01*
X85460953Y-96519859D01*
X85462250Y-96546250D01*
X85462250Y-97509750D01*
X85460953Y-97536141D01*
X85457076Y-97562278D01*
X85450656Y-97587909D01*
X85441755Y-97612788D01*
X85430457Y-97636674D01*
X85416873Y-97659337D01*
X85401133Y-97680560D01*
X85383389Y-97700139D01*
X85363810Y-97717883D01*
X85342587Y-97733623D01*
X85319924Y-97747207D01*
X85296038Y-97758505D01*
X85271159Y-97767406D01*
X85245528Y-97773826D01*
X85219391Y-97777703D01*
X85193000Y-97779000D01*
X84654500Y-97779000D01*
X84628109Y-97777703D01*
X84601972Y-97773826D01*
X84576341Y-97767406D01*
X84551462Y-97758505D01*
X84527576Y-97747207D01*
X84504913Y-97733623D01*
X84483690Y-97717883D01*
X84464111Y-97700139D01*
X84446367Y-97680560D01*
X84430627Y-97659337D01*
X84417043Y-97636674D01*
X84405745Y-97612788D01*
X84396844Y-97587909D01*
X84390424Y-97562278D01*
X84386547Y-97536141D01*
X84385250Y-97509750D01*
X84385250Y-96546250D01*
X84386547Y-96519859D01*
X84390424Y-96493722D01*
X84396844Y-96468091D01*
X84405745Y-96443212D01*
X84417043Y-96419326D01*
X84430627Y-96396663D01*
X84446367Y-96375440D01*
X84464111Y-96355861D01*
X84483690Y-96338117D01*
X84504913Y-96322377D01*
X84527576Y-96308793D01*
X84551462Y-96297495D01*
X84576341Y-96288594D01*
X84601972Y-96282174D01*
X84628109Y-96278297D01*
X84654500Y-96277000D01*
X85193000Y-96277000D01*
X85219391Y-96278297D01*
X85219391Y-96278297D01*
G37*
D19*
X84923750Y-97028000D03*
D18*
G36*
X83344391Y-96278297D02*
G01*
X83370528Y-96282174D01*
X83396159Y-96288594D01*
X83421038Y-96297495D01*
X83444924Y-96308793D01*
X83467587Y-96322377D01*
X83488810Y-96338117D01*
X83508389Y-96355861D01*
X83526133Y-96375440D01*
X83541873Y-96396663D01*
X83555457Y-96419326D01*
X83566755Y-96443212D01*
X83575656Y-96468091D01*
X83582076Y-96493722D01*
X83585953Y-96519859D01*
X83587250Y-96546250D01*
X83587250Y-97509750D01*
X83585953Y-97536141D01*
X83582076Y-97562278D01*
X83575656Y-97587909D01*
X83566755Y-97612788D01*
X83555457Y-97636674D01*
X83541873Y-97659337D01*
X83526133Y-97680560D01*
X83508389Y-97700139D01*
X83488810Y-97717883D01*
X83467587Y-97733623D01*
X83444924Y-97747207D01*
X83421038Y-97758505D01*
X83396159Y-97767406D01*
X83370528Y-97773826D01*
X83344391Y-97777703D01*
X83318000Y-97779000D01*
X82779500Y-97779000D01*
X82753109Y-97777703D01*
X82726972Y-97773826D01*
X82701341Y-97767406D01*
X82676462Y-97758505D01*
X82652576Y-97747207D01*
X82629913Y-97733623D01*
X82608690Y-97717883D01*
X82589111Y-97700139D01*
X82571367Y-97680560D01*
X82555627Y-97659337D01*
X82542043Y-97636674D01*
X82530745Y-97612788D01*
X82521844Y-97587909D01*
X82515424Y-97562278D01*
X82511547Y-97536141D01*
X82510250Y-97509750D01*
X82510250Y-96546250D01*
X82511547Y-96519859D01*
X82515424Y-96493722D01*
X82521844Y-96468091D01*
X82530745Y-96443212D01*
X82542043Y-96419326D01*
X82555627Y-96396663D01*
X82571367Y-96375440D01*
X82589111Y-96355861D01*
X82608690Y-96338117D01*
X82629913Y-96322377D01*
X82652576Y-96308793D01*
X82676462Y-96297495D01*
X82701341Y-96288594D01*
X82726972Y-96282174D01*
X82753109Y-96278297D01*
X82779500Y-96277000D01*
X83318000Y-96277000D01*
X83344391Y-96278297D01*
X83344391Y-96278297D01*
G37*
D19*
X83048750Y-97028000D03*
D18*
G36*
X79248141Y-110557797D02*
G01*
X79274278Y-110561674D01*
X79299909Y-110568094D01*
X79324788Y-110576995D01*
X79348674Y-110588293D01*
X79371337Y-110601877D01*
X79392560Y-110617617D01*
X79412139Y-110635361D01*
X79429883Y-110654940D01*
X79445623Y-110676163D01*
X79459207Y-110698826D01*
X79470505Y-110722712D01*
X79479406Y-110747591D01*
X79485826Y-110773222D01*
X79489703Y-110799359D01*
X79491000Y-110825750D01*
X79491000Y-111364250D01*
X79489703Y-111390641D01*
X79485826Y-111416778D01*
X79479406Y-111442409D01*
X79470505Y-111467288D01*
X79459207Y-111491174D01*
X79445623Y-111513837D01*
X79429883Y-111535060D01*
X79412139Y-111554639D01*
X79392560Y-111572383D01*
X79371337Y-111588123D01*
X79348674Y-111601707D01*
X79324788Y-111613005D01*
X79299909Y-111621906D01*
X79274278Y-111628326D01*
X79248141Y-111632203D01*
X79221750Y-111633500D01*
X78258250Y-111633500D01*
X78231859Y-111632203D01*
X78205722Y-111628326D01*
X78180091Y-111621906D01*
X78155212Y-111613005D01*
X78131326Y-111601707D01*
X78108663Y-111588123D01*
X78087440Y-111572383D01*
X78067861Y-111554639D01*
X78050117Y-111535060D01*
X78034377Y-111513837D01*
X78020793Y-111491174D01*
X78009495Y-111467288D01*
X78000594Y-111442409D01*
X77994174Y-111416778D01*
X77990297Y-111390641D01*
X77989000Y-111364250D01*
X77989000Y-110825750D01*
X77990297Y-110799359D01*
X77994174Y-110773222D01*
X78000594Y-110747591D01*
X78009495Y-110722712D01*
X78020793Y-110698826D01*
X78034377Y-110676163D01*
X78050117Y-110654940D01*
X78067861Y-110635361D01*
X78087440Y-110617617D01*
X78108663Y-110601877D01*
X78131326Y-110588293D01*
X78155212Y-110576995D01*
X78180091Y-110568094D01*
X78205722Y-110561674D01*
X78231859Y-110557797D01*
X78258250Y-110556500D01*
X79221750Y-110556500D01*
X79248141Y-110557797D01*
X79248141Y-110557797D01*
G37*
D19*
X78740000Y-111095000D03*
D18*
G36*
X79248141Y-108682797D02*
G01*
X79274278Y-108686674D01*
X79299909Y-108693094D01*
X79324788Y-108701995D01*
X79348674Y-108713293D01*
X79371337Y-108726877D01*
X79392560Y-108742617D01*
X79412139Y-108760361D01*
X79429883Y-108779940D01*
X79445623Y-108801163D01*
X79459207Y-108823826D01*
X79470505Y-108847712D01*
X79479406Y-108872591D01*
X79485826Y-108898222D01*
X79489703Y-108924359D01*
X79491000Y-108950750D01*
X79491000Y-109489250D01*
X79489703Y-109515641D01*
X79485826Y-109541778D01*
X79479406Y-109567409D01*
X79470505Y-109592288D01*
X79459207Y-109616174D01*
X79445623Y-109638837D01*
X79429883Y-109660060D01*
X79412139Y-109679639D01*
X79392560Y-109697383D01*
X79371337Y-109713123D01*
X79348674Y-109726707D01*
X79324788Y-109738005D01*
X79299909Y-109746906D01*
X79274278Y-109753326D01*
X79248141Y-109757203D01*
X79221750Y-109758500D01*
X78258250Y-109758500D01*
X78231859Y-109757203D01*
X78205722Y-109753326D01*
X78180091Y-109746906D01*
X78155212Y-109738005D01*
X78131326Y-109726707D01*
X78108663Y-109713123D01*
X78087440Y-109697383D01*
X78067861Y-109679639D01*
X78050117Y-109660060D01*
X78034377Y-109638837D01*
X78020793Y-109616174D01*
X78009495Y-109592288D01*
X78000594Y-109567409D01*
X77994174Y-109541778D01*
X77990297Y-109515641D01*
X77989000Y-109489250D01*
X77989000Y-108950750D01*
X77990297Y-108924359D01*
X77994174Y-108898222D01*
X78000594Y-108872591D01*
X78009495Y-108847712D01*
X78020793Y-108823826D01*
X78034377Y-108801163D01*
X78050117Y-108779940D01*
X78067861Y-108760361D01*
X78087440Y-108742617D01*
X78108663Y-108726877D01*
X78131326Y-108713293D01*
X78155212Y-108701995D01*
X78180091Y-108693094D01*
X78205722Y-108686674D01*
X78231859Y-108682797D01*
X78258250Y-108681500D01*
X79221750Y-108681500D01*
X79248141Y-108682797D01*
X79248141Y-108682797D01*
G37*
D19*
X78740000Y-109220000D03*
D18*
G36*
X96894141Y-106262797D02*
G01*
X96920278Y-106266674D01*
X96945909Y-106273094D01*
X96970788Y-106281995D01*
X96994674Y-106293293D01*
X97017337Y-106306877D01*
X97038560Y-106322617D01*
X97058139Y-106340361D01*
X97075883Y-106359940D01*
X97091623Y-106381163D01*
X97105207Y-106403826D01*
X97116505Y-106427712D01*
X97125406Y-106452591D01*
X97131826Y-106478222D01*
X97135703Y-106504359D01*
X97137000Y-106530750D01*
X97137000Y-107494250D01*
X97135703Y-107520641D01*
X97131826Y-107546778D01*
X97125406Y-107572409D01*
X97116505Y-107597288D01*
X97105207Y-107621174D01*
X97091623Y-107643837D01*
X97075883Y-107665060D01*
X97058139Y-107684639D01*
X97038560Y-107702383D01*
X97017337Y-107718123D01*
X96994674Y-107731707D01*
X96970788Y-107743005D01*
X96945909Y-107751906D01*
X96920278Y-107758326D01*
X96894141Y-107762203D01*
X96867750Y-107763500D01*
X96329250Y-107763500D01*
X96302859Y-107762203D01*
X96276722Y-107758326D01*
X96251091Y-107751906D01*
X96226212Y-107743005D01*
X96202326Y-107731707D01*
X96179663Y-107718123D01*
X96158440Y-107702383D01*
X96138861Y-107684639D01*
X96121117Y-107665060D01*
X96105377Y-107643837D01*
X96091793Y-107621174D01*
X96080495Y-107597288D01*
X96071594Y-107572409D01*
X96065174Y-107546778D01*
X96061297Y-107520641D01*
X96060000Y-107494250D01*
X96060000Y-106530750D01*
X96061297Y-106504359D01*
X96065174Y-106478222D01*
X96071594Y-106452591D01*
X96080495Y-106427712D01*
X96091793Y-106403826D01*
X96105377Y-106381163D01*
X96121117Y-106359940D01*
X96138861Y-106340361D01*
X96158440Y-106322617D01*
X96179663Y-106306877D01*
X96202326Y-106293293D01*
X96226212Y-106281995D01*
X96251091Y-106273094D01*
X96276722Y-106266674D01*
X96302859Y-106262797D01*
X96329250Y-106261500D01*
X96867750Y-106261500D01*
X96894141Y-106262797D01*
X96894141Y-106262797D01*
G37*
D19*
X96598500Y-107012500D03*
D18*
G36*
X98769141Y-106262797D02*
G01*
X98795278Y-106266674D01*
X98820909Y-106273094D01*
X98845788Y-106281995D01*
X98869674Y-106293293D01*
X98892337Y-106306877D01*
X98913560Y-106322617D01*
X98933139Y-106340361D01*
X98950883Y-106359940D01*
X98966623Y-106381163D01*
X98980207Y-106403826D01*
X98991505Y-106427712D01*
X99000406Y-106452591D01*
X99006826Y-106478222D01*
X99010703Y-106504359D01*
X99012000Y-106530750D01*
X99012000Y-107494250D01*
X99010703Y-107520641D01*
X99006826Y-107546778D01*
X99000406Y-107572409D01*
X98991505Y-107597288D01*
X98980207Y-107621174D01*
X98966623Y-107643837D01*
X98950883Y-107665060D01*
X98933139Y-107684639D01*
X98913560Y-107702383D01*
X98892337Y-107718123D01*
X98869674Y-107731707D01*
X98845788Y-107743005D01*
X98820909Y-107751906D01*
X98795278Y-107758326D01*
X98769141Y-107762203D01*
X98742750Y-107763500D01*
X98204250Y-107763500D01*
X98177859Y-107762203D01*
X98151722Y-107758326D01*
X98126091Y-107751906D01*
X98101212Y-107743005D01*
X98077326Y-107731707D01*
X98054663Y-107718123D01*
X98033440Y-107702383D01*
X98013861Y-107684639D01*
X97996117Y-107665060D01*
X97980377Y-107643837D01*
X97966793Y-107621174D01*
X97955495Y-107597288D01*
X97946594Y-107572409D01*
X97940174Y-107546778D01*
X97936297Y-107520641D01*
X97935000Y-107494250D01*
X97935000Y-106530750D01*
X97936297Y-106504359D01*
X97940174Y-106478222D01*
X97946594Y-106452591D01*
X97955495Y-106427712D01*
X97966793Y-106403826D01*
X97980377Y-106381163D01*
X97996117Y-106359940D01*
X98013861Y-106340361D01*
X98033440Y-106322617D01*
X98054663Y-106306877D01*
X98077326Y-106293293D01*
X98101212Y-106281995D01*
X98126091Y-106273094D01*
X98151722Y-106266674D01*
X98177859Y-106262797D01*
X98204250Y-106261500D01*
X98742750Y-106261500D01*
X98769141Y-106262797D01*
X98769141Y-106262797D01*
G37*
D19*
X98473500Y-107012500D03*
D18*
G36*
X113325641Y-102882297D02*
G01*
X113351778Y-102886174D01*
X113377409Y-102892594D01*
X113402288Y-102901495D01*
X113426174Y-102912793D01*
X113448837Y-102926377D01*
X113470060Y-102942117D01*
X113489639Y-102959861D01*
X113507383Y-102979440D01*
X113523123Y-103000663D01*
X113536707Y-103023326D01*
X113548005Y-103047212D01*
X113556906Y-103072091D01*
X113563326Y-103097722D01*
X113567203Y-103123859D01*
X113568500Y-103150250D01*
X113568500Y-104113750D01*
X113567203Y-104140141D01*
X113563326Y-104166278D01*
X113556906Y-104191909D01*
X113548005Y-104216788D01*
X113536707Y-104240674D01*
X113523123Y-104263337D01*
X113507383Y-104284560D01*
X113489639Y-104304139D01*
X113470060Y-104321883D01*
X113448837Y-104337623D01*
X113426174Y-104351207D01*
X113402288Y-104362505D01*
X113377409Y-104371406D01*
X113351778Y-104377826D01*
X113325641Y-104381703D01*
X113299250Y-104383000D01*
X112760750Y-104383000D01*
X112734359Y-104381703D01*
X112708222Y-104377826D01*
X112682591Y-104371406D01*
X112657712Y-104362505D01*
X112633826Y-104351207D01*
X112611163Y-104337623D01*
X112589940Y-104321883D01*
X112570361Y-104304139D01*
X112552617Y-104284560D01*
X112536877Y-104263337D01*
X112523293Y-104240674D01*
X112511995Y-104216788D01*
X112503094Y-104191909D01*
X112496674Y-104166278D01*
X112492797Y-104140141D01*
X112491500Y-104113750D01*
X112491500Y-103150250D01*
X112492797Y-103123859D01*
X112496674Y-103097722D01*
X112503094Y-103072091D01*
X112511995Y-103047212D01*
X112523293Y-103023326D01*
X112536877Y-103000663D01*
X112552617Y-102979440D01*
X112570361Y-102959861D01*
X112589940Y-102942117D01*
X112611163Y-102926377D01*
X112633826Y-102912793D01*
X112657712Y-102901495D01*
X112682591Y-102892594D01*
X112708222Y-102886174D01*
X112734359Y-102882297D01*
X112760750Y-102881000D01*
X113299250Y-102881000D01*
X113325641Y-102882297D01*
X113325641Y-102882297D01*
G37*
D19*
X113030000Y-103632000D03*
D18*
G36*
X111450641Y-102882297D02*
G01*
X111476778Y-102886174D01*
X111502409Y-102892594D01*
X111527288Y-102901495D01*
X111551174Y-102912793D01*
X111573837Y-102926377D01*
X111595060Y-102942117D01*
X111614639Y-102959861D01*
X111632383Y-102979440D01*
X111648123Y-103000663D01*
X111661707Y-103023326D01*
X111673005Y-103047212D01*
X111681906Y-103072091D01*
X111688326Y-103097722D01*
X111692203Y-103123859D01*
X111693500Y-103150250D01*
X111693500Y-104113750D01*
X111692203Y-104140141D01*
X111688326Y-104166278D01*
X111681906Y-104191909D01*
X111673005Y-104216788D01*
X111661707Y-104240674D01*
X111648123Y-104263337D01*
X111632383Y-104284560D01*
X111614639Y-104304139D01*
X111595060Y-104321883D01*
X111573837Y-104337623D01*
X111551174Y-104351207D01*
X111527288Y-104362505D01*
X111502409Y-104371406D01*
X111476778Y-104377826D01*
X111450641Y-104381703D01*
X111424250Y-104383000D01*
X110885750Y-104383000D01*
X110859359Y-104381703D01*
X110833222Y-104377826D01*
X110807591Y-104371406D01*
X110782712Y-104362505D01*
X110758826Y-104351207D01*
X110736163Y-104337623D01*
X110714940Y-104321883D01*
X110695361Y-104304139D01*
X110677617Y-104284560D01*
X110661877Y-104263337D01*
X110648293Y-104240674D01*
X110636995Y-104216788D01*
X110628094Y-104191909D01*
X110621674Y-104166278D01*
X110617797Y-104140141D01*
X110616500Y-104113750D01*
X110616500Y-103150250D01*
X110617797Y-103123859D01*
X110621674Y-103097722D01*
X110628094Y-103072091D01*
X110636995Y-103047212D01*
X110648293Y-103023326D01*
X110661877Y-103000663D01*
X110677617Y-102979440D01*
X110695361Y-102959861D01*
X110714940Y-102942117D01*
X110736163Y-102926377D01*
X110758826Y-102912793D01*
X110782712Y-102901495D01*
X110807591Y-102892594D01*
X110833222Y-102886174D01*
X110859359Y-102882297D01*
X110885750Y-102881000D01*
X111424250Y-102881000D01*
X111450641Y-102882297D01*
X111450641Y-102882297D01*
G37*
D19*
X111155000Y-103632000D03*
D18*
G36*
X95504141Y-117475797D02*
G01*
X95530278Y-117479674D01*
X95555909Y-117486094D01*
X95580788Y-117494995D01*
X95604674Y-117506293D01*
X95627337Y-117519877D01*
X95648560Y-117535617D01*
X95668139Y-117553361D01*
X95685883Y-117572940D01*
X95701623Y-117594163D01*
X95715207Y-117616826D01*
X95726505Y-117640712D01*
X95735406Y-117665591D01*
X95741826Y-117691222D01*
X95745703Y-117717359D01*
X95747000Y-117743750D01*
X95747000Y-118282250D01*
X95745703Y-118308641D01*
X95741826Y-118334778D01*
X95735406Y-118360409D01*
X95726505Y-118385288D01*
X95715207Y-118409174D01*
X95701623Y-118431837D01*
X95685883Y-118453060D01*
X95668139Y-118472639D01*
X95648560Y-118490383D01*
X95627337Y-118506123D01*
X95604674Y-118519707D01*
X95580788Y-118531005D01*
X95555909Y-118539906D01*
X95530278Y-118546326D01*
X95504141Y-118550203D01*
X95477750Y-118551500D01*
X94514250Y-118551500D01*
X94487859Y-118550203D01*
X94461722Y-118546326D01*
X94436091Y-118539906D01*
X94411212Y-118531005D01*
X94387326Y-118519707D01*
X94364663Y-118506123D01*
X94343440Y-118490383D01*
X94323861Y-118472639D01*
X94306117Y-118453060D01*
X94290377Y-118431837D01*
X94276793Y-118409174D01*
X94265495Y-118385288D01*
X94256594Y-118360409D01*
X94250174Y-118334778D01*
X94246297Y-118308641D01*
X94245000Y-118282250D01*
X94245000Y-117743750D01*
X94246297Y-117717359D01*
X94250174Y-117691222D01*
X94256594Y-117665591D01*
X94265495Y-117640712D01*
X94276793Y-117616826D01*
X94290377Y-117594163D01*
X94306117Y-117572940D01*
X94323861Y-117553361D01*
X94343440Y-117535617D01*
X94364663Y-117519877D01*
X94387326Y-117506293D01*
X94411212Y-117494995D01*
X94436091Y-117486094D01*
X94461722Y-117479674D01*
X94487859Y-117475797D01*
X94514250Y-117474500D01*
X95477750Y-117474500D01*
X95504141Y-117475797D01*
X95504141Y-117475797D01*
G37*
D19*
X94996000Y-118013000D03*
D18*
G36*
X95504141Y-119350797D02*
G01*
X95530278Y-119354674D01*
X95555909Y-119361094D01*
X95580788Y-119369995D01*
X95604674Y-119381293D01*
X95627337Y-119394877D01*
X95648560Y-119410617D01*
X95668139Y-119428361D01*
X95685883Y-119447940D01*
X95701623Y-119469163D01*
X95715207Y-119491826D01*
X95726505Y-119515712D01*
X95735406Y-119540591D01*
X95741826Y-119566222D01*
X95745703Y-119592359D01*
X95747000Y-119618750D01*
X95747000Y-120157250D01*
X95745703Y-120183641D01*
X95741826Y-120209778D01*
X95735406Y-120235409D01*
X95726505Y-120260288D01*
X95715207Y-120284174D01*
X95701623Y-120306837D01*
X95685883Y-120328060D01*
X95668139Y-120347639D01*
X95648560Y-120365383D01*
X95627337Y-120381123D01*
X95604674Y-120394707D01*
X95580788Y-120406005D01*
X95555909Y-120414906D01*
X95530278Y-120421326D01*
X95504141Y-120425203D01*
X95477750Y-120426500D01*
X94514250Y-120426500D01*
X94487859Y-120425203D01*
X94461722Y-120421326D01*
X94436091Y-120414906D01*
X94411212Y-120406005D01*
X94387326Y-120394707D01*
X94364663Y-120381123D01*
X94343440Y-120365383D01*
X94323861Y-120347639D01*
X94306117Y-120328060D01*
X94290377Y-120306837D01*
X94276793Y-120284174D01*
X94265495Y-120260288D01*
X94256594Y-120235409D01*
X94250174Y-120209778D01*
X94246297Y-120183641D01*
X94245000Y-120157250D01*
X94245000Y-119618750D01*
X94246297Y-119592359D01*
X94250174Y-119566222D01*
X94256594Y-119540591D01*
X94265495Y-119515712D01*
X94276793Y-119491826D01*
X94290377Y-119469163D01*
X94306117Y-119447940D01*
X94323861Y-119428361D01*
X94343440Y-119410617D01*
X94364663Y-119394877D01*
X94387326Y-119381293D01*
X94411212Y-119369995D01*
X94436091Y-119361094D01*
X94461722Y-119354674D01*
X94487859Y-119350797D01*
X94514250Y-119349500D01*
X95477750Y-119349500D01*
X95504141Y-119350797D01*
X95504141Y-119350797D01*
G37*
D19*
X94996000Y-119888000D03*
D18*
G36*
X84074141Y-119350797D02*
G01*
X84100278Y-119354674D01*
X84125909Y-119361094D01*
X84150788Y-119369995D01*
X84174674Y-119381293D01*
X84197337Y-119394877D01*
X84218560Y-119410617D01*
X84238139Y-119428361D01*
X84255883Y-119447940D01*
X84271623Y-119469163D01*
X84285207Y-119491826D01*
X84296505Y-119515712D01*
X84305406Y-119540591D01*
X84311826Y-119566222D01*
X84315703Y-119592359D01*
X84317000Y-119618750D01*
X84317000Y-120157250D01*
X84315703Y-120183641D01*
X84311826Y-120209778D01*
X84305406Y-120235409D01*
X84296505Y-120260288D01*
X84285207Y-120284174D01*
X84271623Y-120306837D01*
X84255883Y-120328060D01*
X84238139Y-120347639D01*
X84218560Y-120365383D01*
X84197337Y-120381123D01*
X84174674Y-120394707D01*
X84150788Y-120406005D01*
X84125909Y-120414906D01*
X84100278Y-120421326D01*
X84074141Y-120425203D01*
X84047750Y-120426500D01*
X83084250Y-120426500D01*
X83057859Y-120425203D01*
X83031722Y-120421326D01*
X83006091Y-120414906D01*
X82981212Y-120406005D01*
X82957326Y-120394707D01*
X82934663Y-120381123D01*
X82913440Y-120365383D01*
X82893861Y-120347639D01*
X82876117Y-120328060D01*
X82860377Y-120306837D01*
X82846793Y-120284174D01*
X82835495Y-120260288D01*
X82826594Y-120235409D01*
X82820174Y-120209778D01*
X82816297Y-120183641D01*
X82815000Y-120157250D01*
X82815000Y-119618750D01*
X82816297Y-119592359D01*
X82820174Y-119566222D01*
X82826594Y-119540591D01*
X82835495Y-119515712D01*
X82846793Y-119491826D01*
X82860377Y-119469163D01*
X82876117Y-119447940D01*
X82893861Y-119428361D01*
X82913440Y-119410617D01*
X82934663Y-119394877D01*
X82957326Y-119381293D01*
X82981212Y-119369995D01*
X83006091Y-119361094D01*
X83031722Y-119354674D01*
X83057859Y-119350797D01*
X83084250Y-119349500D01*
X84047750Y-119349500D01*
X84074141Y-119350797D01*
X84074141Y-119350797D01*
G37*
D19*
X83566000Y-119888000D03*
D18*
G36*
X84074141Y-117475797D02*
G01*
X84100278Y-117479674D01*
X84125909Y-117486094D01*
X84150788Y-117494995D01*
X84174674Y-117506293D01*
X84197337Y-117519877D01*
X84218560Y-117535617D01*
X84238139Y-117553361D01*
X84255883Y-117572940D01*
X84271623Y-117594163D01*
X84285207Y-117616826D01*
X84296505Y-117640712D01*
X84305406Y-117665591D01*
X84311826Y-117691222D01*
X84315703Y-117717359D01*
X84317000Y-117743750D01*
X84317000Y-118282250D01*
X84315703Y-118308641D01*
X84311826Y-118334778D01*
X84305406Y-118360409D01*
X84296505Y-118385288D01*
X84285207Y-118409174D01*
X84271623Y-118431837D01*
X84255883Y-118453060D01*
X84238139Y-118472639D01*
X84218560Y-118490383D01*
X84197337Y-118506123D01*
X84174674Y-118519707D01*
X84150788Y-118531005D01*
X84125909Y-118539906D01*
X84100278Y-118546326D01*
X84074141Y-118550203D01*
X84047750Y-118551500D01*
X83084250Y-118551500D01*
X83057859Y-118550203D01*
X83031722Y-118546326D01*
X83006091Y-118539906D01*
X82981212Y-118531005D01*
X82957326Y-118519707D01*
X82934663Y-118506123D01*
X82913440Y-118490383D01*
X82893861Y-118472639D01*
X82876117Y-118453060D01*
X82860377Y-118431837D01*
X82846793Y-118409174D01*
X82835495Y-118385288D01*
X82826594Y-118360409D01*
X82820174Y-118334778D01*
X82816297Y-118308641D01*
X82815000Y-118282250D01*
X82815000Y-117743750D01*
X82816297Y-117717359D01*
X82820174Y-117691222D01*
X82826594Y-117665591D01*
X82835495Y-117640712D01*
X82846793Y-117616826D01*
X82860377Y-117594163D01*
X82876117Y-117572940D01*
X82893861Y-117553361D01*
X82913440Y-117535617D01*
X82934663Y-117519877D01*
X82957326Y-117506293D01*
X82981212Y-117494995D01*
X83006091Y-117486094D01*
X83031722Y-117479674D01*
X83057859Y-117475797D01*
X83084250Y-117474500D01*
X84047750Y-117474500D01*
X84074141Y-117475797D01*
X84074141Y-117475797D01*
G37*
D19*
X83566000Y-118013000D03*
M02*
