G04 #@! TF.GenerationSoftware,KiCad,Pcbnew,(5.1.4)-1*
G04 #@! TF.CreationDate,2022-10-15T13:05:20-05:00*
G04 #@! TF.ProjectId,ai03-guide,61693033-2d67-4756-9964-652e6b696361,rev?*
G04 #@! TF.SameCoordinates,Original*
G04 #@! TF.FileFunction,Copper,L1,Top*
G04 #@! TF.FilePolarity,Positive*
%FSLAX46Y46*%
G04 Gerber Fmt 4.6, Leading zero omitted, Abs format (unit mm)*
G04 Created by KiCad (PCBNEW (5.1.4)-1) date 2022-10-15 13:05:20*
%MOMM*%
%LPD*%
G04 APERTURE LIST*
%ADD10O,1.700000X2.700000*%
%ADD11C,2.250000*%
%ADD12C,2.250000*%
%ADD13C,0.800000*%
%ADD14C,0.381000*%
%ADD15C,0.250000*%
G04 APERTURE END LIST*
D10*
X104860000Y-87250000D03*
X112160000Y-87250000D03*
X112160000Y-91750000D03*
X104860000Y-91750000D03*
D11*
X61000000Y-110046000D03*
X60345001Y-110776000D03*
D12*
X59690000Y-111506000D02*
X61000002Y-110046000D01*
D11*
X66040000Y-108966000D03*
X66020000Y-109256000D03*
D12*
X66000000Y-109546000D02*
X66040000Y-108966000D01*
D11*
X41950000Y-110046000D03*
X41295001Y-110776000D03*
D12*
X40640000Y-111506000D02*
X41950002Y-110046000D01*
D11*
X46990000Y-108966000D03*
X46970000Y-109256000D03*
D12*
X46950000Y-109546000D02*
X46990000Y-108966000D01*
D11*
X61000000Y-90996000D03*
X60345001Y-91726000D03*
D12*
X59690000Y-92456000D02*
X61000002Y-90996000D01*
D11*
X66040000Y-89916000D03*
X66020000Y-90206000D03*
D12*
X66000000Y-90496000D02*
X66040000Y-89916000D01*
D11*
X41950000Y-90985000D03*
X41295001Y-91715000D03*
D12*
X40640000Y-92445000D02*
X41950002Y-90985000D01*
D11*
X46990000Y-89905000D03*
X46970000Y-90195000D03*
D12*
X46950000Y-90485000D02*
X46990000Y-89905000D01*
D13*
X76962000Y-109220000D03*
X82804000Y-95504000D03*
X92964000Y-95504000D03*
X102616000Y-103378000D03*
X99822000Y-107188000D03*
X108966000Y-109220000D03*
X94996000Y-113792000D03*
X99822000Y-108966000D03*
X80518000Y-102616000D03*
X111506000Y-101346000D03*
D14*
X76962000Y-109220000D02*
X76962000Y-101346000D01*
X76962000Y-101346000D02*
X82804000Y-95504000D01*
X82804000Y-95504000D02*
X92964000Y-95504000D01*
X102616000Y-103378000D02*
X102616000Y-104394000D01*
X102616000Y-104394000D02*
X99822000Y-107188000D01*
X99822000Y-107188000D02*
X106934000Y-107188000D01*
X106934000Y-107188000D02*
X108966000Y-109220000D01*
X99822000Y-108966000D02*
X99822000Y-107188000D01*
X94996000Y-113792000D02*
X99822000Y-108966000D01*
D15*
X40640000Y-108736000D02*
X40640000Y-111506000D01*
X40640000Y-92445000D02*
X40640000Y-108736000D01*
X59690000Y-108736000D02*
X59690000Y-111506000D01*
X59690000Y-92456000D02*
X59690000Y-108736000D01*
X80518000Y-102616000D02*
X81788000Y-101346000D01*
X81788000Y-101346000D02*
X111506000Y-101346000D01*
M02*
