G04 #@! TF.GenerationSoftware,KiCad,Pcbnew,(5.1.4)-1*
G04 #@! TF.CreationDate,2022-10-15T13:05:20-05:00*
G04 #@! TF.ProjectId,ai03-guide,61693033-2d67-4756-9964-652e6b696361,rev?*
G04 #@! TF.SameCoordinates,Original*
G04 #@! TF.FileFunction,Soldermask,Top*
G04 #@! TF.FilePolarity,Negative*
%FSLAX46Y46*%
G04 Gerber Fmt 4.6, Leading zero omitted, Abs format (unit mm)*
G04 Created by KiCad (PCBNEW (5.1.4)-1) date 2022-10-15 13:05:20*
%MOMM*%
%LPD*%
G04 APERTURE LIST*
%ADD10C,0.100000*%
G04 APERTURE END LIST*
D10*
G36*
X45046474Y-112079684D02*
G01*
X45264474Y-112169983D01*
X45418623Y-112233833D01*
X45753548Y-112457623D01*
X46038377Y-112742452D01*
X46262167Y-113077377D01*
X46294562Y-113155586D01*
X46416316Y-113449526D01*
X46494900Y-113844594D01*
X46494900Y-114247406D01*
X46416316Y-114642474D01*
X46365451Y-114765272D01*
X46262167Y-115014623D01*
X46038377Y-115349548D01*
X45753548Y-115634377D01*
X45418623Y-115858167D01*
X45264474Y-115922017D01*
X45046474Y-116012316D01*
X44651406Y-116090900D01*
X44248594Y-116090900D01*
X43853526Y-116012316D01*
X43635526Y-115922017D01*
X43481377Y-115858167D01*
X43146452Y-115634377D01*
X42861623Y-115349548D01*
X42637833Y-115014623D01*
X42534549Y-114765272D01*
X42483684Y-114642474D01*
X42405100Y-114247406D01*
X42405100Y-113844594D01*
X42483684Y-113449526D01*
X42605438Y-113155586D01*
X42637833Y-113077377D01*
X42861623Y-112742452D01*
X43146452Y-112457623D01*
X43481377Y-112233833D01*
X43635526Y-112169983D01*
X43853526Y-112079684D01*
X44248594Y-112001100D01*
X44651406Y-112001100D01*
X45046474Y-112079684D01*
X45046474Y-112079684D01*
G37*
G36*
X64096474Y-112079684D02*
G01*
X64314474Y-112169983D01*
X64468623Y-112233833D01*
X64803548Y-112457623D01*
X65088377Y-112742452D01*
X65312167Y-113077377D01*
X65344562Y-113155586D01*
X65466316Y-113449526D01*
X65544900Y-113844594D01*
X65544900Y-114247406D01*
X65466316Y-114642474D01*
X65415451Y-114765272D01*
X65312167Y-115014623D01*
X65088377Y-115349548D01*
X64803548Y-115634377D01*
X64468623Y-115858167D01*
X64314474Y-115922017D01*
X64096474Y-116012316D01*
X63701406Y-116090900D01*
X63298594Y-116090900D01*
X62903526Y-116012316D01*
X62685526Y-115922017D01*
X62531377Y-115858167D01*
X62196452Y-115634377D01*
X61911623Y-115349548D01*
X61687833Y-115014623D01*
X61584549Y-114765272D01*
X61533684Y-114642474D01*
X61455100Y-114247406D01*
X61455100Y-113844594D01*
X61533684Y-113449526D01*
X61655438Y-113155586D01*
X61687833Y-113077377D01*
X61911623Y-112742452D01*
X62196452Y-112457623D01*
X62531377Y-112233833D01*
X62685526Y-112169983D01*
X62903526Y-112079684D01*
X63298594Y-112001100D01*
X63701406Y-112001100D01*
X64096474Y-112079684D01*
X64096474Y-112079684D01*
G37*
G36*
X68850104Y-113155585D02*
G01*
X69018626Y-113225389D01*
X69170291Y-113326728D01*
X69299272Y-113455709D01*
X69400611Y-113607374D01*
X69470415Y-113775896D01*
X69506000Y-113954797D01*
X69506000Y-114137203D01*
X69470415Y-114316104D01*
X69400611Y-114484626D01*
X69299272Y-114636291D01*
X69170291Y-114765272D01*
X69018626Y-114866611D01*
X68850104Y-114936415D01*
X68671203Y-114972000D01*
X68488797Y-114972000D01*
X68309896Y-114936415D01*
X68141374Y-114866611D01*
X67989709Y-114765272D01*
X67860728Y-114636291D01*
X67759389Y-114484626D01*
X67689585Y-114316104D01*
X67654000Y-114137203D01*
X67654000Y-113954797D01*
X67689585Y-113775896D01*
X67759389Y-113607374D01*
X67860728Y-113455709D01*
X67989709Y-113326728D01*
X68141374Y-113225389D01*
X68309896Y-113155585D01*
X68488797Y-113120000D01*
X68671203Y-113120000D01*
X68850104Y-113155585D01*
X68850104Y-113155585D01*
G37*
G36*
X58690104Y-113155585D02*
G01*
X58858626Y-113225389D01*
X59010291Y-113326728D01*
X59139272Y-113455709D01*
X59240611Y-113607374D01*
X59310415Y-113775896D01*
X59346000Y-113954797D01*
X59346000Y-114137203D01*
X59310415Y-114316104D01*
X59240611Y-114484626D01*
X59139272Y-114636291D01*
X59010291Y-114765272D01*
X58858626Y-114866611D01*
X58690104Y-114936415D01*
X58511203Y-114972000D01*
X58328797Y-114972000D01*
X58149896Y-114936415D01*
X57981374Y-114866611D01*
X57829709Y-114765272D01*
X57700728Y-114636291D01*
X57599389Y-114484626D01*
X57529585Y-114316104D01*
X57494000Y-114137203D01*
X57494000Y-113954797D01*
X57529585Y-113775896D01*
X57599389Y-113607374D01*
X57700728Y-113455709D01*
X57829709Y-113326728D01*
X57981374Y-113225389D01*
X58149896Y-113155585D01*
X58328797Y-113120000D01*
X58511203Y-113120000D01*
X58690104Y-113155585D01*
X58690104Y-113155585D01*
G37*
G36*
X49800104Y-113155585D02*
G01*
X49968626Y-113225389D01*
X50120291Y-113326728D01*
X50249272Y-113455709D01*
X50350611Y-113607374D01*
X50420415Y-113775896D01*
X50456000Y-113954797D01*
X50456000Y-114137203D01*
X50420415Y-114316104D01*
X50350611Y-114484626D01*
X50249272Y-114636291D01*
X50120291Y-114765272D01*
X49968626Y-114866611D01*
X49800104Y-114936415D01*
X49621203Y-114972000D01*
X49438797Y-114972000D01*
X49259896Y-114936415D01*
X49091374Y-114866611D01*
X48939709Y-114765272D01*
X48810728Y-114636291D01*
X48709389Y-114484626D01*
X48639585Y-114316104D01*
X48604000Y-114137203D01*
X48604000Y-113954797D01*
X48639585Y-113775896D01*
X48709389Y-113607374D01*
X48810728Y-113455709D01*
X48939709Y-113326728D01*
X49091374Y-113225389D01*
X49259896Y-113155585D01*
X49438797Y-113120000D01*
X49621203Y-113120000D01*
X49800104Y-113155585D01*
X49800104Y-113155585D01*
G37*
G36*
X39640104Y-113155585D02*
G01*
X39808626Y-113225389D01*
X39960291Y-113326728D01*
X40089272Y-113455709D01*
X40190611Y-113607374D01*
X40260415Y-113775896D01*
X40296000Y-113954797D01*
X40296000Y-114137203D01*
X40260415Y-114316104D01*
X40190611Y-114484626D01*
X40089272Y-114636291D01*
X39960291Y-114765272D01*
X39808626Y-114866611D01*
X39640104Y-114936415D01*
X39461203Y-114972000D01*
X39278797Y-114972000D01*
X39099896Y-114936415D01*
X38931374Y-114866611D01*
X38779709Y-114765272D01*
X38650728Y-114636291D01*
X38549389Y-114484626D01*
X38479585Y-114316104D01*
X38444000Y-114137203D01*
X38444000Y-113954797D01*
X38479585Y-113775896D01*
X38549389Y-113607374D01*
X38650728Y-113455709D01*
X38779709Y-113326728D01*
X38931374Y-113225389D01*
X39099896Y-113155585D01*
X39278797Y-113120000D01*
X39461203Y-113120000D01*
X39640104Y-113155585D01*
X39640104Y-113155585D01*
G37*
G36*
X64096474Y-93029684D02*
G01*
X64233502Y-93086443D01*
X64468623Y-93183833D01*
X64803548Y-93407623D01*
X65088377Y-93692452D01*
X65312167Y-94027377D01*
X65344562Y-94105586D01*
X65466316Y-94399526D01*
X65544900Y-94794594D01*
X65544900Y-95197406D01*
X65466316Y-95592474D01*
X65415451Y-95715272D01*
X65312167Y-95964623D01*
X65088377Y-96299548D01*
X64803548Y-96584377D01*
X64468623Y-96808167D01*
X64314474Y-96872017D01*
X64096474Y-96962316D01*
X63701406Y-97040900D01*
X63298594Y-97040900D01*
X62903526Y-96962316D01*
X62685526Y-96872017D01*
X62531377Y-96808167D01*
X62196452Y-96584377D01*
X61911623Y-96299548D01*
X61687833Y-95964623D01*
X61584549Y-95715272D01*
X61533684Y-95592474D01*
X61455100Y-95197406D01*
X61455100Y-94794594D01*
X61533684Y-94399526D01*
X61655438Y-94105586D01*
X61687833Y-94027377D01*
X61911623Y-93692452D01*
X62196452Y-93407623D01*
X62531377Y-93183833D01*
X62766498Y-93086443D01*
X62903526Y-93029684D01*
X63298594Y-92951100D01*
X63701406Y-92951100D01*
X64096474Y-93029684D01*
X64096474Y-93029684D01*
G37*
G36*
X45046474Y-93018684D02*
G01*
X45210056Y-93086442D01*
X45418623Y-93172833D01*
X45753548Y-93396623D01*
X46038377Y-93681452D01*
X46262167Y-94016377D01*
X46294562Y-94094586D01*
X46416316Y-94388526D01*
X46494900Y-94783594D01*
X46494900Y-95186406D01*
X46416316Y-95581474D01*
X46365451Y-95704272D01*
X46262167Y-95953623D01*
X46038377Y-96288548D01*
X45753548Y-96573377D01*
X45418623Y-96797167D01*
X45264474Y-96861017D01*
X45046474Y-96951316D01*
X44651406Y-97029900D01*
X44248594Y-97029900D01*
X43853526Y-96951316D01*
X43635526Y-96861017D01*
X43481377Y-96797167D01*
X43146452Y-96573377D01*
X42861623Y-96288548D01*
X42637833Y-95953623D01*
X42534549Y-95704272D01*
X42483684Y-95581474D01*
X42405100Y-95186406D01*
X42405100Y-94783594D01*
X42483684Y-94388526D01*
X42605438Y-94094586D01*
X42637833Y-94016377D01*
X42861623Y-93681452D01*
X43146452Y-93396623D01*
X43481377Y-93172833D01*
X43689944Y-93086442D01*
X43853526Y-93018684D01*
X44248594Y-92940100D01*
X44651406Y-92940100D01*
X45046474Y-93018684D01*
X45046474Y-93018684D01*
G37*
G36*
X68850104Y-94105585D02*
G01*
X69018626Y-94175389D01*
X69170291Y-94276728D01*
X69299272Y-94405709D01*
X69400611Y-94557374D01*
X69470415Y-94725896D01*
X69506000Y-94904797D01*
X69506000Y-95087203D01*
X69470415Y-95266104D01*
X69400611Y-95434626D01*
X69299272Y-95586291D01*
X69170291Y-95715272D01*
X69018626Y-95816611D01*
X68850104Y-95886415D01*
X68671203Y-95922000D01*
X68488797Y-95922000D01*
X68309896Y-95886415D01*
X68141374Y-95816611D01*
X67989709Y-95715272D01*
X67860728Y-95586291D01*
X67759389Y-95434626D01*
X67689585Y-95266104D01*
X67654000Y-95087203D01*
X67654000Y-94904797D01*
X67689585Y-94725896D01*
X67759389Y-94557374D01*
X67860728Y-94405709D01*
X67989709Y-94276728D01*
X68141374Y-94175389D01*
X68309896Y-94105585D01*
X68488797Y-94070000D01*
X68671203Y-94070000D01*
X68850104Y-94105585D01*
X68850104Y-94105585D01*
G37*
G36*
X58690104Y-94105585D02*
G01*
X58858626Y-94175389D01*
X59010291Y-94276728D01*
X59139272Y-94405709D01*
X59240611Y-94557374D01*
X59310415Y-94725896D01*
X59346000Y-94904797D01*
X59346000Y-95087203D01*
X59310415Y-95266104D01*
X59240611Y-95434626D01*
X59139272Y-95586291D01*
X59010291Y-95715272D01*
X58858626Y-95816611D01*
X58690104Y-95886415D01*
X58511203Y-95922000D01*
X58328797Y-95922000D01*
X58149896Y-95886415D01*
X57981374Y-95816611D01*
X57829709Y-95715272D01*
X57700728Y-95586291D01*
X57599389Y-95434626D01*
X57529585Y-95266104D01*
X57494000Y-95087203D01*
X57494000Y-94904797D01*
X57529585Y-94725896D01*
X57599389Y-94557374D01*
X57700728Y-94405709D01*
X57829709Y-94276728D01*
X57981374Y-94175389D01*
X58149896Y-94105585D01*
X58328797Y-94070000D01*
X58511203Y-94070000D01*
X58690104Y-94105585D01*
X58690104Y-94105585D01*
G37*
G36*
X39640104Y-94094585D02*
G01*
X39808626Y-94164389D01*
X39960291Y-94265728D01*
X40089272Y-94394709D01*
X40190611Y-94546374D01*
X40260415Y-94714896D01*
X40296000Y-94893797D01*
X40296000Y-95076203D01*
X40260415Y-95255104D01*
X40190611Y-95423626D01*
X40089272Y-95575291D01*
X39960291Y-95704272D01*
X39808626Y-95805611D01*
X39640104Y-95875415D01*
X39461203Y-95911000D01*
X39278797Y-95911000D01*
X39099896Y-95875415D01*
X38931374Y-95805611D01*
X38779709Y-95704272D01*
X38650728Y-95575291D01*
X38549389Y-95423626D01*
X38479585Y-95255104D01*
X38444000Y-95076203D01*
X38444000Y-94893797D01*
X38479585Y-94714896D01*
X38549389Y-94546374D01*
X38650728Y-94394709D01*
X38779709Y-94265728D01*
X38931374Y-94164389D01*
X39099896Y-94094585D01*
X39278797Y-94059000D01*
X39461203Y-94059000D01*
X39640104Y-94094585D01*
X39640104Y-94094585D01*
G37*
G36*
X49800104Y-94094585D02*
G01*
X49968626Y-94164389D01*
X50120291Y-94265728D01*
X50249272Y-94394709D01*
X50350611Y-94546374D01*
X50420415Y-94714896D01*
X50456000Y-94893797D01*
X50456000Y-95076203D01*
X50420415Y-95255104D01*
X50350611Y-95423626D01*
X50249272Y-95575291D01*
X50120291Y-95704272D01*
X49968626Y-95805611D01*
X49800104Y-95875415D01*
X49621203Y-95911000D01*
X49438797Y-95911000D01*
X49259896Y-95875415D01*
X49091374Y-95805611D01*
X48939709Y-95704272D01*
X48810728Y-95575291D01*
X48709389Y-95423626D01*
X48639585Y-95255104D01*
X48604000Y-95076203D01*
X48604000Y-94893797D01*
X48639585Y-94714896D01*
X48709389Y-94546374D01*
X48810728Y-94394709D01*
X48939709Y-94265728D01*
X49091374Y-94164389D01*
X49259896Y-94094585D01*
X49438797Y-94059000D01*
X49621203Y-94059000D01*
X49800104Y-94094585D01*
X49800104Y-94094585D01*
G37*
G36*
X105036627Y-90362037D02*
G01*
X105206466Y-90413557D01*
X105362991Y-90497222D01*
X105398729Y-90526552D01*
X105500186Y-90609814D01*
X105583448Y-90711271D01*
X105612778Y-90747009D01*
X105696443Y-90903534D01*
X105747963Y-91073373D01*
X105761000Y-91205742D01*
X105761000Y-92294258D01*
X105747963Y-92426627D01*
X105696443Y-92596466D01*
X105612778Y-92752991D01*
X105583448Y-92788729D01*
X105500186Y-92890186D01*
X105362989Y-93002779D01*
X105206467Y-93086442D01*
X105206465Y-93086443D01*
X105036626Y-93137963D01*
X104860000Y-93155359D01*
X104683373Y-93137963D01*
X104513534Y-93086443D01*
X104357009Y-93002778D01*
X104321271Y-92973448D01*
X104219814Y-92890186D01*
X104107221Y-92752989D01*
X104023558Y-92596467D01*
X104023557Y-92596465D01*
X103972037Y-92426626D01*
X103959000Y-92294257D01*
X103959001Y-91205742D01*
X103972038Y-91073373D01*
X104023558Y-90903534D01*
X104107223Y-90747009D01*
X104136553Y-90711271D01*
X104219815Y-90609814D01*
X104321272Y-90526552D01*
X104357010Y-90497222D01*
X104513535Y-90413557D01*
X104683374Y-90362037D01*
X104860000Y-90344641D01*
X105036627Y-90362037D01*
X105036627Y-90362037D01*
G37*
G36*
X112336627Y-90362037D02*
G01*
X112506466Y-90413557D01*
X112662991Y-90497222D01*
X112698729Y-90526552D01*
X112800186Y-90609814D01*
X112883448Y-90711271D01*
X112912778Y-90747009D01*
X112996443Y-90903534D01*
X113047963Y-91073373D01*
X113061000Y-91205742D01*
X113061000Y-92294258D01*
X113047963Y-92426627D01*
X112996443Y-92596466D01*
X112912778Y-92752991D01*
X112883448Y-92788729D01*
X112800186Y-92890186D01*
X112662989Y-93002779D01*
X112506467Y-93086442D01*
X112506465Y-93086443D01*
X112336626Y-93137963D01*
X112160000Y-93155359D01*
X111983373Y-93137963D01*
X111813534Y-93086443D01*
X111657009Y-93002778D01*
X111621271Y-92973448D01*
X111519814Y-92890186D01*
X111407221Y-92752989D01*
X111323558Y-92596467D01*
X111323557Y-92596465D01*
X111272037Y-92426626D01*
X111259000Y-92294257D01*
X111259001Y-91205742D01*
X111272038Y-91073373D01*
X111323558Y-90903534D01*
X111407223Y-90747009D01*
X111436553Y-90711271D01*
X111519815Y-90609814D01*
X111621272Y-90526552D01*
X111657010Y-90497222D01*
X111813535Y-90413557D01*
X111983374Y-90362037D01*
X112160000Y-90344641D01*
X112336627Y-90362037D01*
X112336627Y-90362037D01*
G37*
G36*
X112336627Y-85862037D02*
G01*
X112506466Y-85913557D01*
X112662991Y-85997222D01*
X112698729Y-86026552D01*
X112800186Y-86109814D01*
X112883448Y-86211271D01*
X112912778Y-86247009D01*
X112996443Y-86403534D01*
X113047963Y-86573373D01*
X113061000Y-86705742D01*
X113061000Y-87794258D01*
X113047963Y-87926627D01*
X112996443Y-88096466D01*
X112912778Y-88252991D01*
X112883448Y-88288729D01*
X112800186Y-88390186D01*
X112662989Y-88502779D01*
X112506467Y-88586442D01*
X112506465Y-88586443D01*
X112336626Y-88637963D01*
X112160000Y-88655359D01*
X111983373Y-88637963D01*
X111813534Y-88586443D01*
X111657009Y-88502778D01*
X111621271Y-88473448D01*
X111519814Y-88390186D01*
X111407221Y-88252989D01*
X111323558Y-88096467D01*
X111323557Y-88096465D01*
X111272037Y-87926626D01*
X111259000Y-87794257D01*
X111259001Y-86705742D01*
X111272038Y-86573373D01*
X111323558Y-86403534D01*
X111407223Y-86247009D01*
X111436553Y-86211271D01*
X111519815Y-86109814D01*
X111621272Y-86026552D01*
X111657010Y-85997222D01*
X111813535Y-85913557D01*
X111983374Y-85862037D01*
X112160000Y-85844641D01*
X112336627Y-85862037D01*
X112336627Y-85862037D01*
G37*
G36*
X105036627Y-85862037D02*
G01*
X105206466Y-85913557D01*
X105362991Y-85997222D01*
X105398729Y-86026552D01*
X105500186Y-86109814D01*
X105583448Y-86211271D01*
X105612778Y-86247009D01*
X105696443Y-86403534D01*
X105747963Y-86573373D01*
X105761000Y-86705742D01*
X105761000Y-87794258D01*
X105747963Y-87926627D01*
X105696443Y-88096466D01*
X105612778Y-88252991D01*
X105583448Y-88288729D01*
X105500186Y-88390186D01*
X105362989Y-88502779D01*
X105206467Y-88586442D01*
X105206465Y-88586443D01*
X105036626Y-88637963D01*
X104860000Y-88655359D01*
X104683373Y-88637963D01*
X104513534Y-88586443D01*
X104357009Y-88502778D01*
X104321271Y-88473448D01*
X104219814Y-88390186D01*
X104107221Y-88252989D01*
X104023558Y-88096467D01*
X104023557Y-88096465D01*
X103972037Y-87926626D01*
X103959000Y-87794257D01*
X103959001Y-86705742D01*
X103972038Y-86573373D01*
X104023558Y-86403534D01*
X104107223Y-86247009D01*
X104136553Y-86211271D01*
X104219815Y-86109814D01*
X104321272Y-86026552D01*
X104357010Y-85997222D01*
X104513535Y-85913557D01*
X104683374Y-85862037D01*
X104860000Y-85844641D01*
X105036627Y-85862037D01*
X105036627Y-85862037D01*
G37*
M02*
